# Blender v2.91.0 OBJ File: ''
# www.blender.org
mtllib connector.mtl
o Plane.008_Plane.009
v 4.559128 0.025642 -3.510736
v 4.559128 0.025642 -4.562013
v 4.159841 0.025642 -4.562013
v 4.159841 0.025642 -3.510736
v -4.496200 0.051283 -4.225713
v -3.444920 0.051283 -4.225713
v -3.444920 0.051283 -4.625000
v -4.496200 0.051283 -4.625000
v -4.159897 0.051283 -3.510736
v -4.159897 0.051283 -4.562013
v -4.559185 0.051283 -4.562013
v -4.559185 0.051283 -3.510736
v 4.559128 0.025640 4.430325
v 4.559128 0.025640 3.379049
v 4.159841 0.025640 3.379049
v 4.159841 0.025640 4.430325
v -4.159897 0.051281 4.430325
v -4.159897 0.051281 3.379049
v -4.559185 0.051281 3.379049
v -4.559185 0.051281 4.430325
v 3.444864 0.025640 4.493315
v 4.496140 0.025640 4.493315
v 4.496140 0.025640 4.094026
v 3.444864 0.025640 4.094026
v 3.444864 0.051283 -4.225710
v 4.496140 0.051283 -4.225710
v 4.496140 0.051283 -4.625000
v 3.444864 0.051283 -4.625000
v -4.496197 0.025640 4.493315
v -3.444920 0.025640 4.493315
v -3.444920 0.025640 4.094026
v -4.496197 0.025640 4.094026
v 5.002510 -0.000003 4.990861
v 5.002510 0.000003 -5.025048
v -5.002536 0.000003 -5.025048
v -5.002538 -0.000003 4.990864
vt 0.000000 0.000000
vt 0.000000 1.000000
vt 1.000000 1.000000
vt 1.000000 0.000000
vt 0.000000 0.000000
vt 0.000000 1.000000
vt 1.000000 1.000000
vt 1.000000 0.000000
vt 0.000000 0.000000
vt 0.000000 1.000000
vt 1.000000 1.000000
vt 1.000000 0.000000
vt 0.000000 0.000000
vt 0.000000 1.000000
vt 1.000000 1.000000
vt 1.000000 0.000000
vt 0.000000 0.000000
vt 0.000000 1.000000
vt 1.000000 1.000000
vt 1.000000 0.000000
vt 0.000000 0.000000
vt 0.000000 1.000000
vt 1.000000 1.000000
vt 1.000000 0.000000
vt 0.000000 0.000000
vt 0.000000 1.000000
vt 1.000000 1.000000
vt 1.000000 0.000000
vt 0.000000 0.000000
vt 0.000000 1.000000
vt 1.000000 1.000000
vt 1.000000 0.000000
vt 0.000000 0.000000
vt 0.000000 1.000000
vt 1.000000 1.000000
vt 1.000000 0.000000
vn 0.0000 1.0000 0.0000
usemtl Material.009
s 1
f 1/1/1 2/2/1 3/3/1 4/4/1
f 5/5/1 6/6/1 7/7/1 8/8/1
f 9/9/1 10/10/1 11/11/1 12/12/1
f 13/13/1 14/14/1 15/15/1 16/16/1
f 17/17/1 18/18/1 19/19/1 20/20/1
f 21/21/1 22/22/1 23/23/1 24/24/1
f 25/25/1 26/26/1 27/27/1 28/28/1
f 29/29/1 30/30/1 31/31/1 32/32/1
usemtl Material.010
f 33/33/1 34/34/1 35/35/1 36/36/1
