# Blender v2.91.0 OBJ File: ''
# www.blender.org
mtllib connector.mtl
o Plane.008_Plane.009
v 4.573431 0.025723 -3.521750
v 4.573431 0.025723 -4.576325
v 4.172892 0.025723 -4.576325
v 4.172892 0.025723 -3.521750
v -4.510306 0.051445 -4.238970
v -3.455728 0.051445 -4.238970
v -3.455728 0.051445 -4.639510
v -4.510306 0.051445 -4.639510
v -4.172947 0.051444 -3.521750
v -4.172947 0.051445 -4.576325
v -4.573488 0.051445 -4.576325
v -4.573488 0.051444 -3.521750
v 4.573431 0.025720 4.444224
v 4.573431 0.025720 3.389650
v 4.172892 0.025720 3.389650
v 4.172892 0.025720 4.444224
v -4.172947 0.051441 4.444224
v -4.172947 0.051441 3.389650
v -4.573488 0.051441 3.389650
v -4.573488 0.051441 4.444224
v 3.455671 0.025720 4.507412
v 4.510245 0.025720 4.507412
v 4.510245 0.025720 4.106870
v 3.455671 0.025720 4.106870
v 3.455671 0.051445 -4.238967
v 4.510245 0.051445 -4.238967
v 4.510245 0.051445 -4.639510
v 3.455671 0.051445 -4.639510
v -4.510303 0.025720 4.507412
v -3.455728 0.025720 4.507412
v -3.455728 0.025720 4.106870
v -4.510303 0.025720 4.106870
v 5.018204 -0.000004 5.006518
v 5.018204 0.000004 -5.040812
v -5.018230 0.000004 -5.040812
v -5.018232 -0.000004 5.006521
vt 0.000000 0.000000
vt 0.000000 1.000000
vt 1.000000 1.000000
vt 1.000000 0.000000
vt 0.000000 0.000000
vt 0.000000 1.000000
vt 1.000000 1.000000
vt 1.000000 0.000000
vt 0.000000 0.000000
vt 0.000000 1.000000
vt 1.000000 1.000000
vt 1.000000 0.000000
vt 0.000000 0.000000
vt 0.000000 1.000000
vt 1.000000 1.000000
vt 1.000000 0.000000
vt 0.000000 0.000000
vt 0.000000 1.000000
vt 1.000000 1.000000
vt 1.000000 0.000000
vt 0.000000 0.000000
vt 0.000000 1.000000
vt 1.000000 1.000000
vt 1.000000 0.000000
vt 0.000000 0.000000
vt 0.000000 1.000000
vt 1.000000 1.000000
vt 1.000000 0.000000
vt 0.000000 0.000000
vt 0.000000 1.000000
vt 1.000000 1.000000
vt 1.000000 0.000000
vt 0.000000 0.000000
vt 0.000000 1.000000
vt 1.000000 1.000000
vt 1.000000 0.000000
vn 0.0000 1.0000 0.0000
usemtl Material.009
s 1
f 1/1/1 2/2/1 3/3/1 4/4/1
f 5/5/1 6/6/1 7/7/1 8/8/1
f 9/9/1 10/10/1 11/11/1 12/12/1
f 13/13/1 14/14/1 15/15/1 16/16/1
f 17/17/1 18/18/1 19/19/1 20/20/1
f 21/21/1 22/22/1 23/23/1 24/24/1
f 25/25/1 26/26/1 27/27/1 28/28/1
f 29/29/1 30/30/1 31/31/1 32/32/1
usemtl Material.010
f 33/33/1 34/34/1 35/35/1 36/36/1
