# Blender v2.91.0 OBJ File: ''
# www.blender.org
mtllib end.mtl
o Plane.004_Plane.004
v -4.467515 0.025639 4.145439
v -4.467515 0.025639 4.548271
v 4.467457 0.025639 4.548271
v 4.467457 0.025639 4.145438
v 4.559127 0.051278 4.409444
v 4.559127 0.051286 -5.039630
v 4.159839 0.051286 -5.039630
v 4.159839 0.051278 4.409444
v -4.159897 0.025644 -5.039631
v -4.559186 0.025644 -5.039631
v -4.559185 0.025639 4.409444
v -4.159897 0.025639 4.409444
v 5.002509 -0.000004 5.069641
v 5.002510 0.000004 -5.035149
v -5.002537 0.000004 -5.035149
v -5.002537 -0.000004 5.069643
vt 0.000000 0.000000
vt 1.000000 0.000000
vt 1.000000 1.000000
vt 0.000000 1.000000
vt 0.000000 0.000000
vt 0.000000 1.000000
vt 1.000000 1.000000
vt 1.000000 0.000000
vt 0.000000 0.000000
vt 1.000000 0.000000
vt 1.000000 1.000000
vt 0.000000 1.000000
vt 0.000000 0.000000
vt 0.000000 1.000000
vt 1.000000 1.000000
vt 1.000000 0.000000
vn 0.0000 1.0000 0.0000
usemtl Material.007
s 1
f 1/1/1 2/2/1 3/3/1 4/4/1
f 5/5/1 6/6/1 7/7/1 8/8/1
f 9/9/1 10/10/1 11/11/1 12/12/1
usemtl Material.008
f 13/13/1 14/14/1 15/15/1 16/16/1
