# Blender v2.91.0 OBJ File: ''
# www.blender.org
mtllib mid.mtl.mtl
o Plane.005_Plane.007
v 0.199631 0.009999 0.767104
v 0.199631 0.010001 -0.767104
v -0.199658 0.010001 -0.767104
v -0.199658 0.009999 0.767104
v 0.199631 0.016665 3.883015
v 0.199631 0.016666 2.348806
v -0.199658 0.016666 2.348806
v -0.199658 0.016665 3.883015
v 4.559127 0.006663 4.964241
v 4.559127 0.006670 -5.051673
v 4.159839 0.006670 -5.051673
v 4.159839 0.006663 4.964241
v -4.159896 0.009997 5.007957
v -4.159896 0.010003 -5.007957
v -4.559185 0.010003 -5.007957
v -4.559185 0.009997 5.007957
v 0.199631 0.016667 -2.370664
v 0.199631 0.016668 -3.904873
v -0.199658 0.016668 -3.904873
v -0.199658 0.016667 -2.370664
v 5.002509 -0.000003 5.007957
v 5.002509 0.000003 -5.007957
v -5.002537 0.000003 -5.007957
v -5.002537 -0.000003 5.007957
vt 0.000000 0.000000
vt 0.000000 1.000000
vt 1.000000 1.000000
vt 1.000000 0.000000
vt 0.000000 0.000000
vt 0.000000 1.000000
vt 1.000000 1.000000
vt 1.000000 0.000000
vt 0.000000 0.000000
vt 0.000000 1.000000
vt 1.000000 1.000000
vt 1.000000 0.000000
vt 0.000000 0.000000
vt 0.000000 1.000000
vt 1.000000 1.000000
vt 1.000000 0.000000
vt 0.000000 0.000000
vt 0.000000 1.000000
vt 1.000000 1.000000
vt 1.000000 0.000000
vt 0.000000 0.000000
vt 0.000000 1.000000
vt 1.000000 1.000000
vt 1.000000 0.000000
vn 0.0000 1.0000 0.0000
usemtl Material.009
s 1
f 1/1/1 2/2/1 3/3/1 4/4/1
f 5/5/1 6/6/1 7/7/1 8/8/1
f 9/9/1 10/10/1 11/11/1 12/12/1
f 13/13/1 14/14/1 15/15/1 16/16/1
f 17/17/1 18/18/1 19/19/1 20/20/1
usemtl Material.010
f 21/21/1 22/22/1 23/23/1 24/24/1
