# Blender v2.91.0 OBJ File: ''
# www.blender.org
mtllib top.mtl
o Cube.007_Cube.005
v 4.203309 0.000031 -4.901109
v 4.203309 0.000031 -5.382747
v 4.316860 0.000031 -5.502366
v 4.323309 0.000031 -4.901109
v 4.323309 0.566987 -4.901109
v 4.203309 0.566987 -4.901109
v 4.323308 0.566987 -5.501109
v 3.716860 0.566987 -5.502366
v 3.716860 0.566987 -5.382364
v 4.203309 0.566987 -5.382746
v 3.716860 0.000031 -5.502366
v 3.716860 0.000031 -5.382365
v 3.722823 0.000027 5.391360
v 3.722823 0.566984 5.391361
v 4.204459 0.566984 5.391360
v 4.204459 0.000027 5.391360
v 4.324079 0.000027 5.504912
v 3.722823 0.000027 5.511361
v 3.722823 0.566984 5.511362
v 4.322824 0.566984 5.511361
v 4.204078 0.566984 4.904913
v 4.204078 0.000027 4.904912
v 4.324079 0.566984 4.904913
v 4.324079 0.000027 4.904912
v -3.722820 0.000031 -5.391362
v -3.722820 0.566987 -5.391361
v -4.204458 0.566987 -5.391360
v -4.204458 0.000031 -5.391361
v -4.324077 0.000031 -5.504913
v -3.722820 0.000031 -5.511362
v -3.722820 0.566987 -5.511362
v -4.322820 0.566987 -5.511361
v -4.204076 0.566987 -4.904913
v -4.204076 0.000031 -4.904913
v -4.324077 0.566987 -4.904913
v -4.324077 0.000031 -4.904913
v -4.317838 -0.000078 5.503728
v -4.324286 0.566877 5.502472
v -4.324287 0.566878 4.902472
v -4.324287 -0.000078 4.902472
v -4.204286 0.566878 4.902472
v -4.204286 -0.000078 4.902472
v -4.204286 -0.000078 5.384110
v -3.717838 -0.000078 5.383727
v -3.717838 -0.000078 5.503728
v -3.717838 0.566877 5.503728
v -3.717838 0.566877 5.383728
v -4.204286 0.566877 5.384110
v 4.197857 0.416678 -5.395324
v 4.197857 0.000003 -5.395324
v -4.202144 0.000003 -5.395327
v -4.202144 0.416678 -5.395326
v 3.822513 0.416675 5.029337
v 3.822517 0.416678 -5.019983
v 3.822517 0.118548 -5.019983
v 3.822513 0.118544 5.029337
v 4.197853 0.416675 5.404678
v 4.197853 -0.000001 5.404677
v -4.202146 -0.000001 5.404672
v -4.202146 0.416675 5.404673
v -3.826804 0.416678 -5.019985
v -3.826805 0.416675 5.029333
v -3.826804 0.118548 -5.019985
v -3.826805 0.118544 5.029333
vt 0.915229 0.731742
vt 0.915229 0.717799
vt 0.910460 0.717799
vt 0.910460 0.731742
vt 0.951926 0.341652
vt 0.947157 0.341652
vt 0.947157 0.346421
vt 0.951926 0.346421
vt 0.887706 0.717799
vt 0.882937 0.717799
vt 0.882937 0.731742
vt 0.887706 0.731742
vt 0.919634 0.676696
vt 0.919634 0.662753
vt 0.937982 0.332478
vt 0.906054 0.731742
vt 0.906054 0.717799
vt 0.901285 0.717799
vt 0.901285 0.731742
vt 0.896880 0.717799
vt 0.892111 0.717799
vt 0.892111 0.731742
vt 0.896880 0.731742
vt 0.924403 0.662753
vt 0.924403 0.676696
vt 0.942751 0.332478
vt 0.937982 0.337247
vt 0.942751 0.337247
vt 0.896880 0.717799
vt 0.892111 0.717799
vt 0.892111 0.731742
vt 0.896880 0.731742
vt 0.915229 0.731742
vt 0.915229 0.717799
vt 0.910460 0.717799
vt 0.910460 0.731742
vt 0.951926 0.341652
vt 0.947157 0.341652
vt 0.947157 0.346421
vt 0.951926 0.346421
vt 0.906054 0.731742
vt 0.906054 0.717799
vt 0.901285 0.717799
vt 0.901285 0.731742
vt 0.937982 0.332478
vt 0.942751 0.332478
vt 0.919634 0.676696
vt 0.919634 0.662753
vt 0.937982 0.337247
vt 0.942751 0.337247
vt 0.924403 0.662753
vt 0.924403 0.676696
vt 0.887706 0.717799
vt 0.882937 0.717799
vt 0.882937 0.731742
vt 0.887706 0.731742
vt 0.896880 0.717799
vt 0.892111 0.717799
vt 0.892111 0.731742
vt 0.896880 0.731742
vt 0.915229 0.731742
vt 0.915229 0.717799
vt 0.910460 0.717799
vt 0.910460 0.731742
vt 0.951926 0.341652
vt 0.947157 0.341652
vt 0.947157 0.346421
vt 0.951926 0.346421
vt 0.906054 0.731742
vt 0.906054 0.717799
vt 0.901285 0.717799
vt 0.901285 0.731742
vt 0.937982 0.332478
vt 0.942751 0.332478
vt 0.919634 0.676696
vt 0.919634 0.662753
vt 0.924403 0.662753
vt 0.924403 0.676696
vt 0.887706 0.717799
vt 0.882937 0.717799
vt 0.882937 0.731742
vt 0.887706 0.731742
vt 0.937982 0.337247
vt 0.942751 0.337247
vt 0.887706 0.717799
vt 0.882937 0.717799
vt 0.882937 0.731742
vt 0.887706 0.731742
vt 0.951926 0.341652
vt 0.947157 0.341652
vt 0.947157 0.346421
vt 0.951926 0.346421
vt 0.915229 0.731742
vt 0.915229 0.717799
vt 0.910460 0.717799
vt 0.910460 0.731742
vt 0.942751 0.332478
vt 0.942751 0.337247
vt 0.924403 0.662753
vt 0.919634 0.662753
vt 0.919634 0.676696
vt 0.924403 0.676696
vt 0.937982 0.332478
vt 0.937982 0.337247
vt 0.906054 0.731742
vt 0.896880 0.717799
vt 0.892111 0.717799
vt 0.892111 0.731742
vt 0.896880 0.731742
vt 0.906054 0.717799
vt 0.901285 0.717799
vt 0.901285 0.731742
vt 0.291375 0.295781
vt 0.291375 0.295781
vt 0.291375 0.584953
vt 0.291375 0.584953
vt 0.284636 0.308867
vt 0.289402 0.308734
vt 0.289402 0.308734
vt 0.284636 0.308867
vt 0.295781 0.295781
vt 0.295781 0.295781
vt 0.002203 0.589359
vt 0.002203 0.589359
vt 0.283451 0.572153
vt 0.023245 0.576120
vt 0.283451 0.572153
vt 0.023245 0.576120
vn -0.0000 -1.0000 -0.0000
vn 0.0000 -0.0000 1.0000
vn 1.0000 -0.0057 -0.0054
vn 0.0000 1.0000 0.0000
vn -1.0000 -0.0000 0.0000
vn 0.0010 0.0011 -1.0000
vn 0.0008 -0.0000 1.0000
vn -0.0000 0.0000 -1.0000
vn -1.0000 0.0000 0.0008
vn 1.0000 0.0011 0.0010
vn 0.0054 -0.0057 1.0000
vn 1.0000 0.0000 0.0000
vn 1.0000 0.0000 -0.0008
vn -1.0000 0.0011 -0.0010
vn -0.0054 -0.0057 -1.0000
vn -1.0000 -0.0057 0.0054
vn -0.0010 0.0011 1.0000
vn -0.0008 0.0000 -1.0000
vn -0.7071 0.0000 -0.7071
vn -0.7071 0.0000 0.7071
vn 0.7071 0.0000 0.7071
vn 0.7071 0.0000 -0.7071
usemtl dark-brick.001
s 1
f 1/1/1 2/2/1 3/3/1 4/4/1
f 4/5/2 5/6/2 6/7/2 1/8/2
f 3/9/3 7/10/3 5/11/3 4/12/3
f 7/13/4 8/14/4 9/15/4 10/16/4
f 10/16/4 6/17/4 5/18/4 7/19/4
f 1/20/5 6/21/5 10/22/5 2/23/5
f 11/24/6 8/14/6 7/13/6 3/25/6
f 12/26/5 9/15/5 8/27/5 11/28/5
f 3/3/1 2/2/1 12/26/1 11/28/1
f 2/2/7 10/16/7 9/15/7 12/26/7
f 13/29/8 14/30/8 15/31/8 16/32/8
f 13/33/1 16/34/1 17/35/1 18/36/1
f 18/37/5 19/38/5 14/39/5 13/40/5
f 15/41/4 14/42/4 19/43/4 20/44/4
f 16/34/9 15/41/9 21/45/9 22/46/9
f 20/47/4 23/48/4 21/45/4 15/41/4
f 22/46/8 21/45/8 23/49/8 24/50/8
f 17/35/1 16/34/1 22/46/1 24/50/1
f 24/51/10 23/48/10 20/47/10 17/52/10
f 17/53/11 20/54/11 19/55/11 18/56/11
f 25/57/2 26/58/2 27/59/2 28/60/2
f 25/61/1 28/62/1 29/63/1 30/64/1
f 30/65/12 31/66/12 26/67/12 25/68/12
f 27/69/4 26/70/4 31/71/4 32/72/4
f 28/62/13 27/69/13 33/73/13 34/74/13
f 32/75/4 35/76/4 33/73/4 27/69/4
f 36/77/14 35/76/14 32/75/14 29/78/14
f 29/79/15 32/80/15 31/81/15 30/82/15
f 34/74/2 33/73/2 35/83/2 36/84/2
f 29/63/1 28/62/1 34/74/1 36/84/1
f 37/85/16 38/86/16 39/87/16 40/88/16
f 40/89/8 39/90/8 41/91/8 42/92/8
f 42/93/1 43/94/1 37/95/1 40/96/1
f 37/95/1 43/94/1 44/97/1 45/98/1
f 45/99/17 46/100/17 38/101/17 37/102/17
f 44/97/12 47/103/12 46/104/12 45/98/12
f 38/101/4 46/100/4 47/103/4 48/105/4
f 43/94/18 48/105/18 47/103/18 44/97/18
f 42/106/12 41/107/12 48/108/12 43/109/12
f 48/105/4 41/110/4 39/111/4 38/112/4
usemtl light-brick.001
f 49/113/8 50/114/8 51/115/8 52/116/8
f 53/117/19 54/118/20 55/119/20 56/120/19
f 57/121/12 58/122/12 50/114/12 49/113/12
f 50/114/1 58/122/1 59/123/1 51/115/1
f 52/116/5 51/115/5 59/123/5 60/124/5
f 60/124/2 59/123/2 58/122/2 57/121/2
f 61/125/4 54/118/4 49/113/4 52/116/4
f 54/118/4 53/117/4 57/121/4 49/113/4
f 62/126/4 61/125/4 52/116/4 60/124/4
f 53/117/4 62/126/4 60/124/4 57/121/4
f 55/119/4 63/127/4 64/128/4 56/120/4
f 61/125/21 62/126/22 64/128/22 63/127/21
f 54/118/20 61/125/21 63/127/21 55/119/20
f 62/126/22 53/117/19 56/120/19 64/128/22
