# Blender v2.91.0 OBJ File: ''
# www.blender.org
mtllib top.mtl
o Cube.007_Cube.005
v 4.199969 0.000001 -4.911652
v 4.313520 0.000001 -5.512908
v 4.319969 0.000001 -4.911652
v 4.323309 0.566988 -4.901109
v 4.203309 0.566988 -4.901109
v 4.323308 0.566988 -5.501109
v 3.716860 0.566988 -5.502366
v 3.716860 0.566988 -5.382364
v 4.203309 0.566988 -5.382746
v 3.713520 0.000001 -5.512908
v 3.713520 0.000001 -5.392908
v 3.716627 -0.000001 5.403751
v 3.722823 0.566983 5.391361
v 4.204459 0.566983 5.391360
v 4.317883 -0.000001 5.517303
v 3.716627 -0.000001 5.523752
v 3.722823 0.566983 5.511362
v 4.322824 0.566983 5.511361
v 4.204078 0.566983 4.904913
v 4.197883 -0.000001 4.917303
v 4.324079 0.566983 4.904913
v 4.317883 -0.000001 4.917303
v -3.722820 0.000001 -5.391362
v -3.722820 0.566988 -5.391361
v -4.204458 0.566988 -5.391360
v -4.204458 0.000001 -5.391361
v -4.324077 0.000001 -5.504913
v -3.722820 0.000001 -5.511362
v -3.722820 0.566988 -5.511362
v -4.322820 0.566988 -5.511361
v -4.204076 0.566988 -4.904913
v -4.204076 0.000001 -4.904913
v -4.324077 0.566988 -4.904913
v -4.324077 0.000001 -4.904913
v -4.316380 -0.000001 5.525610
v -4.324286 0.566876 5.502472
v -4.324287 0.566877 4.902472
v -4.322828 -0.000001 4.924354
v -4.204286 0.566877 4.902472
v -4.202827 -0.000001 4.924354
v -4.202827 -0.000001 5.405992
v -3.716379 -0.000001 5.405609
v -3.716379 -0.000001 5.525610
v -3.717838 0.566876 5.503728
v -3.717838 0.566876 5.383728
v -4.204286 0.566876 5.384110
v 4.197857 0.416679 -5.395324
v 4.197857 0.000001 -5.395324
v -4.202144 0.416679 -5.395326
v 3.822513 0.416674 5.029337
v 3.822517 0.416679 -5.019983
v 3.822517 0.118549 -5.019983
v 3.822513 0.118543 5.029337
v 4.197853 0.416674 5.404678
v 4.197853 -0.000001 5.404677
v -4.202146 0.416674 5.404673
v -3.826804 0.416679 -5.019985
v -3.826805 0.416674 5.029333
v -3.826804 0.118549 -5.019985
v -3.826805 0.118543 5.029333
vt 0.915229 0.717799
vt 0.910460 0.731742
vt 0.915229 0.731742
vt 0.951926 0.341652
vt 0.947157 0.346421
vt 0.951926 0.346421
vt 0.882937 0.717799
vt 0.887706 0.731742
vt 0.887706 0.717799
vt 0.919634 0.662753
vt 0.906054 0.731742
vt 0.919634 0.676696
vt 0.901285 0.717799
vt 0.901285 0.731742
vt 0.896880 0.717799
vt 0.892111 0.731742
vt 0.896880 0.731742
vt 0.924403 0.676696
vt 0.924403 0.662753
vt 0.942751 0.332478
vt 0.937982 0.337247
vt 0.942751 0.337247
vt 0.910460 0.717799
vt 0.937982 0.332478
vt 0.892111 0.717799
vt 0.896880 0.731742
vt 0.896880 0.717799
vt 0.915229 0.717799
vt 0.910460 0.731742
vt 0.915229 0.731742
vt 0.947157 0.341652
vt 0.951926 0.346421
vt 0.951926 0.341652
vt 0.906054 0.731742
vt 0.901285 0.717799
vt 0.901285 0.731742
vt 0.942751 0.332478
vt 0.919634 0.662753
vt 0.919634 0.676696
vt 0.937982 0.332478
vt 0.942751 0.337247
vt 0.910460 0.717799
vt 0.924403 0.662753
vt 0.924403 0.676696
vt 0.887706 0.717799
vt 0.882937 0.731742
vt 0.887706 0.731742
vt 0.892111 0.717799
vt 0.896880 0.731742
vt 0.896880 0.717799
vt 0.915229 0.717799
vt 0.910460 0.731742
vt 0.915229 0.731742
vt 0.947157 0.341652
vt 0.951926 0.346421
vt 0.951926 0.341652
vt 0.906054 0.731742
vt 0.901285 0.717799
vt 0.901285 0.731742
vt 0.942751 0.332478
vt 0.919634 0.662753
vt 0.919634 0.676696
vt 0.924403 0.676696
vt 0.924403 0.662753
vt 0.882937 0.717799
vt 0.887706 0.731742
vt 0.887706 0.717799
vt 0.937982 0.332478
vt 0.942751 0.337247
vt 0.910460 0.717799
vt 0.882937 0.717799
vt 0.887706 0.731742
vt 0.887706 0.717799
vt 0.951926 0.341652
vt 0.947157 0.346421
vt 0.951926 0.346421
vt 0.915229 0.717799
vt 0.910460 0.731742
vt 0.915229 0.731742
vt 0.942751 0.337247
vt 0.910460 0.717799
vt 0.919634 0.662753
vt 0.924403 0.676696
vt 0.924403 0.662753
vt 0.942751 0.332478
vt 0.937982 0.337247
vt 0.906054 0.731742
vt 0.919634 0.676696
vt 0.937982 0.332478
vt 0.896880 0.717799
vt 0.892111 0.731742
vt 0.896880 0.731742
vt 0.901285 0.717799
vt 0.901285 0.731742
vt 0.947157 0.341652
vt 0.882937 0.731742
vt 0.906054 0.717799
vt 0.892111 0.717799
vt 0.892111 0.731742
vt 0.947157 0.346421
vt 0.906054 0.717799
vt 0.937982 0.337247
vt 0.882937 0.717799
vt 0.892111 0.731742
vt 0.947157 0.346421
vt 0.906054 0.717799
vt 0.882937 0.731742
vt 0.937982 0.337247
vt 0.882937 0.731742
vt 0.947157 0.341652
vt 0.892111 0.717799
vt 0.906054 0.717799
vt 0.291375 0.295781
vt 0.291375 0.584953
vt 0.291375 0.295781
vt 0.289402 0.308734
vt 0.284636 0.308867
vt 0.284636 0.308867
vt 0.295781 0.295781
vt 0.295781 0.295781
vt 0.291375 0.584953
vt 0.002203 0.589359
vt 0.283451 0.572153
vt 0.023245 0.576120
vt 0.283451 0.572153
vt 0.289402 0.308734
vt 0.023245 0.576120
vt 0.002203 0.589359
vn -0.0000 -1.0000 -0.0000
vn 0.0000 -0.0186 0.9998
vn 0.9999 -0.0117 -0.0056
vn 0.9999 -0.0113 -0.0052
vn 0.9998 -0.0170 -0.0107
vn 0.0000 1.0000 -0.0000
vn -1.0000 0.0061 0.0002
vn -1.0000 0.0057 -0.0002
vn -1.0000 0.0077 0.0022
vn 0.0010 0.0196 -0.9998
vn 0.0011 0.0197 -0.9998
vn 0.0000 0.0186 -0.9998
vn -1.0000 0.0059 0.0000
vn 0.0010 -0.0184 0.9998
vn 0.0006 -0.0188 0.9998
vn 0.0029 -0.0168 0.9999
vn -0.0001 -0.0219 -0.9998
vn 0.0001 -0.0217 -0.9998
vn 0.0009 -0.0210 -0.9998
vn -0.9999 0.0109 0.0000
vn -0.9999 0.0110 0.0007
vn -0.9999 0.0111 0.0006
vn -0.9999 0.0114 0.0002
vn 0.0000 -0.0218 -0.9998
vn 1.0000 -0.0098 0.0011
vn 1.0000 -0.0098 0.0010
vn 1.0000 -0.0087 -0.0000
vn 0.0052 0.0159 0.9999
vn 0.0056 0.0163 0.9999
vn 0.0107 0.0217 0.9997
vn 0.0000 -0.0000 1.0000
vn 1.0000 -0.0000 0.0000
vn 1.0000 0.0000 -0.0008
vn -1.0000 0.0011 -0.0010
vn -1.0000 0.0011 -0.0011
vn -1.0000 0.0000 0.0000
vn -0.0056 -0.0059 -1.0000
vn -0.0052 -0.0055 -1.0000
vn -0.0107 -0.0113 -0.9999
vn -1.0000 -0.0082 0.0056
vn -1.0000 -0.0078 0.0052
vn -0.9999 -0.0135 0.0107
vn 0.0000 -0.0386 -0.9993
vn -0.0010 0.0396 0.9992
vn -0.0011 0.0397 0.9992
vn 0.0000 0.0386 0.9993
vn 1.0000 0.0026 0.0000
vn -0.0008 -0.0386 -0.9993
vn 1.0000 -0.0059 -0.0000
vn -1.0000 0.0041 -0.0022
vn 0.0021 0.0208 -0.9998
vn -0.0013 -0.0204 0.9998
vn -0.0010 -0.0226 -0.9997
vn -0.9999 0.0107 0.0010
vn 0.9999 -0.0109 0.0021
vn 0.0000 0.0105 0.9999
vn -1.0000 0.0022 -0.0021
vn -0.0000 0.0000 -1.0000
vn -1.0000 -0.0026 0.0000
vn -0.0021 0.0408 0.9992
vn 0.0002 0.0044 -1.0000
vn -0.0002 -0.0045 -1.0000
vn 0.0002 0.0047 -1.0000
vn -0.7071 0.0000 0.7071
vn -0.7071 0.0000 -0.7071
vn -1.0000 0.0019 -0.0001
vn -1.0000 -0.0019 0.0001
vn -1.0000 0.0020 -0.0001
vn 0.0001 0.0015 1.0000
vn -0.0001 -0.0015 1.0000
vn -0.0001 -0.0016 1.0000
vn 0.7071 0.0000 0.7071
vn 0.7071 0.0000 -0.7071
vn -0.0002 -0.0048 -1.0000
vn -1.0000 -0.0020 0.0001
vn 0.0001 0.0016 1.0000
usemtl dark-brick.003
s 1
f 48/1/1 3/2/1 1/3/1
f 3/4/2 5/5/2 1/6/2
f 6/7/3 3/8/4 2/9/5
f 7/10/6 9/11/6 6/12/6
f 9/11/6 4/13/6 6/14/6
f 1/15/7 9/16/8 48/17/9
f 7/10/10 2/18/11 10/19/12
f 11/20/13 7/21/13 10/22/13
f 48/1/1 10/22/1 2/23/1
f 48/1/14 8/24/15 11/20/16
f 13/25/17 55/26/18 12/27/19
f 55/28/1 16/29/1 12/30/1
f 17/31/20 12/32/20 16/33/20
f 14/34/6 17/35/6 18/36/6
f 14/34/21 20/37/22 55/28/23
f 21/38/6 14/34/6 18/39/6
f 19/40/24 22/41/24 20/37/24
f 55/28/1 22/41/1 15/42/1
f 22/43/25 18/39/26 15/44/27
f 15/45/28 17/46/29 16/47/30
f 24/48/31 26/49/31 23/50/31
f 26/51/1 28/52/1 23/53/1
f 29/54/32 23/55/32 28/56/32
f 25/57/6 29/58/6 30/59/6
f 25/57/33 32/60/33 26/51/33
f 33/61/6 25/57/6 30/62/6
f 33/61/34 27/63/35 34/64/36
f 30/65/37 28/66/38 27/67/39
f 31/68/31 34/69/31 32/60/31
f 26/51/1 34/69/1 27/70/1
f 36/71/40 38/72/41 35/73/42
f 38/74/43 39/75/43 40/76/43
f 41/77/1 38/78/1 40/79/1
f 41/77/1 43/80/1 35/81/1
f 44/82/44 35/83/45 43/84/46
f 42/85/47 44/86/47 43/80/47
f 44/82/6 46/87/6 36/88/6
f 41/77/48 45/89/48 42/85/48
f 40/90/47 46/91/47 41/92/47
f 46/87/6 37/93/6 36/94/6
f 48/1/1 2/23/1 3/2/1
f 3/4/2 4/95/2 5/5/2
f 6/7/3 4/96/49 3/8/4
f 7/10/6 8/24/6 9/11/6
f 9/11/6 5/97/6 4/13/6
f 1/15/7 5/98/50 9/16/8
f 7/10/10 6/12/51 2/18/11
f 11/20/13 8/24/13 7/21/13
f 48/1/1 11/20/1 10/22/1
f 48/1/14 9/11/52 8/24/15
f 13/25/17 14/99/53 55/26/18
f 55/28/1 15/42/1 16/29/1
f 17/31/20 13/100/20 12/32/20
f 14/34/6 13/101/6 17/35/6
f 14/34/21 19/40/54 20/37/22
f 21/38/6 19/40/6 14/34/6
f 19/40/24 21/102/24 22/41/24
f 55/28/1 20/37/1 22/41/1
f 22/43/25 21/38/55 18/39/26
f 15/45/28 18/103/56 17/46/29
f 24/48/31 25/104/31 26/49/31
f 26/51/1 27/70/1 28/52/1
f 29/54/32 24/105/32 23/55/32
f 25/57/6 24/106/6 29/58/6
f 25/57/33 31/68/33 32/60/33
f 33/61/6 31/68/6 25/57/6
f 33/61/34 30/62/57 27/63/35
f 30/65/37 29/107/58 28/66/38
f 31/68/31 33/108/31 34/69/31
f 26/51/1 32/60/1 34/69/1
f 36/71/40 37/109/59 38/72/41
f 38/74/43 37/110/43 39/75/43
f 41/77/1 35/81/1 38/78/1
f 41/77/1 42/85/1 43/80/1
f 44/82/44 36/88/60 35/83/45
f 42/85/47 45/89/47 44/86/47
f 44/82/6 45/89/6 46/87/6
f 41/77/48 46/87/48 45/89/48
f 40/90/47 39/111/47 46/91/47
f 46/87/6 39/112/6 37/93/6
usemtl light-brick.005
f 48/113/61 49/114/62 47/115/63
f 51/116/64 53/117/65 50/118/65
f 55/119/32 47/115/32 54/120/32
f 55/119/1 26/121/1 48/113/1
f 26/121/66 56/122/67 49/114/68
f 56/122/69 55/119/70 54/120/71
f 57/123/6 47/115/6 49/114/6
f 50/118/6 47/115/6 51/116/6
f 57/123/6 56/122/6 58/124/6
f 58/124/6 54/120/6 50/118/6
f 59/125/6 53/117/6 52/126/6
f 57/123/72 60/127/73 59/125/72
f 57/123/72 52/126/64 51/116/64
f 50/118/65 60/127/73 58/124/73
f 48/113/61 26/121/74 49/114/62
f 51/116/64 52/126/64 53/117/65
f 55/119/32 48/113/32 47/115/32
f 55/119/1 41/128/1 26/121/1
f 26/121/66 41/128/75 56/122/67
f 56/122/69 41/128/76 55/119/70
f 57/123/6 51/116/6 47/115/6
f 50/118/6 54/120/6 47/115/6
f 57/123/6 49/114/6 56/122/6
f 58/124/6 56/122/6 54/120/6
f 59/125/6 60/127/6 53/117/6
f 57/123/72 58/124/73 60/127/73
f 57/123/72 59/125/72 52/126/64
f 50/118/65 53/117/65 60/127/73
