# Blender v2.91.0 OBJ File: ''
# www.blender.org
mtllib top.mtl
o Cube_Cube.001
v -7.660922 -0.000001 5.293427
v 11.033558 3.178609 -0.030772
v 11.033558 3.178609 -0.164988
v -7.660922 0.000001 -5.293427
v 7.660922 -0.000001 5.293427
v 11.223852 3.178591 -0.030878
v 15.321843 0.000001 -5.293427
v 11.422090 3.178609 -0.164976
v 11.421844 3.178609 -0.018392
v 11.420209 3.178609 0.091547
v 15.321843 -0.000002 13.233566
v 15.321843 -0.000001 5.293427
v 7.660922 -0.000002 13.233566
v 11.303391 3.178609 0.091547
v 11.223935 3.178609 -0.164988
v 7.660903 0.000001 -5.293427
vt 0.625000 0.000000
vt 0.375000 0.250000
vt 0.375000 0.000000
vt 0.000000 0.000000
vt 0.000000 0.000000
vt 0.000000 0.000000
vt 0.375000 0.754979
vt 0.625000 1.000000
vt 0.375000 1.000000
vt 0.875000 0.500000
vt 0.629979 0.750000
vt 0.629979 0.500000
vt 0.625000 0.750000
vt 0.375000 0.750000
vt 0.375000 0.750000
vt 0.375000 0.750000
vt 0.375000 0.500000
vt 0.375000 0.500000
vt 0.625000 0.500000
vt 0.375000 0.750000
vt 0.625000 0.750000
vt 0.625000 0.750000
vt 0.625000 0.750000
vt 0.370021 0.500000
vt 0.125000 0.750000
vt 0.125000 0.500000
vt 0.625000 0.250000
vt 0.375000 0.495021
vt 0.000000 0.000000
vt 0.625000 0.754979
vt 0.875000 0.750000
vt 0.625000 0.500000
vt 0.370021 0.750000
vt 0.625000 0.495021
vn -0.1676 0.9859 0.0000
vn -0.6653 0.7466 -0.0001
vn -0.6656 0.7463 -0.0006
vn -0.6655 0.7464 -0.0003
vn 0.0000 0.8586 0.5126
vn 0.0000 1.0000 0.0001
vn 0.6316 0.7753 0.0000
vn 0.0000 -1.0000 -0.0000
vn 0.0000 0.8500 -0.5268
vn 0.0000 0.9720 0.2351
vn -0.3984 0.8800 0.2587
vn -0.0001 1.0000 0.0000
vn -0.6659 0.7460 0.0002
vn 0.0004 0.8585 0.5128
vn 0.0001 1.0000 0.0000
vn 0.6318 0.7752 0.0000
vn 0.6326 0.7745 0.0011
vn 0.6241 0.7813 0.0093
vn -0.6575 0.7535 0.0000
vn -0.0001 1.0000 -0.0001
vn 0.0000 1.0000 -0.0000
usemtl wood.006
s off
f 2/1/1 4/2/1 1/3/1
f 16/4/2 6/5/3 15/6/4
f 5/7/5 2/8/5 1/9/5
f 3/10/6 6/11/6 15/12/6
f 10/13/7 11/14/7 12/15/7
f 5/16/8 16/17/8 7/18/8
f 16/17/9 8/19/9 7/18/9
f 13/20/10 10/13/10 14/21/10
f 5/16/11 14/21/11 6/22/11
f 9/23/12 8/19/12 6/22/12
f 16/24/8 1/25/8 4/26/8
f 3/27/9 16/28/9 4/2/9
f 2/1/1 3/27/1 4/2/1
f 16/4/13 5/29/13 6/5/13
f 5/7/14 6/30/14 2/8/14
f 3/10/15 2/31/15 6/11/15
f 12/15/16 7/18/16 9/23/16
f 7/18/17 8/19/17 9/23/17
f 9/23/18 10/13/18 12/15/18
f 7/18/8 12/15/8 5/16/8
f 12/15/8 11/14/8 5/16/8
f 11/14/8 13/20/8 5/16/8
f 16/17/9 15/32/9 8/19/9
f 13/20/10 11/14/10 10/13/10
f 5/16/19 13/20/19 14/21/19
f 8/19/6 15/32/6 6/22/6
f 6/22/20 14/21/20 9/23/20
f 14/21/21 10/13/21 9/23/21
f 16/24/8 5/33/8 1/25/8
f 3/27/9 15/34/9 16/28/9
