# Blender v2.91.0 OBJ File: ''
# www.blender.org
mtllib bottle1.mtl
o Icosphere.001
v -0.016477 0.068566 0.063161
v -0.023257 0.000064 0.076813
v 0.021186 0.060342 0.059442
v -0.049150 0.198627 0.039644
v -0.015762 0.205809 0.059878
v -0.011254 0.400715 0.006957
v -0.053126 0.197885 -0.037532
v -0.060047 0.205809 0.001216
v -0.010901 0.400715 -0.006070
v 0.015779 0.197885 -0.062612
v -0.021880 0.204337 -0.058882
v 0.003656 0.400715 -0.011369
v 0.062342 0.198627 -0.000936
v 0.045988 0.205809 -0.037377
v 0.012300 0.400715 -0.001616
v 0.022217 0.197430 0.062272
v 0.049771 0.205809 0.036026
v 0.003085 0.400715 0.009710
v 0.003085 0.464211 0.009710
v -0.011254 0.464211 0.006957
v -0.010901 0.464211 -0.006070
v 0.012300 0.464211 -0.001616
v 0.003656 0.464211 -0.011369
v 0.003000 0.465358 -0.016475
v 0.014674 0.465358 -0.000438
v 0.068792 0.000064 0.047168
v 0.059350 0.060342 -0.000665
v 0.052429 0.068566 0.038082
v 0.065374 0.000064 -0.050728
v 0.048451 0.068566 -0.039099
v 0.015065 0.060342 -0.059327
v -0.028113 0.000065 -0.075875
v -0.022913 0.068566 -0.061720
v -0.050468 0.060342 -0.035475
v -0.083565 0.000064 0.003481
v -0.063041 0.068566 0.001481
v -0.046684 0.060342 0.037929
v 0.005209 0.465358 0.015545
v 0.014674 0.478516 -0.000438
v 0.005209 0.478515 0.015545
v -0.012315 0.465358 0.009385
v -0.013680 0.465358 -0.010404
v 0.003000 0.478516 -0.016475
v -0.013680 0.478516 -0.010404
v -0.012315 0.478516 0.009385
vt 0.727272 0.157461
vt 0.681818 0.078731
vt 0.636363 0.157461
vt 0.818181 0.314921
vt 0.727272 0.314921
vt 0.772726 0.393651
vt 1.000000 0.314921
vt 0.909091 0.314921
vt 0.954545 0.393651
vt 0.272727 0.314921
vt 0.181818 0.314921
vt 0.227273 0.393651
vt 0.454545 0.314921
vt 0.363636 0.314921
vt 0.409090 0.393651
vt 0.636363 0.314921
vt 0.545454 0.314921
vt 0.590909 0.393651
vt 0.681818 0.393651
vt 0.681818 0.393651
vt 0.772726 0.393651
vt 0.500000 0.393651
vt 0.863635 0.393651
vt 0.863635 0.393651
vt 0.954545 0.393651
vt 0.318182 0.393651
vt 0.409090 0.393651
vt 0.318182 0.393651
vt 0.318182 0.393651
vt 0.409090 0.393651
vt 0.136363 0.393651
vt 0.090909 0.314921
vt 0.136363 0.393651
vt 0.227273 0.393651
vt 0.500000 0.078731
vt 0.454545 0.157461
vt 0.545454 0.157461
vt 0.409090 0.078731
vt 0.363636 0.157461
vt 0.318182 0.078731
vt 0.272727 0.157461
vt 0.227273 0.078731
vt 0.181818 0.157461
vt 0.136363 0.078731
vt 0.090909 0.157461
vt 0.045454 0.078731
vt 0.000000 0.157461
vt 0.590909 0.078731
vt 0.863635 0.078731
vt 0.818181 0.157461
vt 0.909090 0.157461
vt 0.772726 0.078731
vt 0.500000 0.393651
vt 0.590909 0.393651
vt 0.590909 0.393651
vt 0.500000 0.393651
vt 0.500000 0.393651
vt 0.590909 0.393651
vt 0.681818 0.393651
vt 0.772726 0.393651
vt 0.136363 0.393651
vt 0.227273 0.393651
vt 0.863635 0.393651
vt 0.954545 0.393651
vt 0.681818 0.393651
vt 0.409090 0.393651
vt 0.227273 0.393651
vt 0.954545 0.393651
vt 0.772726 0.393651
vt 0.136363 0.393651
vt 0.318182 0.393651
vt 0.863635 0.393651
vn 0.1357 0.1807 0.9741
vn -0.5402 0.2321 0.8089
vn -0.9485 0.2311 -0.2167
vn -0.0546 0.2415 -0.9689
vn 0.9050 0.2229 -0.3622
vn 0.6269 0.2498 0.7379
vn -0.1886 -0.0000 0.9821
vn 0.7487 0.2616 0.6091
vn 0.9337 0.2321 0.2725
vn -0.9996 0.0000 -0.0271
vn 0.7258 0.2435 -0.6433
vn 0.5873 0.2311 -0.7757
vn 0.4075 -0.8549 -0.3210
vn -0.3301 0.2623 -0.9068
vn -0.5810 0.2415 -0.7773
vn 0.7484 0.0000 -0.6633
vn -0.9695 0.2435 -0.0263
vn -0.9261 0.2229 0.3043
vn -0.3421 0.0000 -0.9397
vn -0.1820 0.2616 0.9479
vn -0.0059 0.2498 0.9683
vn 0.9619 0.2457 0.1197
vn 0.9912 0.1278 -0.0346
vn 0.9404 0.2679 -0.2094
vn 0.4537 0.2569 -0.8533
vn 0.2589 0.0788 -0.9627
vn 0.1034 0.1937 -0.9756
vn -0.7063 0.1943 -0.6807
vn -0.8171 0.0796 -0.5710
vn -0.8958 0.2578 -0.3621
vn 0.5069 0.2312 0.8304
vn 0.3062 0.0482 0.9507
vn -0.0000 -1.0000 -0.0000
vn -0.8546 0.2690 0.4442
vn -0.7678 0.1089 0.6314
vn -0.6598 0.2091 0.7217
vn 0.7757 -0.0000 0.6311
vn 0.8604 -0.0000 0.5095
vn -0.0772 -0.9581 0.2759
vn 0.2365 -0.9581 0.1617
vn -0.0761 -0.9749 -0.2092
vn -0.5186 -0.8549 0.0160
vn 0.0000 1.0000 0.0000
vn -0.3420 0.0000 -0.9397
vn -0.3316 -0.0000 0.9434
vn 0.8085 0.0000 -0.5885
vn -0.9976 0.0000 0.0688
vn -0.9397 0.0000 0.3420
vn -0.5817 0.0009 0.8134
vn 0.0179 0.0015 0.9998
vn -0.9685 -0.0009 -0.2492
vn -0.6289 -0.0015 -0.7775
vn -0.0180 -0.0015 -0.9998
vn 0.5817 -0.0009 -0.8134
vn 0.9397 -0.0000 -0.3420
vn 0.9685 0.0009 0.2492
vn 0.6290 0.0015 0.7774
usemtl Material.003
s 1
f 1/1/1 2/2/1 3/3/1
f 4/4/2 5/5/2 6/6/2
f 7/7/3 8/8/3 9/9/3
f 10/10/4 11/11/4 12/12/4
f 13/13/5 14/14/5 15/15/5
f 16/16/6 17/17/6 18/18/6
f 6/6/7 18/19/7 19/20/7 20/21/7
f 18/18/8 17/17/8 15/22/8
f 17/17/9 13/13/9 15/22/9
f 9/9/10 6/23/10 20/24/10 21/25/10
f 15/15/11 14/14/11 12/26/11
f 14/14/12 10/10/12 12/26/12
f 22/27/13 23/28/13 24/29/13 25/30/13
f 12/12/14 11/11/14 9/31/14
f 11/11/15 7/32/15 9/31/15
f 15/15/16 12/26/16 23/28/16 22/27/16
f 9/9/17 8/8/17 6/23/17
f 8/8/18 4/4/18 6/23/18
f 12/12/19 9/31/19 21/33/19 23/34/19
f 6/6/20 5/5/20 18/19/20
f 5/5/21 16/16/21 18/19/21
f 26/35/22 27/36/22 28/37/22
f 26/35/23 29/38/23 27/36/23
f 29/38/24 30/39/24 27/36/24
f 29/40/25 31/41/25 30/39/25
f 29/40/26 32/42/26 31/41/26
f 32/42/27 33/43/27 31/41/27
f 32/44/28 34/45/28 33/43/28
f 32/44/29 35/46/29 34/45/29
f 35/46/30 36/47/30 34/45/30
f 3/3/31 26/48/31 28/37/31
f 3/3/32 2/2/32 26/48/32
f 26/48/33 2/2/33 35/49/33 32/44/33 29/40/33
f 35/49/34 37/50/34 36/51/34
f 35/49/35 2/52/35 37/50/35
f 2/52/36 1/1/36 37/50/36
f 18/18/37 15/22/37 22/53/37 19/54/37
f 38/55/38 25/56/38 39/57/38 40/58/38
f 20/21/39 19/20/39 38/59/39 41/60/39
f 19/54/40 22/53/40 25/56/40 38/55/40
f 23/34/41 21/33/41 42/61/41 24/62/41
f 21/25/42 20/24/42 41/63/42 42/64/42
f 40/65/43 39/66/43 43/67/43 44/68/43 45/69/43
f 24/62/44 42/61/44 44/70/44 43/67/44
f 41/60/45 38/59/45 40/65/45 45/69/45
f 25/30/46 24/29/46 43/71/46 39/66/46
f 42/64/47 41/63/47 45/72/47 44/68/47
f 36/51/48 37/50/48 4/4/48 8/8/48
f 4/4/49 37/50/49 1/1/49 5/5/49
f 1/1/50 3/3/50 16/16/50 5/5/50
f 7/7/51 34/45/51 36/47/51 8/8/51
f 33/43/52 34/45/52 7/32/52 11/11/52
f 10/10/53 31/41/53 33/43/53 11/11/53
usemtl Material.004
f 30/39/54 31/41/54 10/10/54 14/14/54
f 13/13/55 27/36/55 30/39/55 14/14/55
f 28/37/56 27/36/56 13/13/56 17/17/56
f 16/16/57 3/3/57 28/37/57 17/17/57
