# Blender v2.91.0 OBJ File: ''
# www.blender.org
mtllib trash_can_lid.mtl
o Cylinder.005
v 0.270265 0.078396 -0.408808
v 0.406126 0.078396 -0.272947
v 0.479654 0.078396 -0.095435
v 0.479654 0.078396 0.096701
v 0.406126 0.078396 0.274213
v 0.270265 0.078396 0.410074
v 0.092754 0.078396 0.483601
v -0.099383 0.078396 0.483601
v -0.276894 0.078396 0.410074
v -0.412755 0.078396 0.274212
v -0.486283 0.078396 0.096701
v -0.486283 0.078396 -0.095436
v -0.412755 0.078396 -0.272947
v -0.276893 0.078396 -0.408808
v -0.099382 0.078396 -0.482335
v 0.092754 0.078396 -0.482335
v -0.408414 0.098786 0.081212
v -0.346741 0.098786 0.230103
v -0.327373 0.131576 0.217162
v -0.385568 0.131576 0.076668
v 0.110044 0.003095 0.570526
v 0.319504 0.003095 0.483765
v 0.307261 0.087383 0.465442
v 0.100100 0.087383 0.520534
v -0.116672 0.003095 -0.569260
v -0.326132 0.003095 -0.482499
v -0.313889 0.087383 -0.464177
v -0.106728 0.087383 -0.519268
v -0.116673 0.003095 0.570526
v -0.112374 0.087383 0.548913
v 0.319504 0.003095 -0.482499
v 0.110044 0.003095 -0.569260
v 0.105745 0.087383 -0.547647
v 0.291186 0.087383 -0.440117
v -0.326133 0.003095 0.483765
v -0.297815 0.087383 0.441383
v 0.479817 0.003095 -0.322185
v 0.461495 0.087383 -0.309943
v -0.486446 0.003095 0.323451
v -0.468124 0.087383 0.311208
v 0.566578 0.003095 -0.112726
v 0.516586 0.087383 -0.102782
v -0.573207 0.003095 0.113991
v -0.523215 0.087383 0.104047
v 0.566578 0.003095 0.113992
v 0.544965 0.087383 0.109693
v -0.573207 0.003095 -0.112726
v -0.551594 0.087383 -0.108427
v 0.479817 0.003095 0.323451
v 0.437436 0.087383 0.295133
v -0.486446 0.003095 -0.322186
v -0.444064 0.087383 -0.293867
v 0.077265 0.098786 -0.404467
v 0.226156 0.098786 -0.342794
v 0.340112 0.098786 -0.228837
v 0.401785 0.098786 -0.079946
v 0.401785 0.098786 0.081212
v 0.340112 0.098786 0.230104
v 0.226156 0.098786 0.344060
v 0.077265 0.098786 0.405733
v -0.083894 0.098786 0.405733
v -0.232785 0.098786 0.344060
v -0.408414 0.098786 -0.079947
v -0.346741 0.098786 -0.228838
v -0.232784 0.098786 -0.342794
v -0.083893 0.098786 -0.404467
v 0.378939 0.131576 -0.075402
v 0.378939 0.131576 0.076668
v -0.385568 0.131576 -0.075402
v 0.320744 0.131576 0.217162
v -0.327373 0.131576 -0.215896
v 0.213215 0.131576 0.324692
v -0.219843 0.131576 -0.323426
v 0.072720 0.131576 0.382886
v -0.079349 0.131576 -0.381620
v -0.079350 0.131576 0.382886
v 0.072720 0.131576 -0.381620
v 0.213215 0.131576 -0.323426
v -0.219844 0.131576 0.324692
v 0.320744 0.131576 -0.215896
v 0.275081 0.023503 -0.416016
v 0.094445 0.023503 -0.490837
v 0.413334 0.023503 -0.277763
v 0.488156 0.023503 -0.097127
v 0.488156 0.023503 0.098393
v 0.413334 0.023503 0.279029
v 0.275081 0.023503 0.417282
v 0.094445 0.023503 0.492104
v -0.101074 0.023503 0.492104
v -0.281710 0.023503 0.417282
v -0.419963 0.023503 0.279028
v -0.494785 0.023503 0.098392
v -0.494785 0.023503 -0.097127
v -0.419963 0.023503 -0.277763
v -0.281710 0.023503 -0.416016
v -0.101073 0.023503 -0.490838
v 0.118354 0.131576 0.018538
v 0.118354 0.131576 -0.019319
v 0.118354 0.131576 -0.019319
v 0.118354 0.131576 0.018538
v -0.076865 0.131576 0.018538
v -0.076865 0.131576 -0.019319
v -0.076865 0.131576 -0.019319
v -0.076865 0.131576 0.018538
v 0.080497 0.131576 0.018538
v 0.080497 0.131576 0.018538
v -0.114723 0.131576 -0.019319
v -0.114723 0.131576 -0.019319
v -0.114723 0.131576 0.018538
v -0.114723 0.131576 0.018538
v -0.114723 0.167845 -0.019319
v -0.114723 0.167845 0.018538
v -0.105524 0.200602 0.018538
v -0.105524 0.200602 -0.019319
v -0.076696 0.181178 0.018538
v -0.065879 0.190756 0.018538
v -0.066151 0.230523 0.018538
v -0.076865 0.167845 0.018538
v -0.076865 0.167845 -0.019319
v -0.076696 0.181178 -0.019319
v -0.066151 0.230523 -0.019319
v -0.065879 0.190756 -0.019319
v 0.118354 0.167845 -0.019319
v 0.118354 0.167845 0.018538
v 0.109156 0.200602 0.018538
v 0.109156 0.200602 -0.019319
v 0.080327 0.181178 0.018538
v 0.069511 0.190756 0.018538
v 0.069783 0.230523 0.018538
v 0.080497 0.167845 0.018538
v 0.080497 0.167845 -0.019319
v 0.080327 0.181178 -0.019319
v 0.069783 0.230523 -0.019319
v 0.069511 0.190756 -0.019319
v 0.080497 0.131576 -0.019319
vt 0.000000 0.000000
vt 0.000000 0.000000
vt 0.000000 0.000000
vt 0.000000 0.000000
vt 0.000000 0.000000
vt 0.000000 0.000000
vt 0.000000 0.000000
vt 0.000000 0.000000
vt 0.000000 0.000000
vt 0.000000 0.000000
vt 0.000000 0.000000
vt 0.000000 0.000000
vt 0.000000 0.000000
vt 0.000000 0.000000
vt 0.000000 0.000000
vt 0.000000 0.000000
vt 0.000000 0.000000
vt 0.000000 0.000000
vt 0.000000 0.000000
vt 0.000000 0.000000
vt 0.000000 0.000000
vt 0.000000 0.000000
vt 0.000000 0.000000
vt 0.000000 0.000000
vt 0.000000 0.000000
vt 0.000000 0.000000
vt 0.000000 0.000000
vt 0.000000 0.000000
vt 0.000000 0.000000
vt 0.000000 0.000000
vt 0.000000 0.000000
vt 0.000000 0.000000
vt 0.000000 0.000000
vt 0.000000 0.000000
vt 0.000000 0.000000
vt 0.000000 0.000000
vt 0.000000 0.000000
vt 0.000000 0.000000
vt 0.000000 0.000000
vt 0.000000 0.000000
vt 0.000000 0.000000
vt 0.000000 0.000000
vt 0.000000 0.000000
vt 0.000000 0.000000
vt 0.000000 0.000000
vt 0.000000 0.000000
vt 0.000000 0.000000
vt 0.000000 0.000000
vt 0.000000 0.000000
vt 0.000000 0.000000
vt 0.000000 0.000000
vt 0.000000 0.000000
vt 0.000000 0.000000
vt 0.000000 0.000000
vt 0.000000 0.000000
vt 0.000000 0.000000
vt 0.000000 0.000000
vt 0.000000 0.000000
vt 0.000000 0.000000
vt 0.000000 0.000000
vt 0.000000 0.000000
vt 0.000000 0.000000
vt 0.000000 0.000000
vt 0.000000 0.000000
vt 0.000000 0.000000
vt 0.000000 0.000000
vt 0.000000 0.000000
vt 0.000000 0.000000
vt 0.000000 0.000000
vt 0.000000 0.000000
vt 0.000000 0.000000
vt 0.000000 0.000000
vt 0.000000 0.000000
vt 0.000000 0.000000
vt 0.000000 0.000000
vt 0.000000 0.000000
vt 0.000000 0.000000
vt 0.000000 0.000000
vt 0.000000 0.000000
vt 0.000000 0.000000
vt 0.000000 0.000000
vt 0.000000 0.000000
vt 0.000000 0.000000
vt 0.000000 0.000000
vt 0.000000 0.000000
vt 0.000000 0.000000
vt 0.000000 0.000000
vt 0.000000 0.000000
vt 0.000000 0.000000
vt 0.000000 0.000000
vt 0.000000 0.000000
vt 0.000000 0.000000
vt 0.000000 0.000000
vt 0.000000 0.000000
vt 0.000000 0.000000
vt 0.000000 0.000000
vt 0.000000 0.000000
vt 0.000000 0.000000
vt 0.000000 0.000000
vt 0.000000 0.000000
vt 0.385489 0.750000
vt 0.385489 0.500000
vt 0.385489 0.500000
vt 0.385489 0.750000
vt 0.000000 0.000000
vt 0.000000 0.000000
vt 0.385489 0.250000
vt 0.385489 0.250000
vt 0.385489 0.000000
vt 0.385489 0.000000
vt 0.385489 1.000000
vt 0.385489 1.000000
vt 0.625000 0.250000
vt 0.625000 0.000000
vt 0.625000 0.000000
vt 0.625000 0.250000
vt 0.625000 1.000000
vt 0.625000 0.750000
vt 0.625000 0.750000
vt 0.625000 1.000000
vt 0.625000 1.000000
vt 0.625000 0.750000
vt 0.625000 0.500000
vt 0.625000 0.500000
vt 0.625000 0.250000
vt 0.625000 0.500000
vt 0.625000 0.000000
vt 0.625000 0.250000
vt 0.625000 0.250000
vt 0.625000 0.000000
vt 0.625000 0.000000
vt 0.625000 1.000000
vt 0.625000 1.000000
vt 0.625000 0.750000
vt 0.625000 0.750000
vt 0.625000 1.000000
vt 0.625000 0.750000
vt 0.625000 0.500000
vt 0.625000 0.500000
vt 0.625000 0.500000
vt 0.625000 0.250000
vt 0.625000 0.000000
vt 0.000000 0.000000
vn 0.0000 -1.0000 -0.0000
vn -0.7580 0.5717 0.3140
vn 0.2965 0.3920 0.8709
vn -0.2965 0.3919 -0.8709
vn 0.0593 0.3920 0.9181
vn 0.4061 0.3920 -0.8255
vn -0.0593 0.3920 -0.9181
vn -0.4061 0.3920 0.8255
vn 0.6072 0.3919 -0.6911
vn -0.6072 0.3920 0.6911
vn 0.8709 0.3919 -0.2965
vn -0.8709 0.3919 0.2965
vn 0.9181 0.3920 -0.0593
vn -0.9181 0.3919 0.0593
vn 0.8255 0.3919 0.4061
vn -0.8255 0.3920 -0.4061
vn 0.6911 0.3920 0.6072
vn -0.6911 0.3920 -0.6072
vn 0.0399 0.9961 -0.0789
vn 0.0576 0.9961 -0.0671
vn 0.0841 0.9961 -0.0276
vn 0.0882 0.9961 -0.0067
vn 0.0789 0.9961 0.0399
vn 0.0671 0.9961 0.0576
vn 0.0276 0.9961 0.0841
vn 0.0067 0.9961 0.0882
vn -0.0399 0.9961 0.0789
vn -0.0576 0.9961 0.0671
vn -0.0841 0.9961 0.0276
vn -0.0882 0.9961 0.0067
vn -0.0789 0.9961 -0.0399
vn -0.0671 0.9961 -0.0576
vn -0.0276 0.9961 -0.0841
vn -0.0067 0.9961 -0.0882
vn 0.8205 0.5717 0.0000
vn -0.8205 0.5717 0.0000
vn 0.7580 0.5717 0.3140
vn -0.7580 0.5717 -0.3140
vn 0.5802 0.5717 0.5802
vn -0.5802 0.5717 -0.5802
vn 0.3140 0.5717 0.7580
vn -0.3140 0.5717 -0.7580
vn 0.0000 0.5717 0.8205
vn 0.3140 0.5717 -0.7580
vn 0.0000 0.5717 -0.8205
vn -0.3140 0.5717 0.7580
vn 0.5802 0.5717 -0.5802
vn -0.5802 0.5717 0.5802
vn 0.7580 0.5717 -0.3140
vn -0.0964 -0.9678 0.2327
vn -0.1781 -0.9678 0.1781
vn -0.2327 -0.9678 0.0964
vn -0.2518 -0.9678 -0.0000
vn -0.2327 -0.9678 -0.0964
vn -0.1781 -0.9678 -0.1781
vn -0.0964 -0.9678 -0.2327
vn 0.0000 -0.9678 -0.2518
vn 0.0964 -0.9678 -0.2327
vn 0.1781 -0.9678 -0.1781
vn 0.2327 -0.9678 -0.0964
vn 0.2518 -0.9678 -0.0000
vn 0.2327 -0.9678 0.0964
vn 0.1781 -0.9678 0.1781
vn 0.0964 -0.9678 0.2327
vn -0.0000 -0.9678 0.2518
vn -0.3782 -0.1531 0.9130
vn -0.6988 -0.1531 0.6988
vn -0.9130 -0.1531 0.3782
vn -0.9882 -0.1531 -0.0000
vn -0.9130 -0.1531 -0.3782
vn -0.6988 -0.1531 -0.6988
vn -0.3782 -0.1531 -0.9130
vn 0.0000 -0.1531 -0.9882
vn 0.3782 -0.1531 -0.9130
vn 0.6988 -0.1531 -0.6988
vn 0.9130 -0.1531 -0.3782
vn 0.9882 -0.1531 -0.0000
vn 0.9130 -0.1531 0.3782
vn 0.6988 -0.1531 0.6988
vn 0.3782 -0.1531 0.9130
vn -0.0000 -0.1531 0.9882
vn 0.0000 0.0000 0.0000
vn 0.0000 0.0000 1.0000
vn -0.9628 0.2704 0.0000
vn 0.0000 0.0000 -1.0000
vn 1.0000 -0.0063 0.0000
vn 0.9999 -0.0127 0.0000
vn 0.6629 -0.7487 0.0000
vn -0.6051 0.7962 0.0000
vn 0.9628 0.2703 0.0000
vn -1.0000 -0.0064 0.0000
vn -0.9999 -0.0127 0.0000
vn -0.6630 -0.7487 0.0000
vn -0.3545 -0.9351 0.0000
vn 0.6051 0.7962 0.0000
vn 0.3192 0.9477 0.0000
vn 0.0000 1.0000 0.0000
vn -1.0000 0.0000 0.0000
vn 1.0000 0.0000 0.0000
usemtl can.004
s 1
f 1/1/1 2/2/1 3/3/1 4/4/1 5/5/1 6/6/1 7/7/1 8/8/1 9/9/1 10/10/1 11/11/1 12/12/1 13/13/1 14/14/1 15/15/1 16/16/1
f 17/17/2 18/18/2 19/19/2 20/20/2
f 21/21/3 22/22/3 23/23/3 24/24/3
f 25/25/4 26/26/4 27/27/4 28/28/4
f 29/29/5 21/21/5 24/24/5 30/30/5
f 31/31/6 32/32/6 33/33/6 34/34/6
f 32/32/7 25/25/7 28/28/7 33/33/7
f 35/35/8 29/29/8 30/30/8 36/36/8
f 37/37/9 31/31/9 34/34/9 38/38/9
f 39/39/10 35/35/10 36/36/10 40/40/10
f 41/41/11 37/37/11 38/38/11 42/42/11
f 43/43/12 39/39/12 40/40/12 44/44/12
f 45/45/13 41/41/13 42/42/13 46/46/13
f 47/47/14 43/43/14 44/44/14 48/48/14
f 49/49/15 45/45/15 46/46/15 50/50/15
f 51/51/16 47/47/16 48/48/16 52/52/16
f 22/22/17 49/49/17 50/50/17 23/23/17
f 26/26/18 51/51/18 52/52/18 27/27/18
f 53/53/19 54/54/19 34/34/19 33/33/19
f 54/54/20 55/55/20 38/38/20 34/34/20
f 55/55/21 56/56/21 42/42/21 38/38/21
f 56/56/22 57/57/22 46/46/22 42/42/22
f 57/57/23 58/58/23 50/50/23 46/46/23
f 58/58/24 59/59/24 23/23/24 50/50/24
f 59/59/25 60/60/25 24/24/25 23/23/25
f 60/60/26 61/61/26 30/30/26 24/24/26
f 61/61/27 62/62/27 36/36/27 30/30/27
f 62/62/28 18/18/28 40/40/28 36/36/28
f 18/18/29 17/17/29 44/44/29 40/40/29
f 17/17/30 63/63/30 48/48/30 44/44/30
f 63/63/31 64/64/31 52/52/31 48/48/31
f 64/64/32 65/65/32 27/27/32 52/52/32
f 65/65/33 66/66/33 28/28/33 27/27/33
f 66/66/34 53/53/34 33/33/34 28/28/34
f 57/57/35 56/56/35 67/67/35 68/68/35
f 63/63/36 17/17/36 20/20/36 69/69/36
f 58/58/37 57/57/37 68/68/37 70/70/37
f 64/64/38 63/63/38 69/69/38 71/71/38
f 59/59/39 58/58/39 70/70/39 72/72/39
f 65/65/40 64/64/40 71/71/40 73/73/40
f 60/60/41 59/59/41 72/72/41 74/74/41
f 66/66/42 65/65/42 73/73/42 75/75/42
f 61/61/43 60/60/43 74/74/43 76/76/43
f 54/54/44 53/53/44 77/77/44 78/78/44
f 53/53/45 66/66/45 75/75/45 77/77/45
f 62/62/46 61/61/46 76/76/46 79/79/46
f 55/55/47 54/54/47 78/78/47 80/80/47
f 18/18/48 62/62/48 79/79/48 19/19/48
f 56/56/49 55/55/49 80/80/49 67/67/49
f 81/81/50 82/82/50 32/32/50 31/31/50
f 83/83/51 81/81/51 31/31/51 37/37/51
f 84/84/52 83/83/52 37/37/52 41/41/52
f 85/85/53 84/84/53 41/41/53 45/45/53
f 86/86/54 85/85/54 45/45/54 49/49/54
f 87/87/55 86/86/55 49/49/55 22/22/55
f 88/88/56 87/87/56 22/22/56 21/21/56
f 89/89/57 88/88/57 21/21/57 29/29/57
f 90/90/58 89/89/58 29/29/58 35/35/58
f 91/91/59 90/90/59 35/35/59 39/39/59
f 92/92/60 91/91/60 39/39/60 43/43/60
f 93/93/61 92/92/61 43/43/61 47/47/61
f 94/94/62 93/93/62 47/47/62 51/51/62
f 95/95/63 94/94/63 51/51/63 26/26/63
f 96/96/64 95/95/64 26/26/64 25/25/64
f 82/82/65 96/96/65 25/25/65 32/32/65
f 1/1/66 16/16/66 82/82/66 81/81/66
f 2/2/67 1/1/67 81/81/67 83/83/67
f 3/3/68 2/2/68 83/83/68 84/84/68
f 4/4/69 3/3/69 84/84/69 85/85/69
f 5/5/70 4/4/70 85/85/70 86/86/70
f 6/6/71 5/5/71 86/86/71 87/87/71
f 7/7/72 6/6/72 87/87/72 88/88/72
f 8/8/73 7/7/73 88/88/73 89/89/73
f 9/9/74 8/8/74 89/89/74 90/90/74
f 10/10/75 9/9/75 90/90/75 91/91/75
f 11/11/76 10/10/76 91/91/76 92/92/76
f 12/12/77 11/11/77 92/92/77 93/93/77
f 13/13/78 12/12/78 93/93/78 94/94/78
f 14/14/79 13/13/79 94/94/79 95/95/79
f 15/15/80 14/14/80 95/95/80 96/96/80
f 16/16/81 15/15/81 96/96/81 82/82/81
f 97/97/82 100/98/82 99/99/82 98/100/82
f 101/101/82 102/102/82 103/103/82 104/104/82
f 105/105/83 106/106/83 100/98/83 97/97/83
f 102/102/83 107/107/83 108/108/83 103/103/83
f 107/107/82 109/109/82 110/110/82 108/108/82
f 109/111/83 101/101/83 104/104/83 110/112/83
f 111/113/84 112/114/84 113/115/84 114/116/84
f 113/117/83 115/118/83 116/119/83 117/120/83
f 112/121/83 118/122/83 115/118/83 113/117/83
f 119/123/85 111/113/85 114/116/85 120/124/85
f 118/122/86 119/123/86 120/124/87 115/118/87
f 120/124/85 114/116/85 121/125/85 122/126/85
f 115/118/88 120/124/88 122/126/88 116/119/88
f 114/116/89 113/115/89 117/127/89 121/125/89
f 123/128/90 126/129/90 125/130/90 124/131/90
f 125/132/83 129/133/83 128/134/83 127/135/83
f 124/136/83 125/132/83 127/135/83 130/137/83
f 131/138/85 132/139/85 126/129/85 123/128/85
f 130/137/91 127/135/92 132/139/92 131/138/91
f 132/139/85 134/140/85 133/141/85 126/129/85
f 127/135/93 128/134/94 134/140/94 132/139/93
f 126/129/95 133/141/96 129/142/96 125/130/95
f 122/126/85 121/125/85 133/141/85 134/140/85
f 121/125/97 117/127/97 129/142/96 133/141/96
f 117/127/83 116/119/83 128/134/83 129/142/83
f 116/119/1 122/126/1 134/140/94 128/134/94
f 130/137/83 105/105/83 97/97/83 124/136/83
f 130/137/91 131/138/91 135/143/98 106/106/98
f 135/143/85 131/138/85 123/128/85 99/99/85
f 98/100/99 123/128/99 124/136/99 97/97/99
f 108/108/98 110/110/98 112/114/98 111/113/98
f 110/110/83 104/104/83 118/122/83 112/114/83
f 104/104/99 103/103/99 119/123/86 118/122/86
f 103/103/85 108/108/85 111/113/85 119/123/85
f 78/78/97 77/77/97 75/75/97 73/73/97 71/71/97 69/69/97 20/20/97 19/19/97 79/79/97 76/76/97 74/74/97 72/72/97 70/70/97 68/68/97 67/67/97 80/80/97
