# Blender v2.91.0 OBJ File: ''
# www.blender.org
mtllib trash_can.mtl
o Cylinder
v 0.490393 1.000000 -0.097545
v 0.500000 0.000000 0.000000
v 0.353553 0.000000 -0.353553
v 0.415735 1.000000 -0.277785
v 0.277785 1.000000 -0.415735
v 0.353553 -0.000000 0.353553
v 0.490393 1.000000 0.097545
v 0.415735 1.000000 0.277785
v 0.000000 -0.000000 0.500000
v 0.277785 1.000000 0.415735
v 0.097545 1.000000 0.490393
v -0.353554 -0.000000 0.353553
v -0.097545 1.000000 0.490393
v -0.277785 1.000000 0.415735
v -0.500000 0.000000 0.000000
v -0.415735 1.000000 0.277785
v -0.490393 1.000000 0.097545
v -0.353553 0.000000 -0.353554
v -0.490393 1.000000 -0.097546
v -0.415734 1.000000 -0.277786
v 0.000000 0.000000 -0.500000
v -0.097544 1.000000 -0.490393
v -0.277785 1.000000 -0.415735
v 0.097545 1.000000 -0.490393
v 0.441355 0.999573 -0.087791
v 0.374164 0.999573 -0.250009
v 0.327271 0.033441 -0.327271
v 0.462830 0.033441 0.000000
v 0.250009 0.999573 -0.374164
v 0.441356 0.999573 0.087791
v 0.327271 0.033441 0.327271
v 0.374164 0.999573 0.250009
v 0.250009 0.999573 0.374164
v 0.000000 0.033441 0.462830
v 0.087791 0.999573 0.441356
v -0.087792 0.999573 0.441355
v -0.327271 0.033441 0.327271
v -0.250009 0.999573 0.374164
v -0.374164 0.999573 0.250008
v -0.462830 0.033441 0.000000
v -0.441356 0.999573 0.087791
v -0.441355 0.999573 -0.087792
v -0.327270 0.033441 -0.327271
v -0.374164 0.999573 -0.250009
v 0.000000 0.033441 -0.462830
v -0.250008 0.999573 -0.374164
v -0.087791 0.999573 -0.441356
v 0.087791 0.999573 -0.441355
vt 0.781250 1.000000
vt 0.990000 0.250000
vt 0.875000 0.500000
vt 0.843750 1.000000
vt 0.906250 1.000000
vt 0.919706 0.080294
vt 0.750000 0.500000
vt 0.718750 1.000000
vt 0.656250 1.000000
vt 0.750000 0.010000
vt 0.625000 0.500000
vt 0.593750 1.000000
vt 0.531250 1.000000
vt 0.580294 0.080294
vt 0.500000 0.500000
vt 0.468750 1.000000
vt 0.406250 1.000000
vt 0.510000 0.250000
vt 0.375000 0.500000
vt 0.343750 1.000000
vt 0.281250 1.000000
vt 0.580295 0.419706
vt 0.250000 0.500000
vt 0.218750 1.000000
vt 0.156250 1.000000
vt 0.750000 0.490000
vt 0.919706 0.419706
vt 0.031250 1.000000
vt 0.125000 0.500000
vt 0.093750 1.000000
vt 1.000000 0.500000
vt 0.968750 1.000000
vt 0.000000 0.500000
vt 0.781250 1.000000
vt 0.843750 1.000000
vt 0.919706 0.419706
vt 0.990000 0.250000
vt 0.906250 1.000000
vt 0.875000 0.500000
vt 0.718750 1.000000
vt 0.919706 0.080294
vt 0.656250 1.000000
vt 0.750000 0.500000
vt 0.593750 1.000000
vt 0.750000 0.010000
vt 0.531250 1.000000
vt 0.625000 0.500000
vt 0.468750 1.000000
vt 0.580294 0.080294
vt 0.406250 1.000000
vt 0.500000 0.500000
vt 0.343750 1.000000
vt 0.510000 0.250000
vt 0.281250 1.000000
vt 0.375000 0.500000
vt 0.218750 1.000000
vt 0.580295 0.419706
vt 0.156250 1.000000
vt 0.750000 0.490000
vt 0.250000 0.500000
vt 0.093750 1.000000
vt 0.031250 1.000000
vt 0.125000 0.500000
vt 0.968750 1.000000
vt 0.000000 0.500000
vn 0.9235 -0.0284 -0.3825
vn 0.7071 0.0096 -0.7071
vn 0.9235 -0.0284 0.3825
vn 1.0000 0.0096 0.0000
vn 0.3825 -0.0284 0.9235
vn 0.7071 0.0096 0.7071
vn -0.3825 -0.0284 0.9235
vn 0.0000 0.0096 1.0000
vn -0.9235 -0.0284 0.3825
vn -0.7071 0.0096 0.7071
vn -0.9235 -0.0284 -0.3825
vn -0.0000 -1.0000 -0.0000
vn -1.0000 0.0096 0.0000
vn -0.3825 -0.0284 -0.9235
vn -0.7071 0.0096 -0.7071
vn 0.3825 -0.0284 -0.9235
vn 0.0000 0.0096 -1.0000
vn -0.9238 0.0142 0.3826
vn -0.7069 -0.0222 0.7069
vn -0.9238 0.0142 -0.3826
vn -0.9998 -0.0222 0.0000
vn -0.3826 0.0142 -0.9238
vn -0.7069 -0.0222 -0.7069
vn 0.3826 0.0142 -0.9238
vn 0.0000 -0.0222 -0.9998
vn 0.9238 0.0142 -0.3826
vn 0.7069 -0.0222 -0.7069
vn 0.9238 0.0142 0.3826
vn 0.0000 1.0000 0.0000
vn 0.9998 -0.0222 0.0000
vn 0.3826 0.0142 0.9238
vn 0.7069 -0.0222 0.7069
vn -0.3826 0.0142 0.9238
vn -0.0000 -0.0222 0.9998
vn -0.0047 1.0000 0.0071
vn -0.0017 1.0000 0.0084
vn -0.0071 1.0000 0.0047
vn -0.0084 1.0000 0.0017
vn -0.0084 1.0000 -0.0017
vn -0.0071 1.0000 -0.0047
vn -0.0047 1.0000 -0.0071
vn -0.0017 1.0000 -0.0084
vn 0.0017 1.0000 -0.0084
vn 0.0047 1.0000 -0.0071
vn 0.0071 1.0000 -0.0047
vn 0.0084 1.0000 -0.0017
vn 0.0084 1.0000 0.0017
vn 0.0071 1.0000 0.0047
vn 0.0047 1.0000 0.0071
vn 0.0017 1.0000 0.0084
usemtl can.002
s 1
f 1/1/1 2/2/1 3/3/1 4/4/1
f 5/5/2 4/4/2 3/3/2
f 6/6/3 2/7/3 7/8/3 8/9/3
f 1/1/4 7/8/4 2/7/4
f 9/10/5 6/11/5 10/12/5 11/13/5
f 8/9/6 10/12/6 6/11/6
f 12/14/7 9/15/7 13/16/7 14/17/7
f 11/13/8 13/16/8 9/15/8
f 15/18/9 12/19/9 16/20/9 17/21/9
f 14/17/10 16/20/10 12/19/10
f 18/22/11 15/23/11 19/24/11 20/25/11
f 21/26/12 3/27/12 2/2/12 6/6/12 9/10/12 12/14/12 15/18/12 18/22/12
f 17/21/13 19/24/13 15/23/13
f 22/28/14 21/26/14 18/29/14 23/30/14
f 20/25/15 23/30/15 18/29/15
f 5/5/16 3/27/16 21/31/16 24/32/16
f 22/28/17 24/32/17 21/33/17
f 25/34/18 26/35/18 27/36/18 28/37/18
f 29/38/19 27/39/19 26/35/19
f 30/40/20 28/37/20 31/41/20 32/42/20
f 25/34/21 28/43/21 30/40/21
f 33/44/22 31/41/22 34/45/22 35/46/22
f 32/42/23 31/47/23 33/44/23
f 36/48/24 34/45/24 37/49/24 38/50/24
f 35/46/25 34/51/25 36/48/25
f 39/52/26 37/49/26 40/53/26 41/54/26
f 38/50/27 37/55/27 39/52/27
f 42/56/28 40/53/28 43/57/28 44/58/28
f 27/36/29 45/59/29 43/57/29 40/53/29 37/49/29 34/45/29 31/41/29 28/37/29
f 41/54/30 40/60/30 42/56/30
f 46/61/31 43/57/31 45/59/31 47/62/31
f 44/58/32 43/63/32 46/61/32
f 29/38/33 48/64/33 45/59/33 27/36/33
f 47/62/34 45/65/34 48/64/34
f 5/5/35 24/32/36 48/64/36 29/38/35
f 4/4/37 5/5/35 29/38/35 26/35/37
f 1/1/38 4/4/37 26/35/37 25/34/38
f 7/8/39 1/1/38 25/34/38 30/40/39
f 8/9/40 7/8/39 30/40/39 32/42/40
f 10/12/41 8/9/40 32/42/40 33/44/41
f 11/13/42 10/12/41 33/44/41 35/46/42
f 13/16/43 11/13/42 35/46/42 36/48/43
f 14/17/44 13/16/43 36/48/43 38/50/44
f 16/20/45 14/17/44 38/50/44 39/52/45
f 17/21/46 16/20/45 39/52/45 41/54/46
f 19/24/47 17/21/46 41/54/46 42/56/47
f 20/25/48 19/24/47 42/56/47 44/58/48
f 23/30/49 20/25/48 44/58/48 46/61/49
f 22/28/50 23/30/49 46/61/49 47/62/50
f 24/32/36 22/28/50 47/62/50 48/64/36
o Cylinder.001
v 0.270265 1.054877 -0.408808
v 0.406126 1.054877 -0.272947
v 0.479654 1.054877 -0.095435
v 0.479654 1.054877 0.096701
v 0.406126 1.054877 0.274213
v 0.270265 1.054877 0.410074
v 0.092754 1.054877 0.483601
v -0.099383 1.054877 0.483601
v -0.276894 1.054877 0.410074
v -0.412755 1.054877 0.274212
v -0.486283 1.054877 0.096701
v -0.486283 1.054877 -0.095436
v -0.412755 1.054877 -0.272947
v -0.276893 1.054877 -0.408808
v -0.099382 1.054877 -0.482335
v 0.092754 1.054877 -0.482335
v -0.408414 1.075267 0.081212
v -0.346741 1.075267 0.230103
v -0.327373 1.108057 0.217162
v -0.385568 1.108057 0.076668
v 0.110044 0.979576 0.570526
v 0.319504 0.979576 0.483765
v 0.307261 1.063864 0.465442
v 0.100100 1.063864 0.520534
v -0.116672 0.979576 -0.569260
v -0.326132 0.979576 -0.482499
v -0.313889 1.063864 -0.464177
v -0.106728 1.063864 -0.519268
v -0.116673 0.979576 0.570526
v -0.112374 1.063864 0.548913
v 0.319504 0.979576 -0.482499
v 0.110044 0.979576 -0.569260
v 0.105745 1.063864 -0.547647
v 0.291186 1.063864 -0.440117
v -0.326133 0.979576 0.483765
v -0.297815 1.063864 0.441383
v 0.479817 0.979576 -0.322185
v 0.461495 1.063864 -0.309943
v -0.486446 0.979576 0.323451
v -0.468124 1.063864 0.311208
v 0.566578 0.979576 -0.112726
v 0.516586 1.063864 -0.102782
v -0.573207 0.979576 0.113991
v -0.523215 1.063864 0.104047
v 0.566578 0.979576 0.113992
v 0.544965 1.063864 0.109693
v -0.573207 0.979576 -0.112726
v -0.551594 1.063864 -0.108427
v 0.479817 0.979576 0.323451
v 0.437436 1.063864 0.295133
v -0.486446 0.979576 -0.322186
v -0.444064 1.063864 -0.293867
v 0.077265 1.075267 -0.404467
v 0.226156 1.075267 -0.342794
v 0.340112 1.075267 -0.228837
v 0.401785 1.075267 -0.079946
v 0.401785 1.075267 0.081212
v 0.340112 1.075267 0.230104
v 0.226156 1.075267 0.344060
v 0.077265 1.075267 0.405733
v -0.083894 1.075267 0.405733
v -0.232785 1.075267 0.344060
v -0.408414 1.075267 -0.079947
v -0.346741 1.075267 -0.228838
v -0.232784 1.075267 -0.342794
v -0.083893 1.075267 -0.404467
v 0.378939 1.108057 -0.075402
v 0.378939 1.108057 0.076668
v -0.385568 1.108057 -0.075402
v 0.320744 1.108057 0.217162
v -0.327373 1.108057 -0.215896
v 0.213215 1.108057 0.324692
v -0.219843 1.108057 -0.323426
v 0.072720 1.108057 0.382886
v -0.079349 1.108057 -0.381620
v -0.079350 1.108057 0.382886
v 0.072720 1.108057 -0.381620
v 0.213215 1.108057 -0.323426
v -0.219844 1.108057 0.324692
v 0.320744 1.108057 -0.215896
v 0.275081 0.999984 -0.416016
v 0.094445 0.999984 -0.490837
v 0.413334 0.999984 -0.277763
v 0.488156 0.999984 -0.097127
v 0.488156 0.999984 0.098393
v 0.413334 0.999984 0.279029
v 0.275081 0.999984 0.417282
v 0.094445 0.999984 0.492104
v -0.101074 0.999984 0.492104
v -0.281710 0.999984 0.417282
v -0.419963 0.999984 0.279028
v -0.494785 0.999984 0.098392
v -0.494785 0.999984 -0.097127
v -0.419963 0.999984 -0.277763
v -0.281710 0.999984 -0.416016
v -0.101073 0.999984 -0.490838
v 0.118354 1.108057 0.018538
v 0.118354 1.108057 -0.019319
v 0.118354 1.108057 -0.019319
v 0.118354 1.108057 0.018538
v -0.076865 1.108057 0.018538
v -0.076865 1.108057 -0.019319
v -0.076865 1.108057 -0.019319
v -0.076865 1.108057 0.018538
v 0.080497 1.108057 0.018538
v 0.080497 1.108057 0.018538
v -0.114723 1.108057 -0.019319
v -0.114723 1.108057 -0.019319
v -0.114723 1.108057 0.018538
v -0.114723 1.108057 0.018538
v -0.114723 1.144326 -0.019319
v -0.114723 1.144326 0.018538
v -0.105524 1.177083 0.018538
v -0.105524 1.177083 -0.019319
v -0.076696 1.157659 0.018538
v -0.065879 1.167237 0.018538
v -0.066151 1.207004 0.018538
v -0.076865 1.144326 0.018538
v -0.076865 1.144326 -0.019319
v -0.076696 1.157659 -0.019319
v -0.066151 1.207004 -0.019319
v -0.065879 1.167237 -0.019319
v 0.118354 1.144326 -0.019319
v 0.118354 1.144326 0.018538
v 0.109156 1.177083 0.018538
v 0.109156 1.177083 -0.019319
v 0.080327 1.157659 0.018538
v 0.069511 1.167237 0.018538
v 0.069783 1.207004 0.018538
v 0.080497 1.144326 0.018538
v 0.080497 1.144326 -0.019319
v 0.080327 1.157659 -0.019319
v 0.069783 1.207004 -0.019319
v 0.069511 1.167237 -0.019319
v 0.080497 1.108057 -0.019319
vt 0.000000 0.000000
vt 0.000000 0.000000
vt 0.000000 0.000000
vt 0.000000 0.000000
vt 0.000000 0.000000
vt 0.000000 0.000000
vt 0.000000 0.000000
vt 0.000000 0.000000
vt 0.000000 0.000000
vt 0.000000 0.000000
vt 0.000000 0.000000
vt 0.000000 0.000000
vt 0.000000 0.000000
vt 0.000000 0.000000
vt 0.000000 0.000000
vt 0.000000 0.000000
vt 0.000000 0.000000
vt 0.000000 0.000000
vt 0.000000 0.000000
vt 0.000000 0.000000
vt 0.000000 0.000000
vt 0.000000 0.000000
vt 0.000000 0.000000
vt 0.000000 0.000000
vt 0.000000 0.000000
vt 0.000000 0.000000
vt 0.000000 0.000000
vt 0.000000 0.000000
vt 0.000000 0.000000
vt 0.000000 0.000000
vt 0.000000 0.000000
vt 0.000000 0.000000
vt 0.000000 0.000000
vt 0.000000 0.000000
vt 0.000000 0.000000
vt 0.000000 0.000000
vt 0.000000 0.000000
vt 0.000000 0.000000
vt 0.000000 0.000000
vt 0.000000 0.000000
vt 0.000000 0.000000
vt 0.000000 0.000000
vt 0.000000 0.000000
vt 0.000000 0.000000
vt 0.000000 0.000000
vt 0.000000 0.000000
vt 0.000000 0.000000
vt 0.000000 0.000000
vt 0.000000 0.000000
vt 0.000000 0.000000
vt 0.000000 0.000000
vt 0.000000 0.000000
vt 0.000000 0.000000
vt 0.000000 0.000000
vt 0.000000 0.000000
vt 0.000000 0.000000
vt 0.000000 0.000000
vt 0.000000 0.000000
vt 0.000000 0.000000
vt 0.000000 0.000000
vt 0.000000 0.000000
vt 0.000000 0.000000
vt 0.000000 0.000000
vt 0.000000 0.000000
vt 0.000000 0.000000
vt 0.000000 0.000000
vt 0.000000 0.000000
vt 0.000000 0.000000
vt 0.000000 0.000000
vt 0.000000 0.000000
vt 0.000000 0.000000
vt 0.000000 0.000000
vt 0.000000 0.000000
vt 0.000000 0.000000
vt 0.000000 0.000000
vt 0.000000 0.000000
vt 0.000000 0.000000
vt 0.000000 0.000000
vt 0.000000 0.000000
vt 0.000000 0.000000
vt 0.000000 0.000000
vt 0.000000 0.000000
vt 0.000000 0.000000
vt 0.000000 0.000000
vt 0.000000 0.000000
vt 0.000000 0.000000
vt 0.000000 0.000000
vt 0.000000 0.000000
vt 0.000000 0.000000
vt 0.000000 0.000000
vt 0.000000 0.000000
vt 0.000000 0.000000
vt 0.000000 0.000000
vt 0.000000 0.000000
vt 0.000000 0.000000
vt 0.000000 0.000000
vt 0.000000 0.000000
vt 0.000000 0.000000
vt 0.000000 0.000000
vt 0.000000 0.000000
vt 0.385489 0.750000
vt 0.385489 0.500000
vt 0.385489 0.500000
vt 0.385489 0.750000
vt 0.000000 0.000000
vt 0.000000 0.000000
vt 0.385489 0.250000
vt 0.385489 0.250000
vt 0.385489 0.000000
vt 0.385489 0.000000
vt 0.385489 1.000000
vt 0.385489 1.000000
vt 0.625000 0.250000
vt 0.625000 0.000000
vt 0.625000 0.000000
vt 0.625000 0.250000
vt 0.625000 1.000000
vt 0.625000 0.750000
vt 0.625000 0.750000
vt 0.625000 1.000000
vt 0.625000 1.000000
vt 0.625000 0.750000
vt 0.625000 0.500000
vt 0.625000 0.500000
vt 0.625000 0.250000
vt 0.625000 0.500000
vt 0.625000 0.000000
vt 0.625000 0.250000
vt 0.625000 0.250000
vt 0.625000 0.000000
vt 0.625000 0.000000
vt 0.625000 1.000000
vt 0.625000 1.000000
vt 0.625000 0.750000
vt 0.625000 0.750000
vt 0.625000 1.000000
vt 0.625000 0.750000
vt 0.625000 0.500000
vt 0.625000 0.500000
vt 0.625000 0.500000
vt 0.625000 0.250000
vt 0.625000 0.000000
vt 0.000000 0.000000
vn 0.0000 -1.0000 -0.0000
vn -0.7580 0.5717 0.3140
vn 0.2965 0.3920 0.8709
vn -0.2965 0.3919 -0.8709
vn 0.0593 0.3920 0.9181
vn 0.4061 0.3920 -0.8255
vn -0.0593 0.3920 -0.9181
vn -0.4061 0.3920 0.8255
vn 0.6072 0.3919 -0.6911
vn -0.6072 0.3920 0.6911
vn 0.8709 0.3919 -0.2965
vn -0.8709 0.3919 0.2965
vn 0.9181 0.3920 -0.0593
vn -0.9181 0.3919 0.0593
vn 0.8255 0.3919 0.4061
vn -0.8255 0.3920 -0.4061
vn 0.6911 0.3920 0.6072
vn -0.6911 0.3920 -0.6072
vn 0.0399 0.9961 -0.0789
vn 0.0576 0.9961 -0.0671
vn 0.0841 0.9961 -0.0276
vn 0.0882 0.9961 -0.0067
vn 0.0789 0.9961 0.0399
vn 0.0671 0.9961 0.0576
vn 0.0276 0.9961 0.0841
vn 0.0067 0.9961 0.0882
vn -0.0399 0.9961 0.0789
vn -0.0576 0.9961 0.0671
vn -0.0841 0.9961 0.0276
vn -0.0882 0.9961 0.0067
vn -0.0789 0.9961 -0.0399
vn -0.0671 0.9961 -0.0576
vn -0.0276 0.9961 -0.0841
vn -0.0067 0.9961 -0.0882
vn 0.8205 0.5717 0.0000
vn -0.8205 0.5717 0.0000
vn 0.7580 0.5717 0.3140
vn -0.7580 0.5717 -0.3140
vn 0.5802 0.5717 0.5802
vn -0.5802 0.5717 -0.5802
vn 0.3140 0.5717 0.7580
vn -0.3140 0.5717 -0.7580
vn 0.0000 0.5717 0.8205
vn 0.3140 0.5717 -0.7580
vn 0.0000 0.5717 -0.8205
vn -0.3140 0.5717 0.7580
vn 0.5802 0.5717 -0.5802
vn -0.5802 0.5717 0.5802
vn 0.7580 0.5717 -0.3140
vn -0.0964 -0.9678 0.2327
vn -0.1781 -0.9678 0.1781
vn -0.2327 -0.9678 0.0964
vn -0.2518 -0.9678 0.0000
vn -0.2327 -0.9678 -0.0964
vn -0.1781 -0.9678 -0.1781
vn -0.0964 -0.9678 -0.2327
vn 0.0000 -0.9678 -0.2518
vn 0.0964 -0.9678 -0.2327
vn 0.1781 -0.9678 -0.1781
vn 0.2327 -0.9678 -0.0964
vn 0.2518 -0.9678 0.0000
vn 0.2327 -0.9678 0.0964
vn 0.1781 -0.9678 0.1781
vn 0.0964 -0.9678 0.2327
vn -0.0000 -0.9678 0.2518
vn -0.3782 -0.1531 0.9130
vn -0.6988 -0.1531 0.6988
vn -0.9130 -0.1531 0.3782
vn -0.9882 -0.1531 0.0000
vn -0.9130 -0.1531 -0.3782
vn -0.6988 -0.1531 -0.6988
vn -0.3782 -0.1531 -0.9130
vn 0.0000 -0.1531 -0.9882
vn 0.3782 -0.1531 -0.9130
vn 0.6988 -0.1531 -0.6988
vn 0.9130 -0.1531 -0.3782
vn 0.9882 -0.1531 0.0000
vn 0.9130 -0.1531 0.3782
vn 0.6988 -0.1531 0.6988
vn 0.3782 -0.1531 0.9130
vn -0.0000 -0.1531 0.9882
vn 0.0000 0.0000 0.0000
vn 0.0000 0.0000 1.0000
vn -0.9628 0.2704 0.0000
vn 0.0000 0.0000 -1.0000
vn 1.0000 -0.0063 0.0000
vn 0.9999 -0.0127 0.0000
vn 0.6629 -0.7487 0.0000
vn -0.6051 0.7962 0.0000
vn 0.9628 0.2703 0.0000
vn -1.0000 -0.0064 0.0000
vn -0.9999 -0.0127 0.0000
vn -0.6630 -0.7487 0.0000
vn -0.3545 -0.9351 0.0000
vn 0.6051 0.7962 0.0000
vn 0.3192 0.9477 0.0000
vn 0.0000 1.0000 0.0000
vn -1.0000 0.0000 0.0000
vn 1.0000 0.0000 0.0000
usemtl can.002
s 1
f 49/66/51 50/67/51 51/68/51 52/69/51 53/70/51 54/71/51 55/72/51 56/73/51 57/74/51 58/75/51 59/76/51 60/77/51 61/78/51 62/79/51 63/80/51 64/81/51
f 65/82/52 66/83/52 67/84/52 68/85/52
f 69/86/53 70/87/53 71/88/53 72/89/53
f 73/90/54 74/91/54 75/92/54 76/93/54
f 77/94/55 69/86/55 72/89/55 78/95/55
f 79/96/56 80/97/56 81/98/56 82/99/56
f 80/97/57 73/90/57 76/93/57 81/98/57
f 83/100/58 77/94/58 78/95/58 84/101/58
f 85/102/59 79/96/59 82/99/59 86/103/59
f 87/104/60 83/100/60 84/101/60 88/105/60
f 89/106/61 85/102/61 86/103/61 90/107/61
f 91/108/62 87/104/62 88/105/62 92/109/62
f 93/110/63 89/106/63 90/107/63 94/111/63
f 95/112/64 91/108/64 92/109/64 96/113/64
f 97/114/65 93/110/65 94/111/65 98/115/65
f 99/116/66 95/112/66 96/113/66 100/117/66
f 70/87/67 97/114/67 98/115/67 71/88/67
f 74/91/68 99/116/68 100/117/68 75/92/68
f 101/118/69 102/119/69 82/99/69 81/98/69
f 102/119/70 103/120/70 86/103/70 82/99/70
f 103/120/71 104/121/71 90/107/71 86/103/71
f 104/121/72 105/122/72 94/111/72 90/107/72
f 105/122/73 106/123/73 98/115/73 94/111/73
f 106/123/74 107/124/74 71/88/74 98/115/74
f 107/124/75 108/125/75 72/89/75 71/88/75
f 108/125/76 109/126/76 78/95/76 72/89/76
f 109/126/77 110/127/77 84/101/77 78/95/77
f 110/127/78 66/83/78 88/105/78 84/101/78
f 66/83/79 65/82/79 92/109/79 88/105/79
f 65/82/80 111/128/80 96/113/80 92/109/80
f 111/128/81 112/129/81 100/117/81 96/113/81
f 112/129/82 113/130/82 75/92/82 100/117/82
f 113/130/83 114/131/83 76/93/83 75/92/83
f 114/131/84 101/118/84 81/98/84 76/93/84
f 105/122/85 104/121/85 115/132/85 116/133/85
f 111/128/86 65/82/86 68/85/86 117/134/86
f 106/123/87 105/122/87 116/133/87 118/135/87
f 112/129/88 111/128/88 117/134/88 119/136/88
f 107/124/89 106/123/89 118/135/89 120/137/89
f 113/130/90 112/129/90 119/136/90 121/138/90
f 108/125/91 107/124/91 120/137/91 122/139/91
f 114/131/92 113/130/92 121/138/92 123/140/92
f 109/126/93 108/125/93 122/139/93 124/141/93
f 102/119/94 101/118/94 125/142/94 126/143/94
f 101/118/95 114/131/95 123/140/95 125/142/95
f 110/127/96 109/126/96 124/141/96 127/144/96
f 103/120/97 102/119/97 126/143/97 128/145/97
f 66/83/98 110/127/98 127/144/98 67/84/98
f 104/121/99 103/120/99 128/145/99 115/132/99
f 129/146/100 130/147/100 80/97/100 79/96/100
f 131/148/101 129/146/101 79/96/101 85/102/101
f 132/149/102 131/148/102 85/102/102 89/106/102
f 133/150/103 132/149/103 89/106/103 93/110/103
f 134/151/104 133/150/104 93/110/104 97/114/104
f 135/152/105 134/151/105 97/114/105 70/87/105
f 136/153/106 135/152/106 70/87/106 69/86/106
f 137/154/107 136/153/107 69/86/107 77/94/107
f 138/155/108 137/154/108 77/94/108 83/100/108
f 139/156/109 138/155/109 83/100/109 87/104/109
f 140/157/110 139/156/110 87/104/110 91/108/110
f 141/158/111 140/157/111 91/108/111 95/112/111
f 142/159/112 141/158/112 95/112/112 99/116/112
f 143/160/113 142/159/113 99/116/113 74/91/113
f 144/161/114 143/160/114 74/91/114 73/90/114
f 130/147/115 144/161/115 73/90/115 80/97/115
f 49/66/116 64/81/116 130/147/116 129/146/116
f 50/67/117 49/66/117 129/146/117 131/148/117
f 51/68/118 50/67/118 131/148/118 132/149/118
f 52/69/119 51/68/119 132/149/119 133/150/119
f 53/70/120 52/69/120 133/150/120 134/151/120
f 54/71/121 53/70/121 134/151/121 135/152/121
f 55/72/122 54/71/122 135/152/122 136/153/122
f 56/73/123 55/72/123 136/153/123 137/154/123
f 57/74/124 56/73/124 137/154/124 138/155/124
f 58/75/125 57/74/125 138/155/125 139/156/125
f 59/76/126 58/75/126 139/156/126 140/157/126
f 60/77/127 59/76/127 140/157/127 141/158/127
f 61/78/128 60/77/128 141/158/128 142/159/128
f 62/79/129 61/78/129 142/159/129 143/160/129
f 63/80/130 62/79/130 143/160/130 144/161/130
f 64/81/131 63/80/131 144/161/131 130/147/131
f 145/162/132 148/163/132 147/164/132 146/165/132
f 149/166/132 150/167/132 151/168/132 152/169/132
f 153/170/133 154/171/133 148/163/133 145/162/133
f 150/167/133 155/172/133 156/173/133 151/168/133
f 155/172/132 157/174/132 158/175/132 156/173/132
f 157/176/133 149/166/133 152/169/133 158/177/133
f 159/178/134 160/179/134 161/180/134 162/181/134
f 161/182/133 163/183/133 164/184/133 165/185/133
f 160/186/133 166/187/133 163/183/133 161/182/133
f 167/188/135 159/178/135 162/181/135 168/189/135
f 166/187/136 167/188/136 168/189/137 163/183/137
f 168/189/135 162/181/135 169/190/135 170/191/135
f 163/183/138 168/189/138 170/191/138 164/184/138
f 162/181/139 161/180/139 165/192/139 169/190/139
f 171/193/140 174/194/140 173/195/140 172/196/140
f 173/197/133 177/198/133 176/199/133 175/200/133
f 172/201/133 173/197/133 175/200/133 178/202/133
f 179/203/135 180/204/135 174/194/135 171/193/135
f 178/202/141 175/200/142 180/204/142 179/203/141
f 180/204/135 182/205/135 181/206/135 174/194/135
f 175/200/143 176/199/144 182/205/144 180/204/143
f 174/194/145 181/206/146 177/207/146 173/195/145
f 170/191/135 169/190/135 181/206/135 182/205/135
f 169/190/147 165/192/147 177/207/146 181/206/146
f 165/192/133 164/184/133 176/199/133 177/207/133
f 164/184/51 170/191/51 182/205/144 176/199/144
f 178/202/133 153/170/133 145/162/133 172/201/133
f 178/202/141 179/203/141 183/208/148 154/171/148
f 183/208/135 179/203/135 171/193/135 147/164/135
f 146/165/149 171/193/149 172/201/149 145/162/149
f 156/173/148 158/175/148 160/179/148 159/178/148
f 158/175/133 152/169/133 166/187/133 160/179/133
f 152/169/149 151/168/149 167/188/136 166/187/136
f 151/168/135 156/173/135 159/178/135 167/188/135
f 126/143/147 125/142/147 123/140/147 121/138/147 119/136/147 117/134/147 68/85/147 67/84/147 127/144/147 124/141/147 122/139/147 120/137/147 118/135/147 116/133/147 115/132/147 128/145/147
