# Blender v2.91.0 OBJ File: ''
# www.blender.org
mtllib trash_can_container.mtl
o Cylinder.004
v 0.343275 0.840000 -0.068281
v 0.350000 0.000000 0.000000
v 0.247487 0.000000 -0.247487
v 0.291014 0.840000 -0.194449
v 0.194449 0.840000 -0.291014
v 0.247487 -0.000000 0.247487
v 0.343275 0.840000 0.068282
v 0.291014 0.840000 0.194450
v 0.000000 -0.000000 0.350000
v 0.194449 0.840000 0.291015
v 0.068281 0.840000 0.343275
v -0.247488 -0.000000 0.247487
v -0.068281 0.840000 0.343275
v -0.194449 0.840000 0.291015
v -0.350000 0.000000 0.000000
v -0.291014 0.840000 0.194450
v -0.343275 0.840000 0.068282
v -0.247487 0.000000 -0.247488
v -0.343275 0.840000 -0.068282
v -0.291014 0.840000 -0.194450
v 0.000000 0.000000 -0.350000
v -0.068281 0.840000 -0.343275
v -0.194449 0.840000 -0.291014
v 0.068281 0.840000 -0.343275
v 0.308948 0.839641 -0.061454
v 0.261915 0.839641 -0.175006
v 0.229090 0.028090 -0.229090
v 0.323981 0.028090 0.000000
v 0.175006 0.839641 -0.261915
v 0.308949 0.839641 0.061454
v 0.229090 0.028090 0.229090
v 0.261915 0.839641 0.175006
v 0.175006 0.839641 0.261915
v 0.000000 0.028090 0.323981
v 0.061454 0.839641 0.308949
v -0.061454 0.839641 0.308949
v -0.229090 0.028090 0.229090
v -0.175006 0.839641 0.261915
v -0.261915 0.839641 0.175006
v -0.323981 0.028090 0.000000
v -0.308949 0.839641 0.061454
v -0.308948 0.839641 -0.061454
v -0.229089 0.028090 -0.229090
v -0.261915 0.839641 -0.175006
v 0.000000 0.028090 -0.323981
v -0.175006 0.839641 -0.261915
v -0.061454 0.839641 -0.308949
v 0.061454 0.839641 -0.308948
vt 0.781250 1.000000
vt 0.990000 0.250000
vt 0.875000 0.500000
vt 0.843750 1.000000
vt 0.906250 1.000000
vt 0.919706 0.080294
vt 0.750000 0.500000
vt 0.718750 1.000000
vt 0.656250 1.000000
vt 0.750000 0.010000
vt 0.625000 0.500000
vt 0.593750 1.000000
vt 0.531250 1.000000
vt 0.580294 0.080294
vt 0.500000 0.500000
vt 0.468750 1.000000
vt 0.406250 1.000000
vt 0.510000 0.250000
vt 0.375000 0.500000
vt 0.343750 1.000000
vt 0.281250 1.000000
vt 0.580295 0.419706
vt 0.250000 0.500000
vt 0.218750 1.000000
vt 0.156250 1.000000
vt 0.750000 0.490000
vt 0.919706 0.419706
vt 0.031250 1.000000
vt 0.125000 0.500000
vt 0.093750 1.000000
vt 1.000000 0.500000
vt 0.968750 1.000000
vt 0.000000 0.500000
vt 0.781250 1.000000
vt 0.843750 1.000000
vt 0.919706 0.419706
vt 0.990000 0.250000
vt 0.906250 1.000000
vt 0.875000 0.500000
vt 0.718750 1.000000
vt 0.919706 0.080294
vt 0.656250 1.000000
vt 0.750000 0.500000
vt 0.593750 1.000000
vt 0.750000 0.010000
vt 0.531250 1.000000
vt 0.625000 0.500000
vt 0.468750 1.000000
vt 0.580294 0.080294
vt 0.406250 1.000000
vt 0.500000 0.500000
vt 0.343750 1.000000
vt 0.510000 0.250000
vt 0.281250 1.000000
vt 0.375000 0.500000
vt 0.218750 1.000000
vt 0.580295 0.419706
vt 0.156250 1.000000
vt 0.750000 0.490000
vt 0.250000 0.500000
vt 0.093750 1.000000
vt 0.031250 1.000000
vt 0.125000 0.500000
vt 0.968750 1.000000
vt 0.000000 0.500000
vn 0.9236 -0.0237 -0.3826
vn 0.7071 0.0080 -0.7071
vn 0.9236 -0.0237 0.3826
vn 1.0000 0.0080 0.0000
vn 0.3826 -0.0237 0.9236
vn 0.7071 0.0080 0.7071
vn -0.3826 -0.0237 0.9236
vn 0.0000 0.0080 1.0000
vn -0.9236 -0.0237 0.3826
vn -0.7071 0.0080 0.7071
vn -0.9236 -0.0237 -0.3826
vn 0.0000 -1.0000 -0.0000
vn -1.0000 0.0080 0.0000
vn -0.3826 -0.0237 -0.9236
vn -0.7071 0.0080 -0.7071
vn 0.3826 -0.0237 -0.9236
vn 0.0000 0.0080 -1.0000
vn -0.9238 0.0119 0.3827
vn -0.7070 -0.0185 0.7070
vn -0.9238 0.0119 -0.3827
vn -0.9998 -0.0185 0.0000
vn -0.3827 0.0119 -0.9238
vn -0.7070 -0.0185 -0.7070
vn 0.3827 0.0119 -0.9238
vn 0.0000 -0.0185 -0.9998
vn 0.9238 0.0119 -0.3827
vn 0.7070 -0.0185 -0.7070
vn 0.9238 0.0119 0.3827
vn -0.0000 1.0000 0.0000
vn 0.9998 -0.0185 0.0000
vn 0.3827 0.0119 0.9238
vn 0.7070 -0.0185 0.7070
vn -0.3827 0.0119 0.9238
vn -0.0000 -0.0185 0.9998
vn -0.0057 0.9999 0.0085
vn -0.0020 0.9999 0.0101
vn -0.0085 0.9999 0.0057
vn -0.0101 0.9999 0.0020
vn -0.0101 0.9999 -0.0020
vn -0.0085 0.9999 -0.0057
vn -0.0057 0.9999 -0.0085
vn -0.0020 0.9999 -0.0101
vn 0.0020 0.9999 -0.0101
vn 0.0057 0.9999 -0.0085
vn 0.0085 0.9999 -0.0057
vn 0.0101 0.9999 -0.0020
vn 0.0101 0.9999 0.0020
vn 0.0085 0.9999 0.0057
vn 0.0057 0.9999 0.0085
vn 0.0020 0.9999 0.0101
usemtl can.003
s 1
f 1/1/1 2/2/1 3/3/1 4/4/1
f 5/5/2 4/4/2 3/3/2
f 6/6/3 2/7/3 7/8/3 8/9/3
f 1/1/4 7/8/4 2/7/4
f 9/10/5 6/11/5 10/12/5 11/13/5
f 8/9/6 10/12/6 6/11/6
f 12/14/7 9/15/7 13/16/7 14/17/7
f 11/13/8 13/16/8 9/15/8
f 15/18/9 12/19/9 16/20/9 17/21/9
f 14/17/10 16/20/10 12/19/10
f 18/22/11 15/23/11 19/24/11 20/25/11
f 21/26/12 3/27/12 2/2/12 6/6/12 9/10/12 12/14/12 15/18/12 18/22/12
f 17/21/13 19/24/13 15/23/13
f 22/28/14 21/26/14 18/29/14 23/30/14
f 20/25/15 23/30/15 18/29/15
f 5/5/16 3/27/16 21/31/16 24/32/16
f 22/28/17 24/32/17 21/33/17
f 25/34/18 26/35/18 27/36/18 28/37/18
f 29/38/19 27/39/19 26/35/19
f 30/40/20 28/37/20 31/41/20 32/42/20
f 25/34/21 28/43/21 30/40/21
f 33/44/22 31/41/22 34/45/22 35/46/22
f 32/42/23 31/47/23 33/44/23
f 36/48/24 34/45/24 37/49/24 38/50/24
f 35/46/25 34/51/25 36/48/25
f 39/52/26 37/49/26 40/53/26 41/54/26
f 38/50/27 37/55/27 39/52/27
f 42/56/28 40/53/28 43/57/28 44/58/28
f 27/36/29 45/59/29 43/57/29 40/53/29 37/49/29 34/45/29 31/41/29 28/37/29
f 41/54/30 40/60/30 42/56/30
f 46/61/31 43/57/31 45/59/31 47/62/31
f 44/58/32 43/63/32 46/61/32
f 29/38/33 48/64/33 45/59/33 27/36/33
f 47/62/34 45/65/34 48/64/34
f 5/5/35 24/32/36 48/64/36 29/38/35
f 4/4/37 5/5/35 29/38/35 26/35/37
f 1/1/38 4/4/37 26/35/37 25/34/38
f 7/8/39 1/1/38 25/34/38 30/40/39
f 8/9/40 7/8/39 30/40/39 32/42/40
f 10/12/41 8/9/40 32/42/40 33/44/41
f 11/13/42 10/12/41 33/44/41 35/46/42
f 13/16/43 11/13/42 35/46/42 36/48/43
f 14/17/44 13/16/43 36/48/43 38/50/44
f 16/20/45 14/17/44 38/50/44 39/52/45
f 17/21/46 16/20/45 39/52/45 41/54/46
f 19/24/47 17/21/46 41/54/46 42/56/47
f 20/25/48 19/24/47 42/56/47 44/58/48
f 23/30/49 20/25/48 44/58/48 46/61/49
f 22/28/50 23/30/49 46/61/49 47/62/50
f 24/32/36 22/28/50 47/62/50 48/64/36
