# Blender v2.91.0 OBJ File: 'truck.blend'
# www.blender.org
mtllib trash_can_wlid.mtl
o Cylinder.002_Cylinder.004
v -0.002310 0.000000 -0.500000
v 0.095235 1.000000 -0.490393
v 0.275475 1.000000 -0.415735
v 0.351244 0.000000 -0.353553
v 0.413425 1.000000 -0.277785
v 0.488083 1.000000 -0.097545
v 0.497690 0.000000 -0.000000
v 0.488083 1.000000 0.097545
v 0.413425 1.000000 0.277785
v 0.351244 0.000000 0.353553
v 0.275475 1.000000 0.415735
v 0.095235 1.000000 0.490393
v -0.002310 0.000000 0.500000
v -0.099855 1.000000 0.490393
v -0.280095 1.000000 0.415735
v -0.355863 0.000000 0.353553
v -0.418045 1.000000 0.277785
v -0.492702 1.000000 0.097545
v -0.502310 0.000000 -0.000000
v -0.492702 1.000000 -0.097546
v -0.418044 1.000000 -0.277786
v -0.355863 0.000000 -0.353554
v -0.280094 1.000000 -0.415735
v -0.099854 1.000000 -0.490393
v -0.002310 0.033441 -0.462830
v 0.085482 0.999573 -0.441355
v 0.247699 0.999573 -0.374164
v 0.324961 0.033441 -0.327271
v 0.371854 0.999573 -0.250009
v 0.439046 0.999573 -0.087791
v 0.460520 0.033441 -0.000000
v 0.439046 0.999573 0.087791
v 0.371854 0.999573 0.250009
v 0.324961 0.033441 0.327271
v 0.247699 0.999573 0.374164
v 0.085482 0.999573 0.441356
v -0.002310 0.033441 0.462830
v -0.090101 0.999573 0.441355
v -0.252319 0.999573 0.374164
v -0.329581 0.033441 0.327271
v -0.376474 0.999573 0.250008
v -0.443665 0.999573 0.087791
v -0.465140 0.033441 -0.000000
v -0.443665 0.999573 -0.087792
v -0.376473 0.999573 -0.250009
v -0.329580 0.033441 -0.327271
v -0.252318 0.999573 -0.374164
v -0.090100 0.999573 -0.441356
vt 0.781250 1.000000
vt 0.990000 0.250000
vt 0.875000 0.500000
vt 0.843750 1.000000
vt 0.906250 1.000000
vt 0.919706 0.080294
vt 0.750000 0.500000
vt 0.718750 1.000000
vt 0.656250 1.000000
vt 0.750000 0.010000
vt 0.625000 0.500000
vt 0.593750 1.000000
vt 0.531250 1.000000
vt 0.580294 0.080294
vt 0.500000 0.500000
vt 0.468750 1.000000
vt 0.406250 1.000000
vt 0.510000 0.250000
vt 0.375000 0.500000
vt 0.343750 1.000000
vt 0.281250 1.000000
vt 0.580295 0.419706
vt 0.250000 0.500000
vt 0.218750 1.000000
vt 0.156250 1.000000
vt 0.750000 0.490000
vt 0.919706 0.419706
vt 0.031250 1.000000
vt 0.125000 0.500000
vt 0.093750 1.000000
vt 1.000000 0.500000
vt 0.968750 1.000000
vt 0.000000 0.500000
vt 0.781250 1.000000
vt 0.843750 1.000000
vt 0.919706 0.419706
vt 0.990000 0.250000
vt 0.906250 1.000000
vt 0.875000 0.500000
vt 0.718750 1.000000
vt 0.919706 0.080294
vt 0.656250 1.000000
vt 0.750000 0.500000
vt 0.593750 1.000000
vt 0.750000 0.010000
vt 0.531250 1.000000
vt 0.625000 0.500000
vt 0.468750 1.000000
vt 0.580294 0.080294
vt 0.406250 1.000000
vt 0.500000 0.500000
vt 0.343750 1.000000
vt 0.510000 0.250000
vt 0.281250 1.000000
vt 0.375000 0.500000
vt 0.218750 1.000000
vt 0.580295 0.419706
vt 0.156250 1.000000
vt 0.750000 0.490000
vt 0.250000 0.500000
vt 0.093750 1.000000
vt 0.031250 1.000000
vt 0.125000 0.500000
vt 0.968750 1.000000
vt 0.000000 0.500000
vn 0.9235 -0.0284 -0.3825
vn 0.7071 0.0096 -0.7071
vn 0.9235 -0.0284 0.3825
vn 1.0000 0.0096 -0.0000
vn 0.3825 -0.0284 0.9235
vn 0.7071 0.0096 0.7071
vn -0.3825 -0.0284 0.9235
vn -0.0000 0.0096 1.0000
vn -0.9235 -0.0284 0.3825
vn -0.7071 0.0096 0.7071
vn -0.9235 -0.0284 -0.3825
vn 0.0000 -1.0000 0.0000
vn -1.0000 0.0096 -0.0000
vn -0.3825 -0.0284 -0.9235
vn -0.7071 0.0096 -0.7071
vn 0.3825 -0.0284 -0.9235
vn 0.0000 0.0096 -1.0000
vn -0.9238 0.0142 0.3826
vn -0.7069 -0.0222 0.7069
vn -0.9238 0.0142 -0.3826
vn -0.9998 -0.0222 0.0000
vn -0.3826 0.0142 -0.9238
vn -0.7069 -0.0222 -0.7069
vn 0.3826 0.0142 -0.9238
vn 0.0000 -0.0222 -0.9998
vn 0.9238 0.0142 -0.3826
vn 0.7069 -0.0222 -0.7069
vn 0.9238 0.0142 0.3826
vn 0.0000 1.0000 0.0000
vn 0.9998 -0.0222 0.0000
vn 0.3826 0.0142 0.9238
vn 0.7069 -0.0222 0.7069
vn -0.3826 0.0142 0.9238
vn -0.0000 -0.0222 0.9998
vn -0.0033 1.0000 0.0081
vn -0.0062 1.0000 0.0062
vn -0.0080 1.0000 0.0033
vn -0.0087 1.0000 0.0000
vn -0.0080 1.0000 -0.0033
vn -0.0062 1.0000 -0.0062
vn -0.0033 1.0000 -0.0081
vn 0.0000 1.0000 -0.0087
vn 0.0033 1.0000 -0.0080
vn 0.0062 1.0000 -0.0062
vn 0.0080 1.0000 -0.0033
vn 0.0087 1.0000 0.0000
vn 0.0080 1.0000 0.0033
vn 0.0062 1.0000 0.0062
vn 0.0033 1.0000 0.0080
vn -0.0000 1.0000 0.0087
usemtl can
s off
f 6/1/1 7/2/1 4/3/1 5/4/1
f 3/5/2 5/4/2 4/3/2
f 10/6/3 7/7/3 8/8/3 9/9/3
f 6/1/4 8/8/4 7/7/4
f 13/10/5 10/11/5 11/12/5 12/13/5
f 9/9/6 11/12/6 10/11/6
f 16/14/7 13/15/7 14/16/7 15/17/7
f 12/13/8 14/16/8 13/15/8
f 19/18/9 16/19/9 17/20/9 18/21/9
f 15/17/10 17/20/10 16/19/10
f 22/22/11 19/23/11 20/24/11 21/25/11
f 1/26/12 4/27/12 7/2/12 10/6/12 13/10/12 16/14/12 19/18/12 22/22/12
f 18/21/13 20/24/13 19/23/13
f 24/28/14 1/26/14 22/29/14 23/30/14
f 21/25/15 23/30/15 22/29/15
f 3/5/16 4/27/16 1/31/16 2/32/16
f 24/28/17 2/32/17 1/33/17
f 30/34/18 29/35/18 28/36/18 31/37/18
f 27/38/19 28/39/19 29/35/19
f 32/40/20 31/37/20 34/41/20 33/42/20
f 30/34/21 31/43/21 32/40/21
f 35/44/22 34/41/22 37/45/22 36/46/22
f 33/42/23 34/47/23 35/44/23
f 38/48/24 37/45/24 40/49/24 39/50/24
f 36/46/25 37/51/25 38/48/25
f 41/52/26 40/49/26 43/53/26 42/54/26
f 39/50/27 40/55/27 41/52/27
f 44/56/28 43/53/28 46/57/28 45/58/28
f 28/36/29 25/59/29 46/57/29 43/53/29 40/49/29 37/45/29 34/41/29 31/37/29
f 42/54/30 43/60/30 44/56/30
f 47/61/31 46/57/31 25/59/31 48/62/31
f 45/58/32 46/63/32 47/61/32
f 27/38/33 26/64/33 25/59/33 28/36/33
f 48/62/34 25/65/34 26/64/34
f 3/5/35 2/32/35 26/64/35 27/38/35
f 5/4/36 3/5/36 27/38/36 29/35/36
f 6/1/37 5/4/37 29/35/37 30/34/37
f 8/8/38 6/1/38 30/34/38 32/40/38
f 9/9/39 8/8/39 32/40/39 33/42/39
f 11/12/40 9/9/40 33/42/40 35/44/40
f 12/13/41 11/12/41 35/44/41 36/46/41
f 14/16/42 12/13/42 36/46/42 38/48/42
f 15/17/43 14/16/43 38/48/43 39/50/43
f 17/20/44 15/17/44 39/50/44 41/52/44
f 18/21/45 17/20/45 41/52/45 42/54/45
f 20/24/46 18/21/46 42/54/46 44/56/46
f 21/25/47 20/24/47 44/56/47 45/58/47
f 23/30/48 21/25/48 45/58/48 47/61/48
f 24/28/49 23/30/49 47/61/49 48/62/49
f 2/32/50 24/28/50 48/62/50 26/64/50
o Cylinder.003_Cylinder.005
v 0.466386 0.972856 0.305763
v 0.621457 0.886634 0.232039
v 0.754374 0.749816 0.209005
v 0.844901 0.583232 0.240167
v 0.879256 0.412242 0.320782
v 0.852210 0.262879 0.438577
v 0.767879 0.157881 0.575618
v 0.639102 0.113233 0.711043
v 0.485485 0.135733 0.824233
v 0.330414 0.221956 0.897957
v 0.197497 0.358774 0.920991
v 0.106970 0.525358 0.889829
v 0.072615 0.696348 0.809213
v 0.099662 0.845711 0.691418
v 0.183993 0.950709 0.554377
v 0.312770 0.995356 0.418953
v 0.609687 0.842039 0.299803
v 0.479618 0.914359 0.361641
v 0.721173 0.727280 0.280483
v 0.797105 0.587554 0.306621
v 0.825921 0.444133 0.374238
v 0.803235 0.318851 0.473041
v 0.732501 0.230782 0.587987
v 0.624487 0.193333 0.701577
v 0.495637 0.212206 0.796518
v 0.365568 0.284526 0.858356
v 0.254082 0.399285 0.877676
v 0.178151 0.539011 0.851538
v 0.149334 0.682432 0.783920
v 0.172020 0.807714 0.685117
v 0.242755 0.895783 0.570171
v 0.350769 0.933232 0.456581
v 0.637738 0.916009 0.212784
v 0.470248 1.033419 0.276913
v 0.797180 0.780217 0.167070
v 0.878268 0.589406 0.221534
v 0.938950 0.396994 0.293963
v 0.886136 0.244556 0.435116
v 0.812511 0.108235 0.583261
v 0.656732 0.083467 0.728417
v 0.491929 0.083093 0.865495
v 0.324439 0.200503 0.929624
v 0.164997 0.336295 0.975338
v 0.083909 0.527107 0.920874
v 0.023228 0.719519 0.848445
v 0.076042 0.871957 0.707292
v 0.149667 1.008277 0.559147
v 0.305446 1.033045 0.413991
v 0.621605 0.840771 0.338197
v 0.498872 0.909013 0.396548
v 0.726804 0.732484 0.319967
v 0.798453 0.600639 0.344631
v 0.825644 0.465306 0.408435
v 0.804238 0.347090 0.501665
v 0.737493 0.263988 0.610129
v 0.635570 0.228651 0.717313
v 0.513987 0.246459 0.806899
v 0.391254 0.314701 0.865249
v 0.286055 0.422988 0.883480
v 0.214406 0.554834 0.858816
v 0.187215 0.690166 0.795012
v 0.208622 0.808382 0.701781
v 0.275367 0.891485 0.593317
v 0.377289 0.926821 0.486133
v 0.604470 0.913256 0.120112
v 0.421490 1.014996 0.207105
v 0.761309 0.751814 0.092932
v 0.868129 0.555248 0.129703
v 0.908668 0.353483 0.224827
v 0.876753 0.177238 0.363823
v 0.777245 0.053342 0.525528
v 0.625291 0.000659 0.685326
v 0.444026 0.027209 0.818889
v 0.261045 0.128949 0.905882
v 0.104206 0.290392 0.933062
v -0.002614 0.486958 0.896290
v -0.043152 0.688722 0.801166
v -0.011238 0.864968 0.662170
v 0.088271 0.988863 0.500464
v 0.240225 1.041546 0.340666
v 0.592543 0.868288 0.188269
v 0.434742 0.956028 0.263291
v 0.727799 0.729061 0.164830
v 0.819920 0.559544 0.196541
v 0.854880 0.385545 0.278575
v 0.827357 0.233552 0.398443
v 0.741542 0.126706 0.537897
v 0.610498 0.081272 0.675705
v 0.454177 0.104168 0.790888
v 0.296376 0.191909 0.865910
v 0.161120 0.331135 0.889350
v 0.068999 0.500652 0.857639
v 0.034039 0.674652 0.775604
v 0.061562 0.826645 0.655736
v 0.147378 0.933491 0.516282
v 0.278421 0.978924 0.378474
v 0.420558 0.574848 0.674868
v 0.413789 0.608539 0.658984
v 0.444057 0.604106 0.636681
v 0.450826 0.570415 0.652565
v 0.606908 0.547554 0.537559
v 0.600139 0.581245 0.521675
v 0.576640 0.551987 0.559861
v 0.413789 0.608539 0.658984
v 0.420558 0.574848 0.674868
v 0.444057 0.604106 0.636681
v 0.450826 0.570415 0.652565
v 0.600139 0.581245 0.521675
v 0.606908 0.547554 0.537559
v 0.569871 0.585678 0.543977
v 0.576640 0.551987 0.559861
v 0.441355 0.590835 0.699915
v 0.434586 0.624526 0.684031
v 0.471623 0.586402 0.677612
v 0.464854 0.620093 0.661728
v 0.467492 0.604197 0.717117
v 0.460723 0.637888 0.701233
v 0.479403 0.592259 0.686720
v 0.472634 0.625950 0.670836
v 0.516129 0.612776 0.714585
v 0.509360 0.646466 0.698701
v 0.493543 0.595214 0.686962
v 0.486774 0.628905 0.671078
v 0.627705 0.563541 0.562606
v 0.620936 0.597232 0.546722
v 0.597437 0.567974 0.584908
v 0.590668 0.601665 0.569024
v 0.639134 0.579057 0.590646
v 0.632364 0.612748 0.574762
v 0.604946 0.573871 0.594215
v 0.598177 0.607562 0.578331
v 0.624812 0.596857 0.634504
v 0.618042 0.630548 0.618620
v 0.601791 0.579359 0.607202
v 0.595022 0.613050 0.591318
vt 0.000000 0.000000
vt 0.000000 0.000000
vt 0.000000 0.000000
vt 0.000000 0.000000
vt 0.000000 0.000000
vt 0.000000 0.000000
vt 0.000000 0.000000
vt 0.000000 0.000000
vt 0.000000 0.000000
vt 0.000000 0.000000
vt 0.000000 0.000000
vt 0.000000 0.000000
vt 0.000000 0.000000
vt 0.000000 0.000000
vt 0.000000 0.000000
vt 0.000000 0.000000
vt 0.000000 0.000000
vt 0.000000 0.000000
vt 0.000000 0.000000
vt 0.000000 0.000000
vt 0.000000 0.000000
vt 0.000000 0.000000
vt 0.000000 0.000000
vt 0.000000 0.000000
vt 0.000000 0.000000
vt 0.000000 0.000000
vt 0.000000 0.000000
vt 0.000000 0.000000
vt 0.000000 0.000000
vt 0.000000 0.000000
vt 0.000000 0.000000
vt 0.000000 0.000000
vt 0.000000 0.000000
vt 0.000000 0.000000
vt 0.000000 0.000000
vt 0.000000 0.000000
vt 0.000000 0.000000
vt 0.000000 0.000000
vt 0.000000 0.000000
vt 0.000000 0.000000
vt 0.000000 0.000000
vt 0.000000 0.000000
vt 0.000000 0.000000
vt 0.000000 0.000000
vt 0.000000 0.000000
vt 0.000000 0.000000
vt 0.000000 0.000000
vt 0.000000 0.000000
vt 0.000000 0.000000
vt 0.000000 0.000000
vt 0.000000 0.000000
vt 0.000000 0.000000
vt 0.000000 0.000000
vt 0.000000 0.000000
vt 0.000000 0.000000
vt 0.000000 0.000000
vt 0.000000 0.000000
vt 0.000000 0.000000
vt 0.000000 0.000000
vt 0.000000 0.000000
vt 0.000000 0.000000
vt 0.000000 0.000000
vt 0.000000 0.000000
vt 0.000000 0.000000
vt 0.000000 0.000000
vt 0.000000 0.000000
vt 0.000000 0.000000
vt 0.000000 0.000000
vt 0.000000 0.000000
vt 0.000000 0.000000
vt 0.000000 0.000000
vt 0.000000 0.000000
vt 0.000000 0.000000
vt 0.000000 0.000000
vt 0.000000 0.000000
vt 0.000000 0.000000
vt 0.000000 0.000000
vt 0.000000 0.000000
vt 0.000000 0.000000
vt 0.000000 0.000000
vt 0.000000 0.000000
vt 0.000000 0.000000
vt 0.000000 0.000000
vt 0.000000 0.000000
vt 0.000000 0.000000
vt 0.000000 0.000000
vt 0.000000 0.000000
vt 0.000000 0.000000
vt 0.000000 0.000000
vt 0.000000 0.000000
vt 0.000000 0.000000
vt 0.000000 0.000000
vt 0.000000 0.000000
vt 0.000000 0.000000
vt 0.000000 0.000000
vt 0.000000 0.000000
vt 0.000000 0.000000
vt 0.000000 0.000000
vt 0.000000 0.000000
vt 0.000000 0.000000
vt 0.385489 0.750000
vt 0.385489 0.500000
vt 0.385489 0.500000
vt 0.385489 0.750000
vt 0.000000 0.000000
vt 0.000000 0.000000
vt 0.385489 0.250000
vt 0.385489 0.250000
vt 0.385489 0.000000
vt 0.385489 0.000000
vt 0.385489 1.000000
vt 0.385489 1.000000
vt 0.625000 0.250000
vt 0.625000 0.000000
vt 0.625000 0.000000
vt 0.625000 0.250000
vt 0.625000 1.000000
vt 0.625000 0.750000
vt 0.625000 0.750000
vt 0.625000 1.000000
vt 0.625000 1.000000
vt 0.625000 0.750000
vt 0.625000 0.500000
vt 0.625000 0.500000
vt 0.625000 0.250000
vt 0.625000 0.500000
vt 0.625000 0.000000
vt 0.625000 0.250000
vt 0.625000 0.000000
vt 0.625000 0.000000
vt 0.625000 0.250000
vt 0.625000 1.000000
vt 0.625000 0.750000
vt 0.625000 0.750000
vt 0.625000 1.000000
vt 0.625000 1.000000
vt 0.625000 0.750000
vt 0.625000 0.500000
vt 0.625000 0.500000
vt 0.625000 0.250000
vt 0.625000 0.500000
vt 0.625000 0.000000
vt 0.000000 0.000000
vn -0.5734 -0.4408 -0.6906
vn -0.2221 0.0613 0.9731
vn 0.6175 -0.6370 0.4614
vn -0.1680 0.9825 0.0800
vn 0.4363 -0.6512 0.6209
vn 0.4019 0.8598 -0.3149
vn 0.0132 0.9967 -0.0796
vn 0.0476 -0.5143 0.8563
vn 0.5867 0.7167 -0.3770
vn -0.1372 -0.3712 0.9184
vn 0.8680 0.3347 -0.3668
vn -0.4185 0.0109 0.9081
vn 0.9482 0.1181 -0.2951
vn -0.4987 0.2275 0.8364
vn 0.9574 -0.2853 -0.0452
vn -0.5079 0.6309 0.5866
vn 0.8859 -0.4486 0.1183
vn -0.4364 0.7941 0.4231
vn 0.5890 0.5046 0.6312
vn 0.6052 0.4920 0.6258
vn 0.6334 0.4538 0.6268
vn 0.6405 0.4347 0.6331
vn 0.6414 0.3943 0.6581
vn 0.6351 0.3799 0.6725
vn 0.6082 0.3610 0.7069
vn 0.5923 0.3598 0.7209
vn 0.5533 0.3735 0.7445
vn 0.5371 0.3861 0.7500
vn 0.5089 0.4244 0.7490
vn 0.5018 0.4434 0.7427
vn 0.5009 0.4839 0.7176
vn 0.5072 0.4982 0.7032
vn 0.5341 0.5171 0.6688
vn 0.5500 0.5183 0.6548
vn 0.9838 0.1559 -0.0886
vn -0.3282 0.3481 0.8781
vn 0.9900 -0.1162 0.0800
vn -0.3344 0.6202 0.7096
vn 0.8954 -0.3323 0.2964
vn -0.2398 0.8362 0.4931
vn 0.7144 -0.4594 0.5279
vn -0.0588 0.9634 0.2617
vn 0.4745 -0.4782 0.7390
vn 0.4433 0.8898 -0.1082
vn 0.1811 0.9822 0.0505
vn 0.2123 -0.3858 0.8978
vn 0.6879 0.7004 -0.1904
vn -0.0323 -0.1964 0.9800
vn 0.8777 0.4426 -0.1835
vn -0.5904 -0.6224 -0.5139
vn -0.6655 -0.5642 -0.4887
vn -0.7237 -0.4851 -0.4908
vn -0.7563 -0.3971 -0.5200
vn -0.7582 -0.3136 -0.5717
vn -0.7291 -0.2473 -0.6381
vn -0.6736 -0.2082 -0.7092
vn -0.6000 -0.2025 -0.7740
vn -0.5195 -0.2308 -0.8227
vn -0.4444 -0.2890 -0.8479
vn -0.3861 -0.3681 -0.8458
vn -0.3536 -0.4561 -0.8167
vn -0.3517 -0.5396 -0.7650
vn -0.3807 -0.6059 -0.6985
vn -0.4363 -0.6449 -0.6275
vn -0.5099 -0.6507 -0.5627
vn -0.2269 -0.8357 0.5002
vn -0.5215 -0.6075 0.5991
vn -0.7501 -0.2971 0.5908
vn -0.8779 0.0483 0.4765
vn -0.8853 0.3760 0.2735
vn -0.7714 0.6362 0.0128
vn -0.5534 0.7893 -0.2660
vn -0.2645 0.8120 -0.5203
vn 0.0513 0.7008 -0.7116
vn 0.3460 0.4726 -0.8105
vn 0.5746 0.1622 -0.8022
vn 0.7023 -0.1832 -0.6879
vn 0.7098 -0.5109 -0.4849
vn 0.5959 -0.7712 -0.2242
vn 0.3778 -0.9243 0.0546
vn 0.0889 -0.9469 0.3089
vn 0.0000 0.0000 1.0000
vn -0.6147 0.2319 0.7539
vn 0.1788 -0.8899 0.4196
vn -0.1788 0.8899 -0.4196
vn 0.7922 -0.1227 -0.5978
vn 0.1008 -0.4076 -0.9076
vn -0.0272 0.4218 0.9063
vn -0.9248 -0.0064 0.3805
vn 0.8067 -0.1115 -0.5803
vn 0.9593 0.2524 0.1264
vn -0.9403 -0.2801 -0.1934
vn 0.5734 0.4408 0.6906
vn 0.7995 -0.1171 -0.5891
vn -0.7995 0.1171 0.5891
usemtl can
s off
f 50/66/51 51/67/51 52/68/51 53/69/51 54/70/51 55/71/51 56/72/51 57/73/51 58/74/51 59/75/51 60/76/51 61/77/51 62/78/51 63/79/51 64/80/51 49/81/51
f 76/82/52 75/83/52 107/84/52 108/85/52
f 120/86/53 119/87/53 87/88/53 88/89/53
f 128/90/54 127/91/54 95/92/54 96/93/54
f 121/94/55 120/86/55 88/89/55 89/95/55
f 113/96/56 114/97/56 82/98/56 81/99/56
f 114/97/57 128/90/57 96/93/57 82/98/57
f 122/100/58 121/94/58 89/95/58 90/101/58
f 115/102/59 113/96/59 81/99/59 83/103/59
f 123/104/60 122/100/60 90/101/60 91/105/60
f 116/106/61 115/102/61 83/103/61 84/107/61
f 124/108/62 123/104/62 91/105/62 92/109/62
f 117/110/63 116/106/63 84/107/63 85/111/63
f 125/112/64 124/108/64 92/109/64 93/113/64
f 118/114/65 117/110/65 85/111/65 86/115/65
f 126/116/66 125/112/66 93/113/66 94/117/66
f 119/87/67 118/114/67 86/115/67 87/88/67
f 127/91/68 126/116/68 94/117/68 95/92/68
f 66/118/69 65/119/69 81/99/69 82/98/69
f 65/119/70 67/120/70 83/103/70 81/99/70
f 67/120/71 68/121/71 84/107/71 83/103/71
f 68/121/72 69/122/72 85/111/72 84/107/72
f 69/122/73 70/123/73 86/115/73 85/111/73
f 70/123/74 71/124/74 87/88/74 86/115/74
f 71/124/75 72/125/75 88/89/75 87/88/75
f 72/125/76 73/126/76 89/95/76 88/89/76
f 73/126/77 74/127/77 90/101/77 89/95/77
f 74/127/78 75/83/78 91/105/78 90/101/78
f 75/83/79 76/82/79 92/109/79 91/105/79
f 76/82/80 77/128/80 93/113/80 92/109/80
f 77/128/81 78/129/81 94/117/81 93/113/81
f 78/129/82 79/130/82 95/92/82 94/117/82
f 79/130/83 80/131/83 96/93/83 95/92/83
f 80/131/84 66/118/84 82/98/84 96/93/84
f 69/122/85 68/121/85 100/132/85 101/133/85
f 77/128/86 76/82/86 108/85/86 109/134/86
f 70/123/87 69/122/87 101/133/87 102/135/87
f 78/129/88 77/128/88 109/134/88 110/136/88
f 71/124/89 70/123/89 102/135/89 103/137/89
f 79/130/90 78/129/90 110/136/90 111/138/90
f 72/125/91 71/124/91 103/137/91 104/139/91
f 80/131/92 79/130/92 111/138/92 112/140/92
f 73/126/93 72/125/93 104/139/93 105/141/93
f 65/119/94 66/118/94 98/142/94 97/143/94
f 66/118/95 80/131/95 112/140/95 98/142/95
f 74/127/96 73/126/96 105/141/96 106/144/96
f 67/120/97 65/119/97 97/143/97 99/145/97
f 75/83/98 74/127/98 106/144/98 107/84/98
f 68/121/99 67/120/99 99/145/99 100/132/99
f 129/146/100 130/147/100 114/97/100 113/96/100
f 131/148/101 129/146/101 113/96/101 115/102/101
f 132/149/102 131/148/102 115/102/102 116/106/102
f 133/150/103 132/149/103 116/106/103 117/110/103
f 134/151/104 133/150/104 117/110/104 118/114/104
f 135/152/105 134/151/105 118/114/105 119/87/105
f 136/153/106 135/152/106 119/87/106 120/86/106
f 137/154/107 136/153/107 120/86/107 121/94/107
f 138/155/108 137/154/108 121/94/108 122/100/108
f 139/156/109 138/155/109 122/100/109 123/104/109
f 140/157/110 139/156/110 123/104/110 124/108/110
f 141/158/111 140/157/111 124/108/111 125/112/111
f 142/159/112 141/158/112 125/112/112 126/116/112
f 143/160/113 142/159/113 126/116/113 127/91/113
f 144/161/114 143/160/114 127/91/114 128/90/114
f 130/147/115 144/161/115 128/90/115 114/97/115
f 50/66/116 49/81/116 130/147/116 129/146/116
f 51/67/117 50/66/117 129/146/117 131/148/117
f 52/68/118 51/67/118 131/148/118 132/149/118
f 53/69/119 52/68/119 132/149/119 133/150/119
f 54/70/120 53/69/120 133/150/120 134/151/120
f 55/71/121 54/70/121 134/151/121 135/152/121
f 56/72/122 55/71/122 135/152/122 136/153/122
f 57/73/123 56/72/123 136/153/123 137/154/123
f 58/74/124 57/73/124 137/154/124 138/155/124
f 59/75/125 58/74/125 138/155/125 139/156/125
f 60/76/126 59/75/126 139/156/126 140/157/126
f 61/77/127 60/76/127 140/157/127 141/158/127
f 62/78/128 61/77/128 141/158/128 142/159/128
f 63/79/129 62/78/129 142/159/129 143/160/129
f 64/80/130 63/79/130 143/160/130 144/161/130
f 49/81/131 64/80/131 144/161/131 130/147/131
f 149/162/132 150/163/132 156/164/132 157/165/132
f 148/166/132 147/167/132 154/168/132 155/169/132
f 151/170/132 149/162/132 157/165/132 159/171/132
f 147/167/132 146/172/132 152/173/132 154/168/132
f 146/172/132 145/174/132 153/175/132 152/173/132
f 145/176/132 148/166/132 155/169/132 153/177/132
f 161/178/133 160/179/133 164/180/133 165/181/133
f 164/182/134 166/183/134 170/184/134 168/185/134
f 160/186/134 162/187/134 166/183/134 164/182/134
f 163/188/135 161/178/135 165/181/135 167/189/135
f 162/187/136 163/188/136 167/189/136 166/183/136
f 167/189/135 165/181/135 169/190/135 171/191/135
f 166/183/137 167/189/137 171/191/137 170/184/137
f 165/181/138 164/180/138 168/192/138 169/190/138
f 173/193/139 172/194/139 176/195/139 177/196/139
f 176/197/135 178/198/135 182/199/135 180/200/135
f 172/201/135 174/202/135 178/198/135 176/197/135
f 175/203/134 173/193/134 177/196/134 179/204/134
f 174/202/140 175/203/140 179/204/140 178/198/140
f 179/204/134 177/196/134 181/205/134 183/206/134
f 178/198/141 179/204/141 183/206/141 182/199/141
f 177/196/142 176/195/142 180/207/142 181/205/142
f 171/191/135 169/190/135 181/205/135 183/206/135
f 169/190/143 168/192/143 180/207/143 181/205/143
f 168/192/134 170/184/134 182/199/134 180/207/134
f 170/184/51 171/191/51 183/206/51 182/199/51
f 174/202/135 172/201/135 149/162/135 151/170/135
f 174/202/144 159/171/144 158/208/144 175/203/144
f 158/208/134 156/164/134 173/193/134 175/203/134
f 150/163/145 149/162/145 172/201/145 173/193/145
f 152/173/145 153/175/145 160/179/145 161/178/145
f 153/175/134 155/169/134 162/187/134 160/179/134
f 155/169/144 154/168/144 163/188/144 162/187/144
f 154/168/135 152/173/135 161/178/135 163/188/135
f 97/143/143 98/142/143 112/140/143 111/138/143 110/136/143 109/134/143 108/85/143 107/84/143 106/144/143 105/141/143 104/139/143 103/137/143 102/135/143 101/133/143 100/132/143 99/145/143
