# Blender v2.91.0 OBJ File: 'truck.blend'
# www.blender.org
mtllib trash_can.mtl
o Cylinder
v 0.000000 0.000000 -0.500000
v 0.097545 1.000000 -0.490393
v 0.277785 1.000000 -0.415735
v 0.353553 0.000000 -0.353553
v 0.415735 1.000000 -0.277785
v 0.490393 1.000000 -0.097545
v 0.500000 0.000000 -0.000000
v 0.490393 1.000000 0.097545
v 0.415735 1.000000 0.277785
v 0.353553 0.000000 0.353553
v 0.277785 1.000000 0.415735
v 0.097545 1.000000 0.490393
v -0.000000 0.000000 0.500000
v -0.097545 1.000000 0.490393
v -0.277785 1.000000 0.415735
v -0.353554 0.000000 0.353553
v -0.415735 1.000000 0.277785
v -0.490393 1.000000 0.097545
v -0.500000 0.000000 -0.000000
v -0.490393 1.000000 -0.097546
v -0.415734 1.000000 -0.277786
v -0.353553 0.000000 -0.353554
v -0.277785 1.000000 -0.415735
v -0.097544 1.000000 -0.490393
v 0.000000 0.033441 -0.462830
v 0.087791 0.999573 -0.441355
v 0.250009 0.999573 -0.374164
v 0.327271 0.033441 -0.327271
v 0.374164 0.999573 -0.250009
v 0.441355 0.999573 -0.087791
v 0.462830 0.033441 -0.000000
v 0.441356 0.999573 0.087791
v 0.374164 0.999573 0.250009
v 0.327271 0.033441 0.327271
v 0.250009 0.999573 0.374164
v 0.087791 0.999573 0.441356
v -0.000000 0.033441 0.462830
v -0.087792 0.999573 0.441355
v -0.250009 0.999573 0.374164
v -0.327271 0.033441 0.327271
v -0.374164 0.999573 0.250008
v -0.441356 0.999573 0.087791
v -0.462830 0.033441 -0.000000
v -0.441355 0.999573 -0.087792
v -0.374164 0.999573 -0.250009
v -0.327270 0.033441 -0.327271
v -0.250008 0.999573 -0.374164
v -0.087791 0.999573 -0.441356
vt 0.781250 1.000000
vt 0.990000 0.250000
vt 0.875000 0.500000
vt 0.843750 1.000000
vt 0.906250 1.000000
vt 0.919706 0.080294
vt 0.750000 0.500000
vt 0.718750 1.000000
vt 0.656250 1.000000
vt 0.750000 0.010000
vt 0.625000 0.500000
vt 0.593750 1.000000
vt 0.531250 1.000000
vt 0.580294 0.080294
vt 0.500000 0.500000
vt 0.468750 1.000000
vt 0.406250 1.000000
vt 0.510000 0.250000
vt 0.375000 0.500000
vt 0.343750 1.000000
vt 0.281250 1.000000
vt 0.580295 0.419706
vt 0.250000 0.500000
vt 0.218750 1.000000
vt 0.156250 1.000000
vt 0.750000 0.490000
vt 0.919706 0.419706
vt 0.031250 1.000000
vt 0.125000 0.500000
vt 0.093750 1.000000
vt 1.000000 0.500000
vt 0.968750 1.000000
vt 0.000000 0.500000
vt 0.781250 1.000000
vt 0.843750 1.000000
vt 0.919706 0.419706
vt 0.990000 0.250000
vt 0.906250 1.000000
vt 0.875000 0.500000
vt 0.718750 1.000000
vt 0.919706 0.080294
vt 0.656250 1.000000
vt 0.750000 0.500000
vt 0.593750 1.000000
vt 0.750000 0.010000
vt 0.531250 1.000000
vt 0.625000 0.500000
vt 0.468750 1.000000
vt 0.580294 0.080294
vt 0.406250 1.000000
vt 0.500000 0.500000
vt 0.343750 1.000000
vt 0.510000 0.250000
vt 0.281250 1.000000
vt 0.375000 0.500000
vt 0.218750 1.000000
vt 0.580295 0.419706
vt 0.156250 1.000000
vt 0.750000 0.490000
vt 0.250000 0.500000
vt 0.093750 1.000000
vt 0.031250 1.000000
vt 0.125000 0.500000
vt 0.968750 1.000000
vt 0.000000 0.500000
vn 0.9235 -0.0284 -0.3825
vn 0.7071 0.0096 -0.7071
vn 0.9235 -0.0284 0.3825
vn 1.0000 0.0096 -0.0000
vn 0.3825 -0.0284 0.9235
vn 0.7071 0.0096 0.7071
vn -0.3825 -0.0284 0.9235
vn -0.0000 0.0096 1.0000
vn -0.9235 -0.0284 0.3825
vn -0.7071 0.0096 0.7071
vn -0.9235 -0.0284 -0.3825
vn 0.0000 -1.0000 0.0000
vn -1.0000 0.0096 -0.0000
vn -0.3825 -0.0284 -0.9235
vn -0.7071 0.0096 -0.7071
vn 0.3825 -0.0284 -0.9235
vn 0.0000 0.0096 -1.0000
vn -0.9238 0.0142 0.3826
vn -0.7069 -0.0222 0.7069
vn -0.9238 0.0142 -0.3826
vn -0.9998 -0.0222 0.0000
vn -0.3826 0.0142 -0.9238
vn -0.7069 -0.0222 -0.7069
vn 0.3826 0.0142 -0.9238
vn 0.0000 -0.0222 -0.9998
vn 0.9238 0.0142 -0.3826
vn 0.7069 -0.0222 -0.7069
vn 0.9238 0.0142 0.3826
vn 0.0000 1.0000 0.0000
vn 0.9998 -0.0222 0.0000
vn 0.3826 0.0142 0.9238
vn 0.7069 -0.0222 0.7069
vn -0.3826 0.0142 0.9238
vn -0.0000 -0.0222 0.9998
vn -0.0033 1.0000 0.0080
vn -0.0062 1.0000 0.0062
vn -0.0080 1.0000 0.0033
vn -0.0087 1.0000 0.0000
vn -0.0080 1.0000 -0.0033
vn -0.0062 1.0000 -0.0062
vn -0.0033 1.0000 -0.0080
vn 0.0000 1.0000 -0.0087
vn 0.0033 1.0000 -0.0081
vn 0.0062 1.0000 -0.0062
vn 0.0080 1.0000 -0.0033
vn 0.0087 1.0000 0.0000
vn 0.0080 1.0000 0.0033
vn 0.0062 1.0000 0.0062
vn 0.0033 1.0000 0.0081
vn -0.0000 1.0000 0.0087
usemtl can
s off
f 6/1/1 7/2/1 4/3/1 5/4/1
f 3/5/2 5/4/2 4/3/2
f 10/6/3 7/7/3 8/8/3 9/9/3
f 6/1/4 8/8/4 7/7/4
f 13/10/5 10/11/5 11/12/5 12/13/5
f 9/9/6 11/12/6 10/11/6
f 16/14/7 13/15/7 14/16/7 15/17/7
f 12/13/8 14/16/8 13/15/8
f 19/18/9 16/19/9 17/20/9 18/21/9
f 15/17/10 17/20/10 16/19/10
f 22/22/11 19/23/11 20/24/11 21/25/11
f 1/26/12 4/27/12 7/2/12 10/6/12 13/10/12 16/14/12 19/18/12 22/22/12
f 18/21/13 20/24/13 19/23/13
f 24/28/14 1/26/14 22/29/14 23/30/14
f 21/25/15 23/30/15 22/29/15
f 3/5/16 4/27/16 1/31/16 2/32/16
f 24/28/17 2/32/17 1/33/17
f 30/34/18 29/35/18 28/36/18 31/37/18
f 27/38/19 28/39/19 29/35/19
f 32/40/20 31/37/20 34/41/20 33/42/20
f 30/34/21 31/43/21 32/40/21
f 35/44/22 34/41/22 37/45/22 36/46/22
f 33/42/23 34/47/23 35/44/23
f 38/48/24 37/45/24 40/49/24 39/50/24
f 36/46/25 37/51/25 38/48/25
f 41/52/26 40/49/26 43/53/26 42/54/26
f 39/50/27 40/55/27 41/52/27
f 44/56/28 43/53/28 46/57/28 45/58/28
f 28/36/29 25/59/29 46/57/29 43/53/29 40/49/29 37/45/29 34/41/29 31/37/29
f 42/54/30 43/60/30 44/56/30
f 47/61/31 46/57/31 25/59/31 48/62/31
f 45/58/32 46/63/32 47/61/32
f 27/38/33 26/64/33 25/59/33 28/36/33
f 48/62/34 25/65/34 26/64/34
f 3/5/35 2/32/35 26/64/35 27/38/35
f 5/4/36 3/5/36 27/38/36 29/35/36
f 6/1/37 5/4/37 29/35/37 30/34/37
f 8/8/38 6/1/38 30/34/38 32/40/38
f 9/9/39 8/8/39 32/40/39 33/42/39
f 11/12/40 9/9/40 33/42/40 35/44/40
f 12/13/41 11/12/41 35/44/41 36/46/41
f 14/16/42 12/13/42 36/46/42 38/48/42
f 15/17/43 14/16/43 38/48/43 39/50/43
f 17/20/44 15/17/44 39/50/44 41/52/44
f 18/21/45 17/20/45 41/52/45 42/54/45
f 20/24/46 18/21/46 42/54/46 44/56/46
f 21/25/47 20/24/47 44/56/47 45/58/47
f 23/30/48 21/25/48 45/58/48 47/61/48
f 24/28/49 23/30/49 47/61/49 48/62/49
f 2/32/50 24/28/50 48/62/50 26/64/50
o Cylinder.001
v 0.092754 1.054877 -0.482335
v 0.270265 1.054877 -0.408808
v 0.406126 1.054877 -0.272947
v 0.479654 1.054877 -0.095435
v 0.479654 1.054877 0.096701
v 0.406126 1.054877 0.274213
v 0.270265 1.054877 0.410074
v 0.092754 1.054877 0.483601
v -0.099383 1.054877 0.483601
v -0.276894 1.054877 0.410074
v -0.412755 1.054877 0.274212
v -0.486283 1.054877 0.096701
v -0.486283 1.054877 -0.095436
v -0.412755 1.054877 -0.272947
v -0.276893 1.054877 -0.408808
v -0.099382 1.054877 -0.482335
v 0.226156 1.075267 -0.342794
v 0.077265 1.075267 -0.404467
v 0.340112 1.075267 -0.228837
v 0.401785 1.075267 -0.079946
v 0.401785 1.075267 0.081212
v 0.340112 1.075267 0.230104
v 0.226156 1.075267 0.344060
v 0.077265 1.075267 0.405733
v -0.083894 1.075267 0.405733
v -0.232785 1.075267 0.344060
v -0.346741 1.075267 0.230103
v -0.408414 1.075267 0.081212
v -0.408414 1.075267 -0.079947
v -0.346741 1.075267 -0.228838
v -0.232784 1.075267 -0.342794
v -0.083893 1.075267 -0.404467
v 0.291186 1.063864 -0.440117
v 0.105745 1.063864 -0.547647
v 0.461495 1.063864 -0.309943
v 0.516586 1.063864 -0.102782
v 0.544965 1.063864 0.109693
v 0.437436 1.063864 0.295133
v 0.307261 1.063864 0.465442
v 0.100100 1.063864 0.520534
v -0.112374 1.063864 0.548913
v -0.297815 1.063864 0.441383
v -0.468124 1.063864 0.311208
v -0.523215 1.063864 0.104047
v -0.551594 1.063864 -0.108427
v -0.444064 1.063864 -0.293867
v -0.313889 1.063864 -0.464177
v -0.106728 1.063864 -0.519268
v 0.213215 1.108057 -0.323426
v 0.072720 1.108057 -0.381620
v 0.320744 1.108057 -0.215896
v 0.378939 1.108057 -0.075402
v 0.378939 1.108057 0.076668
v 0.320744 1.108057 0.217162
v 0.213215 1.108057 0.324692
v 0.072720 1.108057 0.382886
v -0.079350 1.108057 0.382886
v -0.219844 1.108057 0.324692
v -0.327373 1.108057 0.217162
v -0.385568 1.108057 0.076668
v -0.385568 1.108057 -0.075402
v -0.327373 1.108057 -0.215896
v -0.219843 1.108057 -0.323426
v -0.079349 1.108057 -0.381620
v 0.319504 0.979576 -0.482499
v 0.110044 0.979576 -0.569260
v 0.479817 0.979576 -0.322185
v 0.566578 0.979576 -0.112726
v 0.566578 0.979576 0.113992
v 0.479817 0.979576 0.323451
v 0.319504 0.979576 0.483765
v 0.110044 0.979576 0.570526
v -0.116673 0.979576 0.570526
v -0.326133 0.979576 0.483765
v -0.486446 0.979576 0.323451
v -0.573207 0.979576 0.113991
v -0.573207 0.979576 -0.112726
v -0.486446 0.979576 -0.322186
v -0.326132 0.979576 -0.482499
v -0.116672 0.979576 -0.569260
v 0.275081 0.999984 -0.416016
v 0.094445 0.999984 -0.490837
v 0.413334 0.999984 -0.277763
v 0.488156 0.999984 -0.097127
v 0.488156 0.999984 0.098393
v 0.413334 0.999984 0.279029
v 0.275081 0.999984 0.417282
v 0.094445 0.999984 0.492104
v -0.101074 0.999984 0.492104
v -0.281710 0.999984 0.417282
v -0.419963 0.999984 0.279028
v -0.494785 0.999984 0.098392
v -0.494785 0.999984 -0.097127
v -0.419963 0.999984 -0.277763
v -0.281710 0.999984 -0.416016
v -0.101073 0.999984 -0.490838
v -0.114723 1.108057 0.018538
v -0.114723 1.108057 -0.019319
v -0.076865 1.108057 -0.019319
v -0.076865 1.108057 0.018538
v 0.118354 1.108057 0.018538
v 0.118354 1.108057 -0.019319
v 0.080497 1.108057 0.018538
v -0.114723 1.108057 -0.019319
v -0.114723 1.108057 0.018538
v -0.076865 1.108057 -0.019319
v -0.076865 1.108057 0.018538
v 0.118354 1.108057 -0.019319
v 0.118354 1.108057 0.018538
v 0.080497 1.108057 -0.019319
v 0.080497 1.108057 0.018538
v -0.114723 1.144326 0.018538
v -0.114723 1.144326 -0.019319
v -0.076865 1.144326 0.018538
v -0.076865 1.144326 -0.019319
v -0.105524 1.177083 0.018538
v -0.105524 1.177083 -0.019319
v -0.076696 1.157659 0.018538
v -0.076696 1.157659 -0.019319
v -0.066151 1.207004 0.018538
v -0.066151 1.207004 -0.019319
v -0.065879 1.167237 0.018538
v -0.065879 1.167237 -0.019319
v 0.118354 1.144326 0.018538
v 0.118354 1.144326 -0.019319
v 0.080497 1.144326 0.018538
v 0.080497 1.144326 -0.019319
v 0.109156 1.177083 0.018538
v 0.109156 1.177083 -0.019319
v 0.080327 1.157659 0.018538
v 0.080327 1.157659 -0.019319
v 0.069783 1.207004 0.018538
v 0.069783 1.207004 -0.019319
v 0.069511 1.167237 0.018538
v 0.069511 1.167237 -0.019319
vt 0.000000 0.000000
vt 0.000000 0.000000
vt 0.000000 0.000000
vt 0.000000 0.000000
vt 0.000000 0.000000
vt 0.000000 0.000000
vt 0.000000 0.000000
vt 0.000000 0.000000
vt 0.000000 0.000000
vt 0.000000 0.000000
vt 0.000000 0.000000
vt 0.000000 0.000000
vt 0.000000 0.000000
vt 0.000000 0.000000
vt 0.000000 0.000000
vt 0.000000 0.000000
vt 0.000000 0.000000
vt 0.000000 0.000000
vt 0.000000 0.000000
vt 0.000000 0.000000
vt 0.000000 0.000000
vt 0.000000 0.000000
vt 0.000000 0.000000
vt 0.000000 0.000000
vt 0.000000 0.000000
vt 0.000000 0.000000
vt 0.000000 0.000000
vt 0.000000 0.000000
vt 0.000000 0.000000
vt 0.000000 0.000000
vt 0.000000 0.000000
vt 0.000000 0.000000
vt 0.000000 0.000000
vt 0.000000 0.000000
vt 0.000000 0.000000
vt 0.000000 0.000000
vt 0.000000 0.000000
vt 0.000000 0.000000
vt 0.000000 0.000000
vt 0.000000 0.000000
vt 0.000000 0.000000
vt 0.000000 0.000000
vt 0.000000 0.000000
vt 0.000000 0.000000
vt 0.000000 0.000000
vt 0.000000 0.000000
vt 0.000000 0.000000
vt 0.000000 0.000000
vt 0.000000 0.000000
vt 0.000000 0.000000
vt 0.000000 0.000000
vt 0.000000 0.000000
vt 0.000000 0.000000
vt 0.000000 0.000000
vt 0.000000 0.000000
vt 0.000000 0.000000
vt 0.000000 0.000000
vt 0.000000 0.000000
vt 0.000000 0.000000
vt 0.000000 0.000000
vt 0.000000 0.000000
vt 0.000000 0.000000
vt 0.000000 0.000000
vt 0.000000 0.000000
vt 0.000000 0.000000
vt 0.000000 0.000000
vt 0.000000 0.000000
vt 0.000000 0.000000
vt 0.000000 0.000000
vt 0.000000 0.000000
vt 0.000000 0.000000
vt 0.000000 0.000000
vt 0.000000 0.000000
vt 0.000000 0.000000
vt 0.000000 0.000000
vt 0.000000 0.000000
vt 0.000000 0.000000
vt 0.000000 0.000000
vt 0.000000 0.000000
vt 0.000000 0.000000
vt 0.000000 0.000000
vt 0.000000 0.000000
vt 0.000000 0.000000
vt 0.000000 0.000000
vt 0.000000 0.000000
vt 0.000000 0.000000
vt 0.000000 0.000000
vt 0.000000 0.000000
vt 0.000000 0.000000
vt 0.000000 0.000000
vt 0.000000 0.000000
vt 0.000000 0.000000
vt 0.000000 0.000000
vt 0.000000 0.000000
vt 0.000000 0.000000
vt 0.000000 0.000000
vt 0.000000 0.000000
vt 0.000000 0.000000
vt 0.000000 0.000000
vt 0.000000 0.000000
vt 0.385489 0.750000
vt 0.385489 0.500000
vt 0.385489 0.500000
vt 0.385489 0.750000
vt 0.000000 0.000000
vt 0.000000 0.000000
vt 0.385489 0.250000
vt 0.385489 0.250000
vt 0.385489 0.000000
vt 0.385489 0.000000
vt 0.385489 1.000000
vt 0.385489 1.000000
vt 0.625000 0.250000
vt 0.625000 0.000000
vt 0.625000 0.000000
vt 0.625000 0.250000
vt 0.625000 1.000000
vt 0.625000 0.750000
vt 0.625000 0.750000
vt 0.625000 1.000000
vt 0.625000 1.000000
vt 0.625000 0.750000
vt 0.625000 0.500000
vt 0.625000 0.500000
vt 0.625000 0.250000
vt 0.625000 0.500000
vt 0.625000 0.000000
vt 0.625000 0.250000
vt 0.625000 0.000000
vt 0.625000 0.000000
vt 0.625000 0.250000
vt 0.625000 1.000000
vt 0.625000 0.750000
vt 0.625000 0.750000
vt 0.625000 1.000000
vt 0.625000 1.000000
vt 0.625000 0.750000
vt 0.625000 0.500000
vt 0.625000 0.500000
vt 0.625000 0.250000
vt 0.625000 0.500000
vt 0.625000 0.000000
vt 0.000000 0.000000
vn 0.0000 -1.0000 -0.0000
vn -0.7580 0.5717 0.3140
vn 0.2965 0.3920 0.8709
vn -0.2965 0.3920 -0.8709
vn 0.0593 0.3920 0.9181
vn 0.4061 0.3920 -0.8255
vn -0.0593 0.3920 -0.9181
vn -0.4061 0.3920 0.8255
vn 0.6072 0.3920 -0.6911
vn -0.6072 0.3920 0.6911
vn 0.8709 0.3920 -0.2965
vn -0.8709 0.3920 0.2965
vn 0.9181 0.3920 -0.0593
vn -0.9181 0.3920 0.0593
vn 0.8255 0.3920 0.4061
vn -0.8255 0.3920 -0.4061
vn 0.6911 0.3920 0.6072
vn -0.6911 0.3920 -0.6072
vn 0.0399 0.9961 -0.0789
vn 0.0576 0.9961 -0.0671
vn 0.0841 0.9961 -0.0276
vn 0.0882 0.9961 -0.0067
vn 0.0789 0.9961 0.0399
vn 0.0671 0.9961 0.0576
vn 0.0276 0.9961 0.0841
vn 0.0067 0.9961 0.0882
vn -0.0399 0.9961 0.0789
vn -0.0576 0.9961 0.0671
vn -0.0841 0.9961 0.0276
vn -0.0882 0.9961 0.0067
vn -0.0789 0.9961 -0.0399
vn -0.0671 0.9961 -0.0576
vn -0.0276 0.9961 -0.0841
vn -0.0067 0.9961 -0.0882
vn 0.8205 0.5717 0.0000
vn -0.8205 0.5717 -0.0000
vn 0.7580 0.5717 0.3140
vn -0.7580 0.5717 -0.3140
vn 0.5802 0.5717 0.5802
vn -0.5802 0.5717 -0.5802
vn 0.3140 0.5717 0.7580
vn -0.3140 0.5717 -0.7580
vn 0.0000 0.5717 0.8205
vn 0.3140 0.5717 -0.7580
vn 0.0000 0.5717 -0.8205
vn -0.3140 0.5717 0.7580
vn 0.5802 0.5717 -0.5802
vn -0.5802 0.5717 0.5802
vn 0.7580 0.5717 -0.3140
vn -0.0964 -0.9678 0.2327
vn -0.1781 -0.9678 0.1781
vn -0.2327 -0.9678 0.0964
vn -0.2518 -0.9678 0.0000
vn -0.2327 -0.9678 -0.0964
vn -0.1781 -0.9678 -0.1781
vn -0.0964 -0.9678 -0.2327
vn 0.0000 -0.9678 -0.2518
vn 0.0964 -0.9678 -0.2327
vn 0.1781 -0.9678 -0.1781
vn 0.2327 -0.9678 -0.0964
vn 0.2518 -0.9678 0.0000
vn 0.2327 -0.9678 0.0964
vn 0.1781 -0.9678 0.1781
vn 0.0964 -0.9678 0.2327
vn -0.0000 -0.9678 0.2518
vn -0.3782 -0.1531 0.9130
vn -0.6988 -0.1531 0.6988
vn -0.9130 -0.1531 0.3782
vn -0.9882 -0.1531 0.0000
vn -0.9130 -0.1531 -0.3782
vn -0.6988 -0.1531 -0.6988
vn -0.3782 -0.1531 -0.9130
vn 0.0000 -0.1531 -0.9882
vn 0.3782 -0.1531 -0.9130
vn 0.6988 -0.1531 -0.6988
vn 0.9130 -0.1531 -0.3782
vn 0.9882 -0.1531 0.0000
vn 0.9130 -0.1531 0.3782
vn 0.6988 -0.1531 0.6988
vn 0.3782 -0.1531 0.9130
vn -0.0000 -0.1531 0.9882
vn 0.0000 0.0000 0.0000
vn 0.0000 0.0000 1.0000
vn -0.9628 0.2703 0.0000
vn -0.0000 0.0000 -1.0000
vn 0.9999 -0.0127 0.0000
vn 0.6630 -0.7487 0.0000
vn -0.6051 0.7962 0.0000
vn -0.9628 -0.2703 0.0000
vn 0.9999 0.0127 0.0000
vn 0.6630 0.7487 -0.0000
vn -0.6051 -0.7962 -0.0000
vn 0.0000 1.0000 0.0000
vn 1.0000 0.0000 0.0000
vn -1.0000 0.0000 0.0000
usemtl can
s off
f 50/66/51 51/67/51 52/68/51 53/69/51 54/70/51 55/71/51 56/72/51 57/73/51 58/74/51 59/75/51 60/76/51 61/77/51 62/78/51 63/79/51 64/80/51 49/81/51
f 76/82/52 75/83/52 107/84/52 108/85/52
f 120/86/53 119/87/53 87/88/53 88/89/53
f 128/90/54 127/91/54 95/92/54 96/93/54
f 121/94/55 120/86/55 88/89/55 89/95/55
f 113/96/56 114/97/56 82/98/56 81/99/56
f 114/97/57 128/90/57 96/93/57 82/98/57
f 122/100/58 121/94/58 89/95/58 90/101/58
f 115/102/59 113/96/59 81/99/59 83/103/59
f 123/104/60 122/100/60 90/101/60 91/105/60
f 116/106/61 115/102/61 83/103/61 84/107/61
f 124/108/62 123/104/62 91/105/62 92/109/62
f 117/110/63 116/106/63 84/107/63 85/111/63
f 125/112/64 124/108/64 92/109/64 93/113/64
f 118/114/65 117/110/65 85/111/65 86/115/65
f 126/116/66 125/112/66 93/113/66 94/117/66
f 119/87/67 118/114/67 86/115/67 87/88/67
f 127/91/68 126/116/68 94/117/68 95/92/68
f 66/118/69 65/119/69 81/99/69 82/98/69
f 65/119/70 67/120/70 83/103/70 81/99/70
f 67/120/71 68/121/71 84/107/71 83/103/71
f 68/121/72 69/122/72 85/111/72 84/107/72
f 69/122/73 70/123/73 86/115/73 85/111/73
f 70/123/74 71/124/74 87/88/74 86/115/74
f 71/124/75 72/125/75 88/89/75 87/88/75
f 72/125/76 73/126/76 89/95/76 88/89/76
f 73/126/77 74/127/77 90/101/77 89/95/77
f 74/127/78 75/83/78 91/105/78 90/101/78
f 75/83/79 76/82/79 92/109/79 91/105/79
f 76/82/80 77/128/80 93/113/80 92/109/80
f 77/128/81 78/129/81 94/117/81 93/113/81
f 78/129/82 79/130/82 95/92/82 94/117/82
f 79/130/83 80/131/83 96/93/83 95/92/83
f 80/131/84 66/118/84 82/98/84 96/93/84
f 69/122/85 68/121/85 100/132/85 101/133/85
f 77/128/86 76/82/86 108/85/86 109/134/86
f 70/123/87 69/122/87 101/133/87 102/135/87
f 78/129/88 77/128/88 109/134/88 110/136/88
f 71/124/89 70/123/89 102/135/89 103/137/89
f 79/130/90 78/129/90 110/136/90 111/138/90
f 72/125/91 71/124/91 103/137/91 104/139/91
f 80/131/92 79/130/92 111/138/92 112/140/92
f 73/126/93 72/125/93 104/139/93 105/141/93
f 65/119/94 66/118/94 98/142/94 97/143/94
f 66/118/95 80/131/95 112/140/95 98/142/95
f 74/127/96 73/126/96 105/141/96 106/144/96
f 67/120/97 65/119/97 97/143/97 99/145/97
f 75/83/98 74/127/98 106/144/98 107/84/98
f 68/121/99 67/120/99 99/145/99 100/132/99
f 129/146/100 130/147/100 114/97/100 113/96/100
f 131/148/101 129/146/101 113/96/101 115/102/101
f 132/149/102 131/148/102 115/102/102 116/106/102
f 133/150/103 132/149/103 116/106/103 117/110/103
f 134/151/104 133/150/104 117/110/104 118/114/104
f 135/152/105 134/151/105 118/114/105 119/87/105
f 136/153/106 135/152/106 119/87/106 120/86/106
f 137/154/107 136/153/107 120/86/107 121/94/107
f 138/155/108 137/154/108 121/94/108 122/100/108
f 139/156/109 138/155/109 122/100/109 123/104/109
f 140/157/110 139/156/110 123/104/110 124/108/110
f 141/158/111 140/157/111 124/108/111 125/112/111
f 142/159/112 141/158/112 125/112/112 126/116/112
f 143/160/113 142/159/113 126/116/113 127/91/113
f 144/161/114 143/160/114 127/91/114 128/90/114
f 130/147/115 144/161/115 128/90/115 114/97/115
f 50/66/116 49/81/116 130/147/116 129/146/116
f 51/67/117 50/66/117 129/146/117 131/148/117
f 52/68/118 51/67/118 131/148/118 132/149/118
f 53/69/119 52/68/119 132/149/119 133/150/119
f 54/70/120 53/69/120 133/150/120 134/151/120
f 55/71/121 54/70/121 134/151/121 135/152/121
f 56/72/122 55/71/122 135/152/122 136/153/122
f 57/73/123 56/72/123 136/153/123 137/154/123
f 58/74/124 57/73/124 137/154/124 138/155/124
f 59/75/125 58/74/125 138/155/125 139/156/125
f 60/76/126 59/75/126 139/156/126 140/157/126
f 61/77/127 60/76/127 140/157/127 141/158/127
f 62/78/128 61/77/128 141/158/128 142/159/128
f 63/79/129 62/78/129 142/159/129 143/160/129
f 64/80/130 63/79/130 143/160/130 144/161/130
f 49/81/131 64/80/131 144/161/131 130/147/131
f 149/162/132 150/163/132 156/164/132 157/165/132
f 148/166/132 147/167/132 154/168/132 155/169/132
f 151/170/133 149/162/133 157/165/133 159/171/133
f 147/167/133 146/172/133 152/173/133 154/168/133
f 146/172/132 145/174/132 153/175/132 152/173/132
f 145/176/133 148/166/133 155/169/133 153/177/133
f 161/178/134 160/179/134 164/180/134 165/181/134
f 164/182/133 166/183/133 170/184/133 168/185/133
f 160/186/133 162/187/133 166/183/133 164/182/133
f 163/188/135 161/178/135 165/181/135 167/189/135
f 162/187/136 163/188/136 167/189/136 166/183/136
f 167/189/135 165/181/135 169/190/135 171/191/135
f 166/183/137 167/189/137 171/191/137 170/184/137
f 165/181/138 164/180/138 168/192/138 169/190/138
f 173/193/139 172/194/139 176/195/139 177/196/139
f 176/197/135 178/198/135 182/199/135 180/200/135
f 172/201/135 174/202/135 178/198/135 176/197/135
f 175/203/133 173/193/133 177/196/133 179/204/133
f 174/202/140 175/203/140 179/204/140 178/198/140
f 179/204/133 177/196/133 181/205/133 183/206/133
f 178/198/141 179/204/141 183/206/141 182/199/141
f 177/196/142 176/195/142 180/207/142 181/205/142
f 171/191/135 169/190/135 181/205/135 183/206/135
f 169/190/143 168/192/143 180/207/143 181/205/143
f 168/192/133 170/184/133 182/199/133 180/207/133
f 170/184/51 171/191/51 183/206/51 182/199/51
f 174/202/135 172/201/135 149/162/135 151/170/135
f 174/202/144 159/171/144 158/208/144 175/203/144
f 158/208/133 156/164/133 173/193/133 175/203/133
f 150/163/145 149/162/145 172/201/145 173/193/145
f 152/173/145 153/175/145 160/179/145 161/178/145
f 153/175/133 155/169/133 162/187/133 160/179/133
f 155/169/144 154/168/144 163/188/144 162/187/144
f 154/168/135 152/173/135 161/178/135 163/188/135
f 97/143/143 98/142/143 112/140/143 111/138/143 110/136/143 109/134/143 108/85/143 107/84/143 106/144/143 105/141/143 104/139/143 103/137/143 102/135/143 101/133/143 100/132/143 99/145/143
