# Blender v2.91.0 OBJ File: ''
# www.blender.org
mtllib 2.mtl
o Mesh_11.003_Mesh_11.1380
v -0.121836 0.248934 -0.190393
v 0.053915 0.578339 -0.183498
v 0.139292 -0.006567 -0.202882
v -0.220332 -0.006028 -0.129462
v -0.206022 0.579915 -0.052625
v 0.226482 -0.003408 0.097510
v 0.062719 0.000371 0.245974
v -0.164095 -0.006607 0.191124
v -0.018502 0.579969 0.188202
v 0.184030 0.579625 0.015598
v 0.140231 2.395795 -0.409960
v -0.163858 2.398403 -0.258189
v -0.371257 2.404377 -0.269817
v -0.068151 2.459483 -0.461685
v 0.351701 2.459963 -0.315015
v -0.001210 3.630682 -0.007038
v 0.443375 2.410551 0.102659
v 0.264281 2.406257 0.356583
v 0.232948 2.397495 -0.179862
v 0.234808 2.397042 0.153535
v 0.565295 1.648706 -0.287300
v 0.564747 1.549725 0.227364
v 0.377445 1.610937 0.481297
v -0.073607 2.397495 0.277165
v -0.201743 2.396884 0.381035
v -0.005068 2.459643 0.456491
v -0.381908 2.460019 0.268563
v -0.452836 2.446182 -0.076223
v -0.274201 2.396777 0.055621
v -0.582008 1.644238 0.188046
v -0.583710 1.619790 -0.238088
v -0.309456 1.644238 -0.534704
v -0.497894 1.537240 0.310778
v -0.544606 1.535326 -0.175801
v -0.330954 1.618244 0.526849
v 0.055596 1.551232 0.603946
v 0.275331 1.530631 0.320912
v 0.763614 0.626677 -0.030398
v 0.588395 0.555049 0.451386
v 0.411293 1.530538 -0.066399
v 0.497251 0.595356 -0.585682
v 0.112193 0.553996 -0.712478
v -0.097516 0.624479 -0.764567
v -0.448485 0.554330 0.532461
v -0.707829 0.577140 0.255400
v -0.726404 0.561037 -0.189549
v -0.521631 0.552349 -0.540455
v 0.056344 1.531816 -0.437875
v 0.523331 1.533723 -0.273461
v -0.134928 1.539537 -0.581033
v 0.107419 1.619790 -0.623070
v -0.345982 1.530328 -0.244836
v -0.401452 1.530539 0.112446
v -0.476310 0.656197 0.571012
v -0.121028 0.616167 0.737887
v 0.272061 0.554811 0.690570
v 0.703230 0.553687 -0.056870
v -0.117753 1.529559 0.394189
vn -0.0180 0.0305 -0.9994
vn -0.7108 0.1085 -0.6950
vn -0.0107 -0.9998 0.0136
vn 0.0326 -0.9994 -0.0075
vn 0.0017 -0.9999 0.0157
vn 0.0009 1.0000 -0.0009
vn 0.0021 1.0000 -0.0078
vn -0.4342 0.2498 -0.8655
vn 0.6400 0.1645 0.7506
vn -0.7739 0.1951 0.6025
vn -0.2364 0.0635 0.9696
vn 0.8286 0.1389 -0.5424
vn 0.6658 0.1511 0.7306
vn -0.9850 0.0014 0.1728
vn 0.9598 0.0307 -0.2789
vn -0.1978 -0.1549 -0.9679
vn -0.0267 -0.9990 -0.0364
vn 0.3146 0.2971 -0.9015
vn 0.9312 0.3244 -0.1660
vn 0.7695 0.3277 0.5482
vn 0.7694 0.3277 0.5483
vn 0.7695 0.3276 0.5483
vn 0.1128 -0.9929 -0.0381
vn 0.0435 -0.9990 0.0138
vn 0.3176 -0.9482 -0.0031
vn 0.9138 0.4062 -0.0045
vn 0.9273 0.3673 0.0716
vn 0.7918 0.3518 0.4992
vn 0.3392 0.4138 0.8448
vn -0.0076 -0.9999 -0.0152
vn 0.0223 -0.9989 0.0421
vn -0.4246 0.3062 0.8520
vn 0.0462 -0.8239 0.5648
vn -0.9231 0.3417 0.1762
vn -0.8365 0.3439 -0.4267
vn -0.2983 -0.9521 0.0667
vn 0.0043 -1.0000 -0.0006
vn -0.9265 0.3758 -0.0179
vn -0.8443 0.4477 -0.2946
vn -0.0279 -0.9995 -0.0150
vn -0.6993 0.3612 -0.6168
vn -0.9275 -0.3627 0.0905
vn -0.8059 -0.5909 0.0371
vn -0.8001 0.0560 0.5972
vn -0.2438 -0.8311 0.4999
vn 0.1171 -0.9798 0.1622
vn 0.8709 0.3284 0.3656
vn 0.8818 0.3560 0.3094
vn 0.8490 0.3140 -0.4250
vn 0.2914 0.1717 -0.9411
vn -0.1313 -0.9905 0.0413
vn -0.4826 0.3680 -0.7948
vn 0.2890 0.2805 -0.9153
vn 0.6601 0.4101 -0.6293
vn 0.0080 -0.9999 -0.0111
vn 0.2067 -0.8643 -0.4586
vn -0.0135 -0.9993 -0.0359
vn -0.0442 -0.9975 -0.0551
vn 0.0433 -0.9928 -0.1113
vn -0.0512 -0.9986 0.0088
vn -0.0264 -0.9996 -0.0035
vn -0.8221 0.2949 -0.4870
vn -0.9240 0.3544 -0.1437
vn -0.9504 0.3097 0.0285
vn -0.7983 0.3319 0.5025
vn -0.6812 -0.4145 0.6035
vn -0.4242 -0.4196 0.8025
vn -0.0909 -0.9043 0.4172
vn 0.7292 -0.6637 0.1665
vn 0.1498 -0.9794 -0.1355
vn 0.0030 -1.0000 0.0016
vn -0.0351 -0.9994 0.0042
vn 0.0034 -1.0000 0.0034
vn 0.0003 -1.0000 0.0017
vn -0.0005 -1.0000 0.0000
vn 0.7808 -0.5208 -0.3452
vn 0.1653 0.3468 0.9233
vn 0.1708 0.3485 0.9216
vn 0.0190 -0.9960 0.0872
vn -0.3710 0.3282 0.8687
vn -0.6460 0.3972 0.6519
vn -0.0249 -0.9995 0.0216
vn -0.0517 -0.9881 0.1449
vn 0.5775 0.2875 0.7641
vn -0.5322 -0.6481 -0.5448
vn -0.2010 0.0963 -0.9748
vn 0.5761 -0.3017 -0.7597
vn 0.9347 -0.3491 -0.0661
vn -0.7232 0.3954 0.5662
vn -0.6742 0.4178 0.6091
vn -0.1268 0.3404 0.9317
vn 0.3232 -0.8377 0.4403
vn 0.0756 -0.9968 0.0256
vn 0.2663 0.3823 0.8848
vn 0.5396 0.3494 -0.7660
vn -0.0041 -1.0000 0.0090
vn 0.1723 0.4666 -0.8675
vn -0.1721 0.3682 -0.9137
vn -0.5328 -0.6466 -0.5459
vn -0.4093 0.3306 -0.8504
vn 0.0743 -0.9969 0.0263
vn -0.3929 -0.9120 0.1174
vn -0.3156 -0.9462 0.0713
vn -0.5470 0.3299 -0.7694
vn -0.1457 -0.8657 -0.4789
vn 0.3112 0.3284 -0.8918
vn 0.3613 -0.9134 -0.1874
vn 0.0106 0.3660 0.9306
vn -0.1052 0.3645 0.9252
vn -0.4206 0.3334 0.8438
vn 0.3855 0.3367 0.8591
vn -0.1445 -0.8290 -0.5402
usemtl Trunk.003
s off
f 1//1 2//1 3//1
f 4//2 5//2 1//2
f 3//3 6//3 7//3
f 7//4 8//4 4//4
f 3//5 7//5 4//5
f 5//6 9//6 10//6
f 5//7 10//7 2//7
f 1//8 5//8 2//8
f 7//9 10//9 9//9
f 8//10 9//10 5//10
f 8//11 7//11 9//11
f 3//12 2//12 10//12
f 7//13 6//13 10//13
f 8//14 5//14 4//14
f 3//15 10//15 6//15
f 4//16 1//16 3//16
usemtl Leaves.003
f 11//17 12//17 13//17
f 11//18 14//18 15//18
f 15//19 16//19 17//19
f 17//20 16//21 18//22
f 11//23 17//23 19//23
f 19//24 17//24 18//24
f 20//25 19//25 18//25
f 21//26 19//26 20//26
f 21//27 20//27 22//27
f 22//28 20//28 23//28
f 23//29 20//29 24//29
f 25//30 24//30 20//30
f 20//31 18//31 25//31
f 25//32 26//32 27//32
f 18//33 26//33 25//33
f 27//34 16//34 28//34
f 28//35 16//35 13//35
f 29//36 25//36 13//36
f 29//37 24//37 25//37
f 30//38 29//38 31//38
f 31//39 29//39 12//39
f 12//40 29//40 13//40
f 31//41 12//41 32//41
f 33//42 31//42 34//42
f 33//43 30//43 31//43
f 33//44 35//44 30//44
f 36//45 35//45 33//45
f 22//46 36//46 37//46
f 38//47 37//47 39//47
f 38//48 40//48 37//48
f 41//49 40//49 38//49
f 42//50 43//50 41//50
f 44//51 45//51 46//51
f 47//52 48//52 43//52
f 43//53 48//53 41//53
f 41//54 48//54 40//54
f 49//55 40//55 48//55
f 50//56 51//56 49//56
f 50//57 48//57 52//57
f 50//58 52//58 34//58
f 50//59 49//59 48//59
f 53//60 33//60 34//60
f 52//61 53//61 34//61
f 46//62 52//62 47//62
f 46//63 53//63 52//63
f 45//64 53//64 46//64
f 54//65 53//65 45//65
f 44//66 54//66 45//66
f 55//67 54//67 44//67
f 56//68 55//68 44//68
f 57//69 38//69 39//69
f 42//70 41//70 57//70
f 44//71 47//71 42//71
f 44//72 46//72 47//72
f 57//73 39//73 56//73
f 57//74 56//74 44//74
f 42//75 57//75 44//75
f 41//76 38//76 57//76
f 56//77 58//77 55//77
f 56//78 37//78 58//78
f 36//79 58//79 37//79
f 55//80 58//80 54//80
f 54//81 58//81 53//81
f 58//82 33//82 53//82
f 36//83 33//83 58//83
f 39//84 37//84 56//84
f 34//85 31//85 50//85
f 50//86 32//86 51//86
f 51//87 21//87 49//87
f 49//88 21//88 22//88
f 35//89 29//89 30//89
f 35//90 24//90 29//90
f 36//91 24//91 35//91
f 22//92 23//92 36//92
f 40//93 49//93 22//93
f 23//94 24//94 36//94
f 51//95 19//95 21//95
f 11//96 19//96 12//96
f 51//97 12//97 19//97
f 32//98 12//98 51//98
f 31//99 32//99 50//99
f 47//100 52//100 48//100
f 37//101 40//101 22//101
f 25//102 27//102 28//102
f 25//103 28//103 13//103
f 13//104 16//104 14//104
f 13//105 14//105 11//105
s 1
f 14//106 16//106 15//106
f 11//107 15//107 17//107
f 26//108 16//109 27//110
f 18//111 16//109 26//108
f 47//112 43//112 42//112
