# Blender v2.91.0 OBJ File: ''
# www.blender.org
mtllib fence_end.mtl
o g_Text.001_CUText.076
v -0.177342 0.964343 0.084973
v -0.193432 0.891655 -0.112047
v -0.169649 0.863550 0.088110
v 0.010957 0.964343 -0.097709
v 0.027048 0.891656 0.099310
v 0.003264 0.863550 -0.100846
v -0.169447 0.080011 -0.100442
v 0.012836 0.035076 -0.098878
v -0.185086 -0.003440 -0.108261
v 0.003061 0.080011 0.087705
v -0.179221 0.035076 0.086141
v 0.018700 -0.003440 0.095525
v -3.085017 0.035076 -0.098878
v -4.888231 0.863550 -0.100845
v -1.780806 0.035076 -0.098878
vt 0.795679 0.218959
vt 0.785013 0.227073
vt 0.780203 0.218959
vt 0.795679 0.218959
vt 0.785013 0.227073
vt 0.780203 0.218959
vt 0.884546 0.217006
vt 0.876322 0.228856
vt 0.869070 0.217006
vt 0.884546 0.217006
vt 0.876322 0.228856
vt 0.869070 0.217006
vt 0.780203 0.234435
vt 0.780203 0.227905
vt 0.795679 0.225938
vt 0.795679 0.234435
vt 0.780203 0.234435
vt 0.780203 0.218959
vt 0.795679 0.226697
vt 0.785013 0.218959
vt 0.780203 0.226697
vt 0.785013 0.218959
vt 0.795679 0.225938
vt 0.780203 0.226697
vt 0.780203 0.234435
vt 0.780203 0.218959
vt 0.795679 0.226697
vt 0.795679 0.234435
vt 0.869070 0.232482
vt 0.884546 0.232482
vt 0.884546 0.232482
vt 0.876322 0.217006
vt 0.884546 0.224744
vt 0.869070 0.232482
vt 0.876322 0.217006
vt 0.884546 0.224744
vt 0.780203 0.234435
vt 0.780203 0.218959
vt 0.795679 0.226697
vt 0.795679 0.234435
vt 0.780203 0.234435
vt 0.780203 0.218959
vt 0.795679 0.226697
vt 0.795679 0.234435
vn -0.9916 -0.0723 0.1077
vn 0.9916 -0.0723 -0.1077
vn 0.0301 0.0876 -0.9957
vn -0.0302 0.0877 0.9957
vn -0.0000 1.0000 -0.0000
vn 0.9994 -0.0086 -0.0346
vn -0.0606 0.0264 0.9978
vn 0.0606 0.0264 -0.9978
vn 0.0322 -0.0076 -0.9995
vn -0.0000 -1.0000 -0.0000
vn 0.9827 0.1848 0.0070
vn -0.9827 0.1848 -0.0070
vn -0.0322 -0.0076 0.9995
vn -0.9994 -0.0086 0.0346
usemtl M7
s 1
f 1/1/1 2/2/1 3/3/1
f 4/4/2 5/5/2 6/6/2
f 7/7/3 8/8/3 9/9/3
f 10/10/4 11/11/4 12/12/4
f 4/13/5 2/14/5 1/15/5 5/16/5
f 10/17/6 8/18/6 6/19/6 5/16/6
f 5/20/7 1/15/7 3/21/7
f 2/22/8 4/23/8 6/24/8
f 8/25/9 7/26/9 2/27/9 6/28/9
f 9/29/10 8/8/10 12/30/10 11/31/10
f 8/32/11 10/33/11 12/34/11
f 11/35/12 7/36/12 9/29/12
f 11/37/13 10/38/13 5/39/13 3/40/13
f 7/41/14 11/42/14 3/43/14 2/44/14
