# Blender v2.91.0 OBJ File: 'truck.blend'
# www.blender.org
mtllib trash_dumpster.mtl
o Cube
v -0.993424 -0.002273 0.500206
v -0.993424 0.760518 0.500206
v -0.993424 -0.002273 -0.499794
v -0.993424 0.910677 -0.499794
v 0.993331 -0.002273 0.500206
v 0.993331 0.760518 0.500206
v 0.993331 -0.002273 -0.499794
v 0.993331 0.910677 -0.499794
v -0.878719 0.049763 0.442471
v -0.846596 0.760518 0.432843
v -0.878719 0.049763 -0.442059
v -0.860280 0.899006 -0.425576
v 0.878626 0.049763 0.442471
v 0.846503 0.760518 0.432843
v 0.878626 0.049763 -0.442059
v 0.860188 0.899006 -0.425576
v -0.042534 -0.002273 0.500206
v -0.042534 0.760518 0.500206
v -0.042534 -0.002273 0.480529
v -0.042534 0.760518 0.480529
v 0.042441 -0.002273 0.480529
v 0.042441 0.760518 0.480529
v 0.042441 -0.002273 0.500206
v 0.042441 0.760518 0.500206
v 0.457466 -0.002273 0.500206
v 0.457466 0.760518 0.500206
v 0.457466 -0.002273 0.480529
v 0.457466 0.760518 0.480529
v 0.542441 -0.002273 0.480529
v 0.542441 0.760518 0.480529
v 0.542441 -0.002273 0.500206
v 0.542441 0.760518 0.500206
v -0.542534 -0.002273 0.500206
v -0.542534 0.760518 0.500206
v -0.542534 -0.002273 0.480528
v -0.542534 0.760518 0.480528
v -0.457559 -0.002273 0.480528
v -0.457559 0.760518 0.480528
v -0.457559 -0.002273 0.500206
v -0.457559 0.760518 0.500206
v 0.990851 0.469337 0.175984
v 0.990851 0.499529 0.179312
v 0.990851 0.476605 0.110042
v 1.051601 0.476605 0.110042
v 0.990851 0.506798 0.113370
v 1.051601 0.506798 0.113370
v 1.021226 0.469337 0.175984
v 1.021226 0.499529 0.179312
v 1.021226 0.506798 0.113370
v 1.021226 0.476605 0.110042
v 1.051601 0.506798 0.113370
v 1.051601 0.476605 0.110042
v 1.021226 0.506798 0.113370
v 1.021226 0.476605 0.110042
v 0.990851 0.510305 -0.195682
v 0.990851 0.540497 -0.192354
v 0.990851 0.503036 -0.129740
v 1.051601 0.503036 -0.129740
v 0.990851 0.533228 -0.126412
v 1.051601 0.533228 -0.126412
v 1.021226 0.510305 -0.195682
v 1.021226 0.540497 -0.192354
v 1.021226 0.533228 -0.126412
v 1.021226 0.503036 -0.129740
v 1.051601 0.533228 -0.126412
v 1.051601 0.503036 -0.129740
v 1.021226 0.533228 -0.126412
v 1.021226 0.503036 -0.129740
v 1.051601 0.471154 0.159498
v 1.044008 0.469337 0.175984
v 1.049377 0.469869 0.171156
v 1.044008 0.499529 0.179312
v 1.051601 0.501346 0.162827
v 1.049377 0.500061 0.174484
v 1.044008 0.510305 -0.195682
v 1.051601 0.508488 -0.179197
v 1.047804 0.510061 -0.193474
v 1.050584 0.509396 -0.187440
v 1.051601 0.538680 -0.175869
v 1.044008 0.540497 -0.192354
v 1.050584 0.539588 -0.184112
v 1.047804 0.540253 -0.190146
v -0.990851 0.469337 0.175984
v -0.990851 0.499529 0.179312
v -0.990851 0.476606 0.110042
v -1.051601 0.476606 0.110042
v -0.990851 0.506798 0.113370
v -1.051601 0.506798 0.113370
v -1.021226 0.469337 0.175984
v -1.021226 0.499529 0.179312
v -1.021226 0.506798 0.113370
v -1.021226 0.476606 0.110042
v -1.051601 0.506798 0.113370
v -1.051601 0.476606 0.110042
v -1.021226 0.506798 0.113370
v -1.021226 0.476606 0.110042
v -0.990851 0.510305 -0.195682
v -0.990851 0.540497 -0.192354
v -0.990851 0.503036 -0.129740
v -1.051601 0.503036 -0.129740
v -0.990851 0.533228 -0.126412
v -1.051601 0.533228 -0.126412
v -1.021226 0.510305 -0.195682
v -1.021226 0.540497 -0.192354
v -1.021226 0.533228 -0.126412
v -1.021226 0.503036 -0.129740
v -1.051601 0.533228 -0.126412
v -1.051601 0.503036 -0.129740
v -1.021226 0.533228 -0.126412
v -1.021226 0.503036 -0.129740
v -1.051601 0.471154 0.159499
v -1.044007 0.469337 0.175984
v -1.049377 0.469869 0.171156
v -1.044007 0.499529 0.179312
v -1.051601 0.501346 0.162827
v -1.049377 0.500061 0.174484
v -1.044007 0.510305 -0.195682
v -1.051601 0.508488 -0.179197
v -1.047804 0.510061 -0.193474
v -1.050584 0.509396 -0.187440
v -1.051601 0.538680 -0.175869
v -1.044007 0.540497 -0.192354
v -1.050584 0.539588 -0.184112
v -1.047804 0.540254 -0.190146
vt 0.375000 0.000000
vt 0.625000 0.000000
vt 0.625000 0.250000
vt 0.375000 0.250000
vt 0.625000 0.500000
vt 0.375000 0.500000
vt 0.625000 0.750000
vt 0.375000 0.750000
vt 0.375000 0.000000
vt 0.375000 0.250000
vt 0.625000 0.250000
vt 0.625000 0.000000
vt 0.375000 0.500000
vt 0.625000 0.500000
vt 0.375000 0.750000
vt 0.625000 0.750000
vt 0.375000 1.000000
vt 0.625000 1.000000
vt 0.125000 0.500000
vt 0.125000 0.750000
vt 0.464749 0.250000
vt 0.562171 0.250000
vt 0.562171 0.134218
vt 0.464749 0.134218
vt 0.464749 0.500000
vt 0.562171 0.500000
vt 0.562171 0.615782
vt 0.464749 0.615782
vt 0.464749 0.250000
vt 0.562171 0.250000
vt 0.562171 0.134218
vt 0.464749 0.134218
vt 0.464749 0.500000
vt 0.562171 0.500000
vt 0.562171 0.615782
vt 0.464749 0.615782
vt 0.625000 0.806737
vt 0.375000 0.806737
vt 0.625000 0.869654
vt 0.375000 0.869654
vt 0.375000 0.817430
vt 0.625000 0.817430
vt 0.464749 0.250000
vt 0.562171 0.250000
vt 0.562171 0.134213
vt 0.464749 0.134213
vt 0.464749 0.500000
vt 0.562171 0.500000
vt 0.562171 0.615787
vt 0.464749 0.615787
vt 0.625000 1.000000
vt 0.375000 1.000000
vt 0.375000 0.943263
vt 0.625000 0.943263
vt 0.375000 0.932570
vt 0.375000 0.880346
vt 0.625000 0.880346
vt 0.625000 0.932570
vt 0.307570 0.745081
vt 0.307570 0.750000
vt 0.255346 0.750000
vt 0.255346 0.745081
vt 0.244654 0.745081
vt 0.244654 0.750000
vt 0.192430 0.750000
vt 0.192430 0.745081
vt 0.181737 0.745080
vt 0.181737 0.750000
vt 0.125000 0.750000
vt 0.125000 0.500000
vt 0.318263 0.750000
vt 0.318263 0.745081
vt 0.625000 0.946694
vt 0.625000 0.935468
vt 0.625000 0.880616
vt 0.625000 0.869384
vt 0.625000 0.814532
vt 0.625000 0.803306
vt 0.625000 0.937500
vt 0.625000 0.750000
vt 0.625000 0.500000
vt 0.625000 0.312500
vt 0.500000 0.500000
vt 0.625000 0.500000
vt 0.500000 0.500000
vt 0.500000 0.000000
vt 0.593750 0.000000
vt 0.593750 0.250000
vt 0.500000 0.250000
vt 0.125000 0.500000
vt 0.375000 0.500000
vt 0.375000 0.750000
vt 0.125000 0.750000
vt 0.615847 0.268306
vt 0.500000 0.750000
vt 0.500000 1.000000
vt 0.375000 1.000000
vt 0.375000 0.250000
vt 0.375000 0.000000
vt 0.625000 0.750000
vt 0.500000 0.750000
vt 0.625000 0.937500
vt 0.625000 0.312500
vt 0.625000 0.500000
vt 0.625000 0.750000
vt 0.500000 0.500000
vt 0.500000 0.500000
vt 0.625000 0.500000
vt 0.500000 0.000000
vt 0.500000 0.250000
vt 0.593750 0.250000
vt 0.593750 0.000000
vt 0.125000 0.500000
vt 0.125000 0.750000
vt 0.375000 0.750000
vt 0.375000 0.500000
vt 0.620813 0.281250
vt 0.609375 0.258373
vt 0.375000 1.000000
vt 0.500000 1.000000
vt 0.500000 0.750000
vt 0.375000 0.250000
vt 0.375000 0.000000
vt 0.625000 0.750000
vt 0.500000 0.750000
vt 0.625000 0.250000
vt 0.625000 1.000000
vt 0.625000 0.000000
vt 0.615847 0.981694
vt 0.593750 1.000000
vt 0.609375 0.250000
vt 0.609375 0.000000
vt 0.625000 0.250000
vt 0.625000 0.000000
vt 0.625000 0.968750
vt 0.625000 0.281250
vt 0.593750 1.000000
vt 0.609375 0.991627
vt 0.620813 0.968750
vt 0.625000 0.937500
vt 0.625000 0.312500
vt 0.625000 0.500000
vt 0.625000 0.750000
vt 0.500000 0.500000
vt 0.500000 0.500000
vt 0.625000 0.500000
vt 0.500000 0.000000
vt 0.500000 0.250000
vt 0.593750 0.250000
vt 0.593750 0.000000
vt 0.125000 0.500000
vt 0.125000 0.750000
vt 0.375000 0.750000
vt 0.375000 0.500000
vt 0.615847 0.268306
vt 0.375000 1.000000
vt 0.500000 1.000000
vt 0.500000 0.750000
vt 0.375000 0.250000
vt 0.375000 0.000000
vt 0.625000 0.750000
vt 0.500000 0.750000
vt 0.625000 0.937500
vt 0.625000 0.750000
vt 0.625000 0.500000
vt 0.625000 0.312500
vt 0.500000 0.500000
vt 0.625000 0.500000
vt 0.500000 0.500000
vt 0.500000 0.000000
vt 0.593750 0.000000
vt 0.593750 0.250000
vt 0.500000 0.250000
vt 0.125000 0.500000
vt 0.375000 0.500000
vt 0.375000 0.750000
vt 0.125000 0.750000
vt 0.609375 0.258373
vt 0.620813 0.281250
vt 0.500000 0.750000
vt 0.500000 1.000000
vt 0.375000 1.000000
vt 0.375000 0.250000
vt 0.375000 0.000000
vt 0.625000 0.750000
vt 0.500000 0.750000
vt 0.625000 1.000000
vt 0.625000 0.250000
vt 0.625000 0.000000
vt 0.593750 1.000000
vt 0.615847 0.981694
vt 0.609375 0.000000
vt 0.609375 0.250000
vt 0.625000 0.000000
vt 0.625000 0.250000
vt 0.625000 0.968750
vt 0.625000 0.281250
vt 0.620813 0.968750
vt 0.609375 0.991627
vt 0.593750 1.000000
vn -1.0000 0.0000 0.0000
vn 0.0000 0.0000 -1.0000
vn 1.0000 0.0000 0.0000
vn 0.9994 -0.0323 -0.0104
vn 0.0000 -0.0194 0.9998
vn -0.9994 -0.0323 -0.0104
vn 0.0000 -0.0135 -0.9999
vn 0.0000 1.0000 0.0000
vn 0.0374 0.9875 0.1531
vn 0.0000 0.9879 0.1554
vn -0.0374 0.9875 0.1531
vn 0.0000 0.0000 1.0000
vn 0.0000 -1.0000 0.0000
vn 0.0000 -0.1096 0.9940
vn 0.0000 0.9940 0.1096
vn 0.0000 -0.9940 -0.1096
vn 0.0000 0.1096 -0.9940
vn 0.9825 -0.0204 0.1852
vn 0.6709 -0.0812 0.7371
vn 0.5051 0.0946 -0.8579
vn 0.9092 0.0456 -0.4138
vn 0.9926 0.0133 -0.1210
vn -0.9825 -0.0204 0.1852
vn -0.6709 -0.0812 0.7371
vn -0.5051 0.0946 -0.8579
vn -0.9092 0.0456 -0.4138
vn -0.9926 0.0133 -0.1210
usemtl Dumpster
s off
f 1/1/1 2/2/1 4/3/1 3/4/1
f 3/4/2 4/3/2 8/5/2 7/6/2
f 7/6/3 8/5/3 6/7/3 5/8/3
f 9/9/4 11/10/4 12/11/4 10/12/4
f 11/10/5 15/13/5 16/14/5 12/11/5
f 15/13/6 13/15/6 14/16/6 16/14/6
f 13/15/7 9/17/7 10/18/7 14/16/7
f 11/19/8 9/20/8 13/15/8 15/13/8
f 4/3/9 2/2/9 10/12/9 12/11/9
f 8/5/10 4/3/10 12/11/10 16/14/10
f 6/7/11 8/5/11 16/14/11 14/16/11
f 19/21/3 20/22/3 18/23/3 17/24/3
f 20/22/12 19/21/12 21/25/12 22/26/12
f 24/27/1 22/26/1 21/25/1 23/28/1
f 27/29/3 28/30/3 26/31/3 25/32/3
f 28/30/12 27/29/12 29/33/12 30/34/12
f 32/35/1 30/34/1 29/33/1 31/36/1
f 5/8/12 6/7/12 32/37/12 31/38/12
f 24/39/12 23/40/12 25/41/12 26/42/12
f 35/43/3 36/44/3 34/45/3 33/46/3
f 36/44/12 35/43/12 37/47/12 38/48/12
f 40/49/1 38/48/1 37/47/1 39/50/1
f 2/51/12 1/52/12 33/53/12 34/54/12
f 39/55/12 17/56/12 18/57/12 40/58/12
f 27/59/13 25/60/13 23/61/13 21/62/13 19/63/13 17/64/13 39/65/13 37/66/13 35/67/13 33/68/13 1/69/13 3/70/13 7/6/13 5/8/13 31/71/13 29/72/13
f 32/37/8 6/7/8 14/16/8 10/18/8 2/51/8 34/54/8 36/73/8 38/74/8 40/58/8 18/57/8 20/75/8 22/76/8 24/39/8 26/42/8 28/77/8 30/78/8
usemtl Lid
f 69/79/3 44/80/3 46/81/3 73/82/3
f 49/83/12 46/81/12 51/84/12 53/85/12
f 47/86/14 70/87/14 72/88/14 48/89/14
f 42/90/1 45/91/1 43/92/1 41/93/1
f 48/89/15 72/88/15 74/94/15 73/82/15 46/81/15 49/83/15
f 43/92/16 50/95/16 47/96/16 41/97/16
f 45/91/17 49/83/17 50/95/17 43/92/17
f 42/98/15 48/89/15 49/83/15 45/91/15
f 41/99/14 47/86/14 48/89/14 42/98/14
f 46/81/12 44/80/12 52/100/12 51/84/12
f 50/95/12 49/83/12 53/85/12 54/101/12
f 44/80/12 50/95/12 54/101/12 52/100/12
f 76/102/3 79/103/3 60/104/3 58/105/3
f 63/106/12 67/107/12 65/108/12 60/104/12
f 61/109/17 62/110/17 80/111/17 75/112/17
f 56/113/1 55/114/1 57/115/1 59/116/1
f 62/110/15 63/106/15 60/104/15 79/103/15 81/117/15 82/118/15 80/111/15
f 57/115/16 55/119/16 61/120/16 64/121/16
f 59/116/14 57/115/14 64/121/14 63/106/14
f 56/122/15 59/116/15 63/106/15 62/110/15
f 55/123/17 56/122/17 62/110/17 61/109/17
f 60/104/12 65/108/12 66/124/12 58/105/12
f 64/121/12 68/125/12 67/107/12 63/106/12
f 58/105/12 66/124/12 68/125/12 64/121/12
f 52/100/3 66/124/3 65/108/3 51/84/3
f 53/85/15 51/84/15 65/108/15 67/107/15
f 54/101/1 53/85/1 67/107/1 68/125/1
f 54/101/16 68/125/16 66/124/16 52/100/16
f 69/79/18 73/82/18 74/126/18 71/127/18
f 71/128/19 74/126/19 72/88/19 70/87/19
f 50/95/16 44/80/16 69/79/16 71/129/16 70/130/16 47/96/16
f 75/112/20 80/111/20 82/131/20 77/132/20
f 77/132/21 82/131/21 81/133/21 78/134/21
f 78/135/22 81/136/22 79/103/22 76/102/22
f 64/121/16 61/120/16 75/137/16 77/138/16 78/139/16 76/102/16 58/105/16
f 111/140/1 115/141/1 88/142/1 86/143/1
f 91/144/12 95/145/12 93/146/12 88/142/12
f 89/147/14 90/148/14 114/149/14 112/150/14
f 84/151/3 83/152/3 85/153/3 87/154/3
f 90/148/15 91/144/15 88/142/15 115/141/15 116/155/15 114/149/15
f 85/153/16 83/156/16 89/157/16 92/158/16
f 87/154/17 85/153/17 92/158/17 91/144/17
f 84/159/15 87/154/15 91/144/15 90/148/15
f 83/160/14 84/159/14 90/148/14 89/147/14
f 88/142/12 93/146/12 94/161/12 86/143/12
f 92/158/12 96/162/12 95/145/12 91/144/12
f 86/143/12 94/161/12 96/162/12 92/158/12
f 118/163/1 100/164/1 102/165/1 121/166/1
f 105/167/12 102/165/12 107/168/12 109/169/12
f 103/170/17 117/171/17 122/172/17 104/173/17
f 98/174/3 101/175/3 99/176/3 97/177/3
f 104/173/15 122/172/15 124/178/15 123/179/15 121/166/15 102/165/15 105/167/15
f 99/176/16 106/180/16 103/181/16 97/182/16
f 101/175/14 105/167/14 106/180/14 99/176/14
f 98/183/15 104/173/15 105/167/15 101/175/15
f 97/184/17 103/170/17 104/173/17 98/183/17
f 102/165/12 100/164/12 108/185/12 107/168/12
f 106/180/12 105/167/12 109/169/12 110/186/12
f 100/164/12 106/180/12 110/186/12 108/185/12
f 94/161/1 93/146/1 107/168/1 108/185/1
f 95/145/15 109/169/15 107/168/15 93/146/15
f 96/162/3 110/186/3 109/169/3 95/145/3
f 96/162/16 94/161/16 108/185/16 110/186/16
f 111/140/23 113/187/23 116/188/23 115/141/23
f 113/189/24 112/150/24 114/149/24 116/188/24
f 92/158/16 89/157/16 112/190/16 113/191/16 111/140/16 86/143/16
f 117/171/25 119/192/25 124/193/25 122/172/25
f 119/192/26 120/194/26 123/195/26 124/193/26
f 120/196/27 118/163/27 121/166/27 123/197/27
f 106/180/16 100/164/16 118/163/16 120/198/16 119/199/16 117/200/16 103/181/16
o Cube.001_Cube.002
v 0.457513 0.805610 0.487802
v 0.457513 0.958935 -0.485202
v 0.542487 0.805610 0.487802
v 0.542487 0.958935 -0.485202
v -0.042487 0.805610 0.487802
v -0.042487 0.958935 -0.485202
v 0.042487 0.805610 0.487802
v 0.042487 0.958935 -0.485202
v -0.542487 0.805610 0.487802
v -0.542487 0.958935 -0.485202
v -0.457513 0.805610 0.487802
v -0.457513 0.958935 -0.485202
v -0.968663 0.772241 0.507221
v -0.968663 0.919473 -0.495439
v 0.953019 0.772241 0.507221
v 0.953019 0.919473 -0.495439
v -1.044607 0.786817 0.522855
v -1.044607 0.945321 -0.510883
v 1.028963 0.786817 0.522855
v 1.028963 0.945321 -0.510883
v -1.044607 0.752600 0.546285
v -1.044607 0.911324 -0.534633
v 1.028963 0.911324 -0.534633
v 1.028963 0.752600 0.546285
v 0.457513 0.790558 0.498458
v 0.457513 0.943388 -0.498278
v 0.542487 0.943388 -0.498278
v 0.542487 0.790558 0.498458
v -0.042487 0.790558 0.498458
v -0.042487 0.943388 -0.498278
v 0.042487 0.943388 -0.498278
v 0.042487 0.790558 0.498458
v -0.542487 0.790558 0.498458
v -0.542487 0.943388 -0.498278
v -0.457513 0.943388 -0.498278
v -0.457513 0.790558 0.498458
vt 0.464749 0.224277
vt 0.464749 0.134218
vt 0.562171 0.134218
vt 0.562171 0.217044
vt 0.562171 0.532956
vt 0.562171 0.615782
vt 0.464749 0.615782
vt 0.464749 0.525723
vt 0.464749 0.134218
vt 0.562171 0.134218
vt 0.562171 0.217045
vt 0.464749 0.224277
vt 0.562171 0.532955
vt 0.562171 0.615782
vt 0.464749 0.615782
vt 0.464749 0.525723
vt 0.464749 0.134218
vt 0.562171 0.134218
vt 0.562171 0.217045
vt 0.464749 0.224277
vt 0.562171 0.532955
vt 0.562171 0.615782
vt 0.464749 0.615782
vt 0.464749 0.525723
vt 0.000000 0.000000
vt 0.000000 0.000000
vt 0.000000 0.000000
vt 0.000000 0.000000
vt 0.000000 0.000000
vt 0.000000 0.000000
vt 0.000000 0.000000
vt 0.000000 0.000000
vt 0.000000 0.000000
vt 0.000000 0.000000
vt 0.000000 0.000000
vt 0.000000 0.000000
vt 0.000000 0.000000
vt 0.000000 0.000000
vt 0.000000 0.000000
vt 0.000000 0.000000
vt 0.000000 0.000000
vt 0.000000 0.000000
vt 0.000000 0.000000
vt 0.000000 0.000000
vt 0.000000 0.000000
vt 0.000000 0.000000
vt 0.000000 0.000000
vt 0.000000 0.000000
vn -1.0000 -0.0000 0.0000
vn 1.0000 -0.0000 0.0000
vn 0.0000 0.6437 -0.7653
vn 0.0000 0.5778 0.8162
vn 0.0000 0.9878 0.1557
vn 0.0000 -0.9894 -0.1453
vn 0.0000 0.5650 0.8251
vn 0.0000 0.5727 -0.8198
vn 0.0000 0.9884 0.1516
vn 0.1782 -0.9735 -0.1430
vn 0.0000 -0.9791 0.2036
vn -0.1782 -0.9735 -0.1430
vn 0.0000 -0.8934 -0.4492
usemtl Lid
s off
f 149/201/28 125/202/28 126/203/28 150/204/28
f 151/205/29 128/206/29 127/207/29 152/208/29
f 150/204/30 126/203/30 128/206/30 151/205/30
f 152/208/31 127/207/31 125/202/31 149/201/31
f 126/203/32 125/202/32 127/207/32 128/206/32
f 129/209/28 130/210/28 154/211/28 153/212/28
f 155/213/29 132/214/29 131/215/29 156/216/29
f 154/211/30 130/210/30 132/214/30 155/213/30
f 156/216/31 131/215/31 129/209/31 153/212/31
f 130/210/32 129/209/32 131/215/32 132/214/32
f 133/217/28 134/218/28 158/219/28 157/220/28
f 159/221/29 136/222/29 135/223/29 160/224/29
f 158/219/30 134/218/30 136/222/30 159/221/30
f 160/224/31 135/223/31 133/217/31 157/220/31
f 134/218/32 133/217/32 135/223/32 136/222/32
f 137/225/33 138/226/33 140/227/33 139/228/33
f 148/229/34 143/230/34 141/231/34 145/232/34
f 146/233/35 142/234/35 144/235/35 147/236/35
f 147/236/29 144/235/29 143/230/29 148/229/29
f 145/232/28 141/231/28 142/234/28 146/233/28
f 151/237/36 144/235/36 142/234/36 141/231/36 143/230/36 152/238/36 149/239/36 156/240/36 153/241/36 160/242/36 157/243/36 158/244/36 159/245/36 154/246/36 155/247/36 150/248/36
f 153/241/36 154/246/36 159/245/36 160/242/36
f 152/238/36 143/230/36 144/235/36 151/237/36
f 149/239/36 150/248/36 155/247/36 156/240/36
f 137/225/37 145/232/37 146/233/37 138/226/37
f 146/233/38 147/236/38 140/227/38 138/226/38
f 139/228/39 140/227/39 147/236/39 148/229/39
f 137/225/40 139/228/40 148/229/40 145/232/40
