# Blender v2.91.0 OBJ File: ''
# www.blender.org
mtllib trash_bag.mtl
o Trash_Bag_Icosphere
v -0.092017 0.632495 0.004831
v -0.070121 0.635222 -0.025210
v -0.091691 0.632409 -0.055478
v -0.126917 0.627943 -0.044144
v -0.127119 0.627996 -0.006871
v 0.182945 0.088946 0.159200
v 0.108293 -0.000024 0.094224
v 0.215555 0.069897 0.001495
v -0.133164 0.000001 0.001522
v -0.040908 0.000005 -0.148476
v -0.040928 -0.000005 0.151520
v 0.238952 0.213782 0.093936
v -0.070925 0.088977 0.256679
v 0.066307 0.069902 0.244198
v -0.002707 0.213640 0.301224
v -0.227857 0.088983 0.001485
v -0.175168 0.069918 0.151495
v -0.246374 0.211451 0.093807
v -0.070905 0.088988 -0.253709
v -0.175153 0.069925 -0.148502
v -0.153650 0.212288 -0.241560
v 0.182987 0.088967 -0.156233
v 0.066332 0.069914 -0.241207
v 0.146594 0.213466 -0.241487
v 0.146536 0.213679 0.243930
v -0.152829 0.212723 0.243879
v -0.246783 0.211318 -0.091612
v -0.003018 0.213220 -0.298797
v 0.239115 0.213785 -0.091469
v 0.022435 0.429312 0.209530
v 0.110548 0.430628 0.131187
v -0.084355 0.566633 0.018256
v -0.192144 0.411810 0.124411
v -0.093497 0.418980 0.209602
v -0.112901 0.562868 0.007026
v -0.191582 0.412073 -0.135414
v -0.227693 0.404930 -0.005291
v -0.112699 0.562815 -0.028817
v 0.020704 0.429116 -0.217030
v -0.093989 0.418623 -0.216455
v -0.084029 0.566549 -0.039739
v 0.140301 0.436539 -0.004916
v 0.106884 0.431350 -0.137107
v -0.066508 0.568909 -0.010646
v -0.094231 0.576830 -0.014275
v -0.091763 0.577158 -0.010800
v -0.098272 0.576307 -0.012974
v -0.094278 0.576839 -0.007352
v -0.098301 0.576312 -0.008695
v 0.108318 -0.000011 -0.091182
v -0.094231 0.576830 -0.014275
v -0.091763 0.577158 -0.010800
v -0.094278 0.576839 -0.007352
v -0.098301 0.576312 -0.008695
v -0.098272 0.576307 -0.012974
vt 0.863635 0.393651
vt 0.590909 0.393651
vt 0.409090 0.393651
vt 0.227273 0.393651
vt 0.954545 0.393651
vt 0.727272 0.157461
vt 0.681818 0.078731
vt 0.636363 0.157461
vt 0.000000 0.000000
vt 0.000000 0.000000
vt 0.000000 0.000000
vt 0.000000 0.000000
vt 0.681818 0.236191
vt 0.909090 0.157461
vt 0.818181 0.157461
vt 0.863635 0.236191
vt 0.181818 0.157461
vt 0.090909 0.157461
vt 0.136363 0.236191
vt 0.363636 0.157461
vt 0.272727 0.157461
vt 0.318182 0.236191
vt 0.545454 0.157461
vt 0.454545 0.157461
vt 0.500000 0.236191
vt 0.772726 0.236191
vt 0.954545 0.236191
vt 0.227273 0.236191
vt 0.409090 0.236191
vt 0.590909 0.236191
vt 0.818181 0.314921
vt 0.727272 0.314921
vt 0.772726 0.393651
vt 1.000000 0.314921
vt 0.909091 0.314921
vt 0.954545 0.393651
vt 0.272727 0.314921
vt 0.181818 0.314921
vt 0.227273 0.393651
vt 0.454545 0.314921
vt 0.363636 0.314921
vt 0.409090 0.393651
vt 0.636363 0.314921
vt 0.545454 0.314921
vt 0.590909 0.393651
vt 0.500000 0.393651
vt 0.500000 0.393651
vt 0.590909 0.393651
vt 0.318182 0.393651
vt 0.318182 0.393651
vt 0.409090 0.393651
vt 0.681818 0.393651
vt 0.681818 0.393651
vt 0.772726 0.393651
vt 0.136363 0.393651
vt 0.090909 0.314921
vt 0.136363 0.393651
vt 0.227273 0.393651
vt 0.863635 0.393651
vt 0.863635 0.393651
vt 0.954545 0.393651
vt 0.045454 0.236191
vt 0.000000 0.157461
vt 0.500000 0.078731
vt 0.409090 0.078731
vt 0.318182 0.078731
vt 0.227273 0.078731
vt 0.136363 0.078731
vt 0.045454 0.078731
vt 0.590909 0.078731
vt 0.000000 0.000000
vt 0.863635 0.078731
vt 0.772726 0.078731
vt 0.500000 0.393651
vt 0.590909 0.393651
vt 0.681818 0.393651
vt 0.772726 0.393651
vt 0.136363 0.393651
vt 0.227273 0.393651
vt 0.863635 0.393651
vt 0.954545 0.393651
vt 0.318182 0.393651
vt 0.409090 0.393651
vt 0.500000 0.393651
vt 0.136363 0.393651
vt 0.681818 0.393651
vt 0.772726 0.393651
vt 0.318182 0.393651
vn -0.1264 0.9920 -0.0021
vn 0.6603 -0.7170 0.2232
vn -0.0000 -1.0000 -0.0000
vn -0.0001 -1.0000 -0.0000
vn 0.9273 -0.2970 0.2276
vn 0.0359 -0.3536 0.9347
vn -0.8995 -0.3415 0.2725
vn -0.6309 -0.3555 -0.6896
vn 0.5903 -0.3315 -0.7360
vn 0.8465 -0.1071 0.5215
vn -0.3527 -0.1377 0.9255
vn -0.9885 -0.1512 0.0023
vn -0.3507 -0.1442 -0.9253
vn 0.8461 -0.1098 -0.5216
vn 0.3509 0.8424 0.4089
vn -0.5076 0.6787 0.5307
vn -0.8066 0.5587 -0.1932
vn -0.0733 0.7668 -0.6377
vn 0.5347 0.8282 -0.1677
vn 0.2965 0.9196 -0.2579
vn 0.4294 0.8418 -0.3269
vn 0.3704 0.8272 -0.4225
vn -0.2806 0.8440 -0.4570
vn -0.3230 0.7346 -0.5967
vn -0.5064 0.6586 -0.5566
vn 0.2935 0.9203 0.2586
vn -0.8087 0.5882 -0.0054
vn -0.8012 0.5676 0.1895
vn -0.6802 0.7330 -0.0050
vn -0.3234 0.7566 0.5684
vn -0.0702 0.7914 0.6073
vn -0.2857 0.8454 0.4514
vn 0.4101 0.8539 0.3205
vn 0.5298 0.8344 0.1521
vn 0.8519 0.4687 -0.2337
vn 0.7880 0.3768 -0.4868
vn 0.6077 0.4305 -0.6673
vn -0.0374 0.3575 -0.9332
vn -0.3483 0.2118 -0.9131
vn -0.6258 0.2700 -0.7318
vn -0.9459 0.2053 -0.2512
vn -0.9953 0.0972 0.0021
vn -0.9442 0.2178 0.2472
vn -0.6357 0.3010 0.7108
vn -0.3468 0.2500 0.9040
vn -0.0346 0.3944 0.9183
vn 0.5906 0.4471 0.6718
vn 0.7865 0.3824 0.4849
vn 0.8569 0.4717 0.2078
vn 0.3408 0.3000 -0.8910
vn 0.3509 -0.1980 -0.9152
vn 0.0353 -0.3579 -0.9331
vn -0.8439 0.1178 -0.5234
vn -0.8295 -0.2124 -0.5166
vn -0.8982 -0.3457 -0.2717
vn -0.8399 0.1476 0.5223
vn -0.8297 -0.2059 0.5189
vn -0.6336 -0.3479 0.6910
vn 0.3377 0.3347 0.8798
vn 0.3516 -0.1945 0.9157
vn 0.5907 -0.3283 0.7371
vn 0.9142 0.4052 0.0008
vn 0.9869 -0.1610 0.0009
vn 0.9268 -0.2987 -0.2275
vn 0.4692 -0.7429 -0.4775
vn 0.1749 -0.8728 -0.4557
vn -0.0489 -0.7695 -0.6367
vn -0.3928 -0.7544 -0.5259
vn -0.4443 -0.8532 -0.2733
vn -0.6774 -0.7209 -0.1464
vn -0.6774 -0.7209 0.1463
vn -0.4444 -0.8531 0.2733
vn -0.3929 -0.7542 0.5261
vn 0.6603 -0.7171 -0.2230
vn 0.5461 -0.8377 0.0000
vn -0.0001 -1.0000 -0.0001
vn -0.0490 -0.7693 0.6370
vn 0.1749 -0.8727 0.4559
vn 0.4693 -0.7427 0.4777
vn 0.0000 0.0000 1.0000
vn 0.0000 0.0000 0.0000
vn -0.4736 0.1272 -0.8715
vn 0.0000 0.0000 -0.8715
vn 0.0000 0.0000 -0.9619
vn -0.2638 0.0713 -0.9619
vn 0.7609 -0.4086 -0.5040
vn -0.8734 -0.4870 -0.0042
vn 0.8047 -0.1579 0.5722
vn -0.1818 -0.5802 -0.7939
vn -0.2878 -0.1936 0.9379
usemtl Trash
s off
f 1/1/1 2/2/1 3/3/1 4/4/1 5/5/1
f 6/6/2 7/7/2 8/8/2
f 9/9/3 10/10/3 11/11/3
f 10/10/4 7/12/4 11/11/4
f 6/6/5 8/8/5 12/13/5
f 13/14/6 14/15/6 15/16/6
f 16/17/7 17/18/7 18/19/7
f 19/20/8 20/21/8 21/22/8
f 22/23/9 23/24/9 24/25/9
f 6/6/10 12/13/10 25/26/10
f 13/14/11 15/16/11 26/27/11
f 16/17/12 18/19/12 27/28/12
f 19/20/13 21/22/13 28/29/13
f 22/23/14 24/25/14 29/30/14
f 30/31/15 31/32/15 32/33/15
f 33/34/16 34/35/16 35/36/16
f 36/37/17 37/38/17 38/39/17
f 39/40/18 40/41/18 41/42/18
f 42/43/19 43/44/19 44/45/19
f 44/45/20 41/46/20 45/47/20 46/48/20
f 44/45/21 43/44/21 41/46/21
f 43/44/22 39/40/22 41/46/22
f 41/42/23 38/49/23 47/50/23 45/51/23
f 41/42/24 40/41/24 38/49/24
f 40/41/25 36/37/25 38/49/25
f 32/33/26 44/52/26 46/53/26 48/54/26
f 38/39/27 37/38/27 35/55/27
f 37/38/28 33/56/28 35/55/28
f 38/39/29 35/55/29 49/57/29 47/58/29
f 35/36/30 34/35/30 32/59/30
f 34/35/31 30/31/31 32/59/31
f 35/36/32 32/59/32 48/60/32 49/61/32
f 32/33/33 31/32/33 44/52/33
f 31/32/34 42/43/34 44/52/34
f 29/30/35 43/44/35 42/43/35
f 29/30/36 24/25/36 43/44/36
f 24/25/37 39/40/37 43/44/37
f 28/29/38 40/41/38 39/40/38
f 28/29/39 21/22/39 40/41/39
f 21/22/40 36/37/40 40/41/40
f 27/28/41 37/38/41 36/37/41
f 27/28/42 18/19/42 37/38/42
f 18/19/43 33/56/43 37/38/43
f 26/27/44 34/35/44 33/34/44
f 26/27/45 15/16/45 34/35/45
f 15/16/46 30/31/46 34/35/46
f 25/26/47 31/32/47 30/31/47
f 25/26/48 12/13/48 31/32/48
f 12/13/49 42/43/49 31/32/49
f 24/25/50 28/29/50 39/40/50
f 24/25/51 23/24/51 28/29/51
f 23/24/52 19/20/52 28/29/52
f 21/22/53 27/28/53 36/37/53
f 21/22/54 20/21/54 27/28/54
f 20/21/55 16/17/55 27/28/55
f 18/19/56 26/62/56 33/56/56
f 18/19/57 17/18/57 26/62/57
f 17/18/58 13/63/58 26/62/58
f 15/16/59 25/26/59 30/31/59
f 15/16/60 14/15/60 25/26/60
f 14/15/61 6/6/61 25/26/61
f 12/13/62 29/30/62 42/43/62
f 12/13/63 8/8/63 29/30/63
f 8/8/64 22/23/64 29/30/64
f 50/64/65 23/24/65 22/23/65
f 50/64/66 10/65/66 23/24/66
f 10/65/67 19/20/67 23/24/67
f 10/66/68 20/21/68 19/20/68
f 10/66/69 9/67/69 20/21/69
f 9/67/70 16/17/70 20/21/70
f 9/68/71 17/18/71 16/17/71
f 9/68/72 11/69/72 17/18/72
f 11/69/73 13/63/73 17/18/73
f 8/8/74 50/70/74 22/23/74
f 8/8/75 7/7/75 50/70/75
f 50/71/76 7/12/76 10/10/76
f 11/72/77 14/15/77 13/14/77
f 11/72/78 7/73/78 14/15/78
f 7/73/79 6/6/79 14/15/79
f 46/48/80 45/47/80 51/74/80 52/75/80
f 48/54/80 46/53/80 52/76/80 53/77/80
f 47/58/81 49/57/81 54/78/81 55/79/81
f 49/61/82 48/60/80 53/80/80 54/81/83
f 45/51/80 47/50/84 55/82/85 51/83/80
f 52/75/86 51/74/86 3/84/86 2/2/86
f 55/79/87 54/78/87 5/85/87 4/4/87
f 53/77/88 52/76/88 2/86/88 1/87/88
f 51/83/89 55/82/89 4/88/89 3/3/89
f 54/81/90 53/80/90 1/1/90 5/5/90
